<svg width="979" height="305" viewBox="0 0 979 305" fill="none" xmlns="http://www.w3.org/2000/svg">
<path d="M474.857 253.094C474.737 252.374 474.624 251.674 474.517 250.994C474.424 250.314 474.377 249.714 474.377 249.194C474.377 248.154 474.577 247.254 474.977 246.494C475.377 245.747 475.944 245.167 476.677 244.754C477.41 244.34 478.277 244.134 479.277 244.134C479.477 244.134 479.724 244.134 480.017 244.134C480.324 244.134 480.677 244.134 481.077 244.134C481.477 244.134 481.924 244.134 482.417 244.134C482.91 244.134 483.45 244.134 484.037 244.134L482.817 245.294V241.514C482.817 240.82 482.737 240.274 482.577 239.874C482.43 239.46 482.157 239.167 481.757 238.994C481.37 238.82 480.804 238.734 480.057 238.734C479.55 238.734 479.03 238.774 478.497 238.854C477.977 238.92 477.564 239.014 477.257 239.134L478.937 237.574C478.844 237.894 478.757 238.294 478.677 238.774C478.61 239.254 478.557 239.754 478.517 240.274C478.477 240.78 478.457 241.26 478.457 241.714C478.457 242.207 478.477 242.707 478.517 243.214C478.557 243.707 478.604 244.147 478.657 244.534C478.724 244.92 478.777 245.187 478.817 245.334L476.277 246.034C476.21 245.847 476.137 245.54 476.057 245.114C475.99 244.687 475.924 244.187 475.857 243.614C475.804 243.027 475.777 242.407 475.777 241.754C475.777 241.1 475.804 240.467 475.857 239.854C475.924 239.227 476.004 238.667 476.097 238.174C476.19 237.667 476.277 237.26 476.357 236.954C476.704 236.82 477.217 236.7 477.897 236.594C478.577 236.474 479.31 236.414 480.097 236.414C480.964 236.414 481.704 236.5 482.317 236.674C482.944 236.834 483.457 237.067 483.857 237.374C484.27 237.68 484.597 238.047 484.837 238.474C485.077 238.887 485.244 239.354 485.337 239.874C485.43 240.394 485.477 240.947 485.477 241.534V246.454C484.89 246.454 484.277 246.454 483.637 246.454C483.01 246.454 482.397 246.454 481.797 246.454C481.21 246.454 480.69 246.454 480.237 246.454C479.797 246.454 479.477 246.454 479.277 246.454C479.064 246.454 478.83 246.48 478.577 246.534C478.324 246.6 478.077 246.72 477.837 246.894C477.61 247.08 477.424 247.354 477.277 247.714C477.13 248.087 477.057 248.58 477.057 249.194C477.057 249.674 477.097 250.234 477.177 250.874C477.27 251.514 477.377 252.254 477.497 253.094H474.857ZM491.338 246.454V244.134H493.618V246.454H491.338ZM488.678 246.454V232.314H491.338V246.454H488.678ZM493.618 246.454V244.134C493.698 244.134 493.758 244.16 493.798 244.214C493.851 244.267 493.891 244.347 493.918 244.454C493.958 244.56 493.984 244.687 493.998 244.834C494.011 244.967 494.018 245.12 494.018 245.294C494.018 245.467 494.011 245.627 493.998 245.774C493.984 245.92 493.958 246.047 493.918 246.154C493.891 246.247 493.851 246.32 493.798 246.374C493.758 246.427 493.698 246.454 493.618 246.454ZM497.376 246.134C496.696 245.494 496.183 244.814 495.836 244.094C495.503 243.374 495.336 242.607 495.336 241.794C495.336 241.007 495.483 240.287 495.776 239.634C496.069 238.967 496.469 238.394 496.976 237.914C497.483 237.434 498.069 237.067 498.736 236.814C499.416 236.547 500.129 236.414 500.876 236.414C501.276 236.414 501.696 236.454 502.136 236.534C502.576 236.614 502.996 236.72 503.396 236.854L502.596 239.034C502.316 238.94 502.036 238.867 501.756 238.814C501.489 238.76 501.229 238.734 500.976 238.734C500.389 238.734 499.869 238.867 499.416 239.134C498.963 239.387 498.609 239.74 498.356 240.194C498.116 240.647 497.996 241.167 497.996 241.754C497.996 242.287 498.103 242.787 498.316 243.254C498.543 243.72 498.863 244.14 499.276 244.514L497.376 246.134ZM493.616 246.454V244.134H503.576V246.454H493.616ZM493.616 246.454C493.536 246.454 493.476 246.427 493.436 246.374C493.383 246.32 493.343 246.247 493.316 246.154C493.276 246.047 493.249 245.92 493.236 245.774C493.223 245.627 493.216 245.467 493.216 245.294C493.216 245.054 493.229 244.854 493.256 244.694C493.283 244.52 493.329 244.387 493.396 244.294C493.449 244.187 493.523 244.134 493.616 244.134V246.454ZM436.761 296.454V291.054L444.311 283.304C445.745 281.837 446.978 280.554 448.011 279.454C449.045 278.32 449.828 277.254 450.361 276.254C450.928 275.254 451.211 274.187 451.211 273.054C451.211 271.387 450.745 270.27 449.811 269.704C448.878 269.104 447.378 268.804 445.311 268.804C444.478 268.804 443.561 268.854 442.561 268.954C441.561 269.054 440.595 269.17 439.661 269.304C438.761 269.437 437.978 269.57 437.311 269.704L436.961 264.404C437.695 264.204 438.595 263.987 439.661 263.754C440.761 263.52 441.945 263.32 443.211 263.154C444.511 262.954 445.778 262.854 447.011 262.854C450.611 262.854 453.361 263.62 455.261 265.154C457.161 266.654 458.111 268.987 458.111 272.154C458.111 273.887 457.861 275.42 457.361 276.754C456.895 278.087 456.145 279.37 455.111 280.604C454.111 281.804 452.778 283.12 451.111 284.554L444.511 290.854H458.561V296.454H436.761ZM475.495 297.004C473.361 297.004 471.511 296.72 469.945 296.154C468.378 295.554 467.078 294.604 466.045 293.304C465.045 291.97 464.278 290.237 463.745 288.104C463.245 285.97 462.995 283.354 462.995 280.254C462.995 277.054 463.245 274.337 463.745 272.104C464.278 269.87 465.061 268.087 466.095 266.754C467.128 265.387 468.411 264.404 469.945 263.804C471.511 263.204 473.345 262.904 475.445 262.904C477.611 262.904 479.478 263.204 481.045 263.804C482.611 264.404 483.895 265.387 484.895 266.754C485.928 268.087 486.678 269.87 487.145 272.104C487.645 274.304 487.895 277.02 487.895 280.254C487.895 284.354 487.445 287.637 486.545 290.104C485.678 292.537 484.328 294.304 482.495 295.404C480.661 296.47 478.328 297.004 475.495 297.004ZM475.495 291.204C476.428 291.204 477.228 291.054 477.895 290.754C478.595 290.42 479.178 289.854 479.645 289.054C480.111 288.254 480.445 287.137 480.645 285.704C480.878 284.27 480.995 282.454 480.995 280.254C480.995 277.92 480.878 276.004 480.645 274.504C480.445 273.004 480.128 271.837 479.695 271.004C479.261 270.137 478.695 269.537 477.995 269.204C477.295 268.837 476.461 268.654 475.495 268.654C474.528 268.654 473.695 268.837 472.995 269.204C472.295 269.537 471.711 270.12 471.245 270.954C470.811 271.787 470.478 272.97 470.245 274.504C470.011 276.004 469.895 277.937 469.895 280.304C469.895 282.504 470.011 284.32 470.245 285.754C470.511 287.187 470.878 288.304 471.345 289.104C471.811 289.87 472.378 290.42 473.045 290.754C473.745 291.054 474.561 291.204 475.495 291.204ZM492.328 296.454V291.054L499.878 283.304C501.311 281.837 502.544 280.554 503.578 279.454C504.611 278.32 505.394 277.254 505.928 276.254C506.494 275.254 506.778 274.187 506.778 273.054C506.778 271.387 506.311 270.27 505.378 269.704C504.444 269.104 502.944 268.804 500.878 268.804C500.044 268.804 499.128 268.854 498.128 268.954C497.128 269.054 496.161 269.17 495.228 269.304C494.328 269.437 493.544 269.57 492.878 269.704L492.528 264.404C493.261 264.204 494.161 263.987 495.228 263.754C496.328 263.52 497.511 263.32 498.778 263.154C500.078 262.954 501.344 262.854 502.578 262.854C506.178 262.854 508.928 263.62 510.828 265.154C512.728 266.654 513.678 268.987 513.678 272.154C513.678 273.887 513.428 275.42 512.928 276.754C512.461 278.087 511.711 279.37 510.678 280.604C509.678 281.804 508.344 283.12 506.678 284.554L500.078 290.854H514.128V296.454H492.328ZM520.111 296.454V291.054L527.661 283.304C529.094 281.837 530.328 280.554 531.361 279.454C532.394 278.32 533.178 277.254 533.711 276.254C534.278 275.254 534.561 274.187 534.561 273.054C534.561 271.387 534.094 270.27 533.161 269.704C532.228 269.104 530.728 268.804 528.661 268.804C527.828 268.804 526.911 268.854 525.911 268.954C524.911 269.054 523.944 269.17 523.011 269.304C522.111 269.437 521.328 269.57 520.661 269.704L520.311 264.404C521.044 264.204 521.944 263.987 523.011 263.754C524.111 263.52 525.294 263.32 526.561 263.154C527.861 262.954 529.128 262.854 530.361 262.854C533.961 262.854 536.711 263.62 538.611 265.154C540.511 266.654 541.461 268.987 541.461 272.154C541.461 273.887 541.211 275.42 540.711 276.754C540.244 278.087 539.494 279.37 538.461 280.604C537.461 281.804 536.128 283.12 534.461 284.554L527.861 290.854H541.911V296.454H520.111Z" fill="#333333"/>
<path d="M561.841 176.285C549.766 188.359 534.879 197.243 518.519 202.136C502.159 207.028 484.839 207.777 468.117 204.314C451.396 200.851 435.798 193.286 422.726 182.298C409.654 171.31 399.52 157.245 393.233 141.368C386.947 125.491 384.707 108.3 386.714 91.342C388.721 74.3841 394.913 58.1913 404.732 44.2204C414.55 30.2495 427.689 18.9388 442.964 11.3061C458.24 3.67337 475.173 -0.0419469 492.241 0.49443L489.005 103.449L561.841 176.285Z" fill="#3A73A8"/>
<path d="M489.005 0.443603C510.76 0.443603 531.955 7.33102 549.554 20.1186C567.153 32.9062 580.252 50.9373 586.972 71.6273C593.693 92.3174 593.69 114.604 586.965 135.293C580.24 155.981 567.137 174.009 549.535 186.793C531.934 199.577 510.736 206.459 488.982 206.454C467.228 206.449 446.034 199.557 428.438 186.766C410.842 173.974 397.747 155.94 391.031 135.249C384.316 114.557 384.323 92.2705 391.053 71.5834L489.005 103.449L489.005 0.443603Z" fill="#D9A867"/>
<circle cx="489.006" cy="103.447" r="76.0069" fill="white"/>
<path d="M460.809 118.494L458.929 118.014L466.449 89.4539L468.369 89.9739L460.809 118.494ZM457.529 102.614C456.409 102.614 455.475 102.401 454.729 101.974C454.009 101.521 453.475 100.841 453.129 99.9339C452.782 99.0006 452.609 97.8139 452.609 96.3739C452.609 94.9339 452.782 93.7606 453.129 92.8539C453.502 91.9472 454.049 91.2939 454.769 90.8939C455.515 90.4672 456.435 90.2539 457.529 90.2539C458.675 90.2539 459.609 90.4672 460.329 90.8939C461.049 91.2939 461.582 91.9472 461.929 92.8539C462.275 93.7606 462.449 94.9339 462.449 96.3739C462.449 97.8139 462.275 99.0006 461.929 99.9339C461.582 100.841 461.049 101.521 460.329 101.974C459.609 102.401 458.675 102.614 457.529 102.614ZM457.529 99.6939C457.902 99.6939 458.195 99.6006 458.409 99.4139C458.622 99.2006 458.769 98.8539 458.849 98.3739C458.955 97.8672 459.009 97.2006 459.009 96.3739C459.009 95.5472 458.955 94.9072 458.849 94.4539C458.769 93.9739 458.622 93.6406 458.409 93.4539C458.195 93.2406 457.902 93.1339 457.529 93.1339C457.155 93.1339 456.862 93.2406 456.649 93.4539C456.435 93.6406 456.289 93.9739 456.209 94.4539C456.129 94.9072 456.089 95.5472 456.089 96.3739C456.089 97.2006 456.129 97.8672 456.209 98.3739C456.289 98.8539 456.435 99.2006 456.649 99.4139C456.862 99.6006 457.155 99.6939 457.529 99.6939ZM469.849 117.454C468.702 117.454 467.755 117.241 467.009 116.814C466.289 116.361 465.755 115.681 465.409 114.774C465.062 113.841 464.889 112.654 464.889 111.214C464.889 109.774 465.062 108.601 465.409 107.694C465.782 106.787 466.329 106.121 467.049 105.694C467.795 105.267 468.729 105.054 469.849 105.054C470.969 105.054 471.889 105.267 472.609 105.694C473.329 106.121 473.862 106.787 474.209 107.694C474.582 108.601 474.769 109.774 474.769 111.214C474.769 112.654 474.582 113.841 474.209 114.774C473.862 115.681 473.329 116.361 472.609 116.814C471.889 117.241 470.969 117.454 469.849 117.454ZM469.849 114.534C470.195 114.534 470.475 114.441 470.689 114.254C470.929 114.041 471.089 113.694 471.169 113.214C471.249 112.707 471.289 112.041 471.289 111.214C471.289 110.361 471.249 109.707 471.169 109.254C471.089 108.774 470.942 108.454 470.729 108.294C470.515 108.107 470.222 108.014 469.849 108.014C469.449 108.014 469.142 108.107 468.929 108.294C468.715 108.454 468.569 108.774 468.489 109.254C468.409 109.707 468.369 110.361 468.369 111.214C468.369 112.041 468.409 112.707 468.489 113.214C468.595 113.694 468.755 114.041 468.969 114.254C469.182 114.441 469.475 114.534 469.849 114.534ZM495.384 117.454C494.051 117.454 492.771 117.334 491.544 117.094C490.317 116.881 489.237 116.507 488.304 115.974C487.371 115.414 486.637 114.667 486.104 113.734C485.571 112.774 485.304 111.587 485.304 110.174C485.304 108.841 485.464 107.774 485.784 106.974C486.131 106.174 486.611 105.494 487.224 104.934C487.837 104.374 488.571 103.841 489.424 103.334C488.571 102.854 487.864 102.347 487.304 101.814C486.771 101.281 486.371 100.641 486.104 99.8939C485.864 99.1206 485.744 98.1872 485.744 97.0939C485.744 95.4672 486.144 94.1472 486.944 93.1339C487.771 92.1206 488.904 91.3739 490.344 90.8939C491.811 90.4139 493.491 90.1739 495.384 90.1739C497.277 90.1739 498.957 90.4006 500.424 90.8539C501.917 91.3072 503.077 92.0539 503.904 93.0939C504.757 94.1072 505.184 95.4539 505.184 97.1339C505.184 98.2539 505.051 99.2006 504.784 99.9739C504.544 100.721 504.144 101.361 503.584 101.894C503.024 102.401 502.277 102.894 501.344 103.374C502.277 103.801 503.051 104.294 503.664 104.854C504.304 105.387 504.784 106.054 505.104 106.854C505.424 107.654 505.584 108.681 505.584 109.934C505.584 111.374 505.317 112.587 504.784 113.574C504.251 114.534 503.504 115.307 502.544 115.894C501.611 116.454 500.531 116.854 499.304 117.094C498.077 117.334 496.771 117.454 495.384 117.454ZM495.384 113.094C496.317 113.094 497.131 112.987 497.824 112.774C498.544 112.534 499.091 112.147 499.464 111.614C499.864 111.054 500.064 110.294 500.064 109.334C500.064 108.587 499.917 107.974 499.624 107.494C499.357 106.987 498.971 106.574 498.464 106.254C497.984 105.934 497.451 105.681 496.864 105.494H493.864C492.931 105.787 492.184 106.254 491.624 106.894C491.091 107.507 490.824 108.361 490.824 109.454C490.824 110.334 491.011 111.041 491.384 111.574C491.784 112.107 492.331 112.494 493.024 112.734C493.717 112.974 494.504 113.094 495.384 113.094ZM493.864 101.454H496.864C497.744 101.107 498.437 100.654 498.944 100.094C499.451 99.5339 499.704 98.8006 499.704 97.8939C499.704 96.6939 499.331 95.8272 498.584 95.2939C497.864 94.7606 496.811 94.4939 495.424 94.4939C494.064 94.4939 493.024 94.7606 492.304 95.2939C491.584 95.8272 491.224 96.6806 491.224 97.8539C491.224 98.7872 491.451 99.5339 491.904 100.094C492.357 100.654 493.011 101.107 493.864 101.454ZM517.691 117.454C515.984 117.454 514.504 117.227 513.251 116.774C511.997 116.294 510.957 115.534 510.131 114.494C509.331 113.427 508.717 112.041 508.291 110.334C507.891 108.627 507.691 106.534 507.691 104.054C507.691 101.494 507.891 99.3206 508.291 97.5339C508.717 95.7472 509.344 94.3206 510.171 93.2539C510.997 92.1606 512.024 91.3739 513.251 90.8939C514.504 90.4139 515.971 90.1739 517.651 90.1739C519.384 90.1739 520.877 90.4139 522.131 90.8939C523.384 91.3739 524.411 92.1606 525.211 93.2539C526.037 94.3206 526.637 95.7472 527.011 97.5339C527.411 99.2939 527.611 101.467 527.611 104.054C527.611 107.334 527.251 109.961 526.531 111.934C525.837 113.881 524.757 115.294 523.291 116.174C521.824 117.027 519.957 117.454 517.691 117.454ZM517.691 112.814C518.437 112.814 519.077 112.694 519.611 112.454C520.171 112.187 520.637 111.734 521.011 111.094C521.384 110.454 521.651 109.561 521.811 108.414C521.997 107.267 522.091 105.814 522.091 104.054C522.091 102.187 521.997 100.654 521.811 99.4539C521.651 98.2539 521.397 97.3206 521.051 96.6539C520.704 95.9606 520.251 95.4806 519.691 95.2139C519.131 94.9206 518.464 94.7739 517.691 94.7739C516.917 94.7739 516.251 94.9206 515.691 95.2139C515.131 95.4806 514.664 95.9472 514.291 96.6139C513.944 97.2806 513.677 98.2272 513.491 99.4539C513.304 100.654 513.211 102.201 513.211 104.094C513.211 105.854 513.304 107.307 513.491 108.454C513.704 109.601 513.997 110.494 514.371 111.134C514.744 111.747 515.197 112.187 515.731 112.454C516.291 112.694 516.944 112.814 517.691 112.814Z" fill="#333333"/>
<path d="M858.678 253.094C858.558 252.374 858.445 251.674 858.338 250.994C858.245 250.314 858.198 249.714 858.198 249.194C858.198 248.154 858.398 247.254 858.798 246.494C859.198 245.747 859.765 245.167 860.498 244.754C861.232 244.34 862.098 244.134 863.098 244.134C863.298 244.134 863.545 244.134 863.838 244.134C864.145 244.134 864.498 244.134 864.898 244.134C865.298 244.134 865.745 244.134 866.238 244.134C866.732 244.134 867.272 244.134 867.858 244.134L866.638 245.294V241.514C866.638 240.82 866.558 240.274 866.398 239.874C866.252 239.46 865.978 239.167 865.578 238.994C865.192 238.82 864.625 238.734 863.878 238.734C863.372 238.734 862.852 238.774 862.318 238.854C861.798 238.92 861.385 239.014 861.078 239.134L862.758 237.574C862.665 237.894 862.578 238.294 862.498 238.774C862.432 239.254 862.378 239.754 862.338 240.274C862.298 240.78 862.278 241.26 862.278 241.714C862.278 242.207 862.298 242.707 862.338 243.214C862.378 243.707 862.425 244.147 862.478 244.534C862.545 244.92 862.598 245.187 862.638 245.334L860.098 246.034C860.032 245.847 859.958 245.54 859.878 245.114C859.812 244.687 859.745 244.187 859.678 243.614C859.625 243.027 859.598 242.407 859.598 241.754C859.598 241.1 859.625 240.467 859.678 239.854C859.745 239.227 859.825 238.667 859.918 238.174C860.012 237.667 860.098 237.26 860.178 236.954C860.525 236.82 861.038 236.7 861.718 236.594C862.398 236.474 863.132 236.414 863.918 236.414C864.785 236.414 865.525 236.5 866.138 236.674C866.765 236.834 867.278 237.067 867.678 237.374C868.092 237.68 868.418 238.047 868.658 238.474C868.898 238.887 869.065 239.354 869.158 239.874C869.252 240.394 869.298 240.947 869.298 241.534V246.454C868.712 246.454 868.098 246.454 867.458 246.454C866.832 246.454 866.218 246.454 865.618 246.454C865.032 246.454 864.512 246.454 864.058 246.454C863.618 246.454 863.298 246.454 863.098 246.454C862.885 246.454 862.652 246.48 862.398 246.534C862.145 246.6 861.898 246.72 861.658 246.894C861.432 247.08 861.245 247.354 861.098 247.714C860.952 248.087 860.878 248.58 860.878 249.194C860.878 249.674 860.918 250.234 860.998 250.874C861.092 251.514 861.198 252.254 861.318 253.094H858.678ZM875.159 246.454V244.134H877.439V246.454H875.159ZM872.499 246.454V232.314H875.159V246.454H872.499ZM877.439 246.454V244.134C877.519 244.134 877.579 244.16 877.619 244.214C877.672 244.267 877.712 244.347 877.739 244.454C877.779 244.56 877.806 244.687 877.819 244.834C877.832 244.967 877.839 245.12 877.839 245.294C877.839 245.467 877.832 245.627 877.819 245.774C877.806 245.92 877.779 246.047 877.739 246.154C877.712 246.247 877.672 246.32 877.619 246.374C877.579 246.427 877.519 246.454 877.439 246.454ZM881.197 246.134C880.517 245.494 880.004 244.814 879.657 244.094C879.324 243.374 879.157 242.607 879.157 241.794C879.157 241.007 879.304 240.287 879.597 239.634C879.891 238.967 880.291 238.394 880.797 237.914C881.304 237.434 881.891 237.067 882.557 236.814C883.237 236.547 883.951 236.414 884.697 236.414C885.097 236.414 885.517 236.454 885.957 236.534C886.397 236.614 886.817 236.72 887.217 236.854L886.417 239.034C886.137 238.94 885.857 238.867 885.577 238.814C885.311 238.76 885.051 238.734 884.797 238.734C884.211 238.734 883.691 238.867 883.237 239.134C882.784 239.387 882.431 239.74 882.177 240.194C881.937 240.647 881.817 241.167 881.817 241.754C881.817 242.287 881.924 242.787 882.137 243.254C882.364 243.72 882.684 244.14 883.097 244.514L881.197 246.134ZM877.437 246.454V244.134H887.397V246.454H877.437ZM877.437 246.454C877.357 246.454 877.297 246.427 877.257 246.374C877.204 246.32 877.164 246.247 877.137 246.154C877.097 246.047 877.071 245.92 877.057 245.774C877.044 245.627 877.037 245.467 877.037 245.294C877.037 245.054 877.051 244.854 877.077 244.694C877.104 244.52 877.151 244.387 877.217 244.294C877.271 244.187 877.344 244.134 877.437 244.134V246.454ZM820.583 296.454V291.054L828.133 283.304C829.566 281.837 830.799 280.554 831.833 279.454C832.866 278.32 833.649 277.254 834.183 276.254C834.749 275.254 835.033 274.187 835.033 273.054C835.033 271.387 834.566 270.27 833.633 269.704C832.699 269.104 831.199 268.804 829.133 268.804C828.299 268.804 827.383 268.854 826.383 268.954C825.383 269.054 824.416 269.17 823.483 269.304C822.583 269.437 821.799 269.57 821.133 269.704L820.783 264.404C821.516 264.204 822.416 263.987 823.483 263.754C824.583 263.52 825.766 263.32 827.033 263.154C828.333 262.954 829.599 262.854 830.833 262.854C834.433 262.854 837.183 263.62 839.083 265.154C840.983 266.654 841.933 268.987 841.933 272.154C841.933 273.887 841.683 275.42 841.183 276.754C840.716 278.087 839.966 279.37 838.933 280.604C837.933 281.804 836.599 283.12 834.933 284.554L828.333 290.854H842.383V296.454H820.583ZM859.316 297.004C857.182 297.004 855.332 296.72 853.766 296.154C852.199 295.554 850.899 294.604 849.866 293.304C848.866 291.97 848.099 290.237 847.566 288.104C847.066 285.97 846.816 283.354 846.816 280.254C846.816 277.054 847.066 274.337 847.566 272.104C848.099 269.87 848.882 268.087 849.916 266.754C850.949 265.387 852.232 264.404 853.766 263.804C855.332 263.204 857.166 262.904 859.266 262.904C861.432 262.904 863.299 263.204 864.866 263.804C866.432 264.404 867.716 265.387 868.716 266.754C869.749 268.087 870.499 269.87 870.966 272.104C871.466 274.304 871.716 277.02 871.716 280.254C871.716 284.354 871.266 287.637 870.366 290.104C869.499 292.537 868.149 294.304 866.316 295.404C864.482 296.47 862.149 297.004 859.316 297.004ZM859.316 291.204C860.249 291.204 861.049 291.054 861.716 290.754C862.416 290.42 862.999 289.854 863.466 289.054C863.932 288.254 864.266 287.137 864.466 285.704C864.699 284.27 864.816 282.454 864.816 280.254C864.816 277.92 864.699 276.004 864.466 274.504C864.266 273.004 863.949 271.837 863.516 271.004C863.082 270.137 862.516 269.537 861.816 269.204C861.116 268.837 860.282 268.654 859.316 268.654C858.349 268.654 857.516 268.837 856.816 269.204C856.116 269.537 855.532 270.12 855.066 270.954C854.632 271.787 854.299 272.97 854.066 274.504C853.832 276.004 853.716 277.937 853.716 280.304C853.716 282.504 853.832 284.32 854.066 285.754C854.332 287.187 854.699 288.304 855.166 289.104C855.632 289.87 856.199 290.42 856.866 290.754C857.566 291.054 858.382 291.204 859.316 291.204ZM876.149 296.454V291.054L883.699 283.304C885.132 281.837 886.366 280.554 887.399 279.454C888.432 278.32 889.216 277.254 889.749 276.254C890.316 275.254 890.599 274.187 890.599 273.054C890.599 271.387 890.132 270.27 889.199 269.704C888.266 269.104 886.766 268.804 884.699 268.804C883.866 268.804 882.949 268.854 881.949 268.954C880.949 269.054 879.982 269.17 879.049 269.304C878.149 269.437 877.366 269.57 876.699 269.704L876.349 264.404C877.082 264.204 877.982 263.987 879.049 263.754C880.149 263.52 881.332 263.32 882.599 263.154C883.899 262.954 885.166 262.854 886.399 262.854C889.999 262.854 892.749 263.62 894.649 265.154C896.549 266.654 897.499 268.987 897.499 272.154C897.499 273.887 897.249 275.42 896.749 276.754C896.282 278.087 895.532 279.37 894.499 280.604C893.499 281.804 892.166 283.12 890.499 284.554L883.899 290.854H897.949V296.454H876.149ZM915.132 296.454V270.854L907.332 275.354L905.032 270.404L915.982 263.454H921.932V296.454H915.132Z" fill="#333333"/>
<path d="M947.841 176.285C935.766 188.359 920.879 197.243 904.519 202.136C888.159 207.028 870.839 207.777 854.117 204.314C837.396 200.851 821.798 193.286 808.726 182.298C795.654 171.31 785.52 157.245 779.233 141.368C772.947 125.491 770.707 108.3 772.714 91.342C774.721 74.3841 780.913 58.1913 790.732 44.2204C800.55 30.2495 813.689 18.9388 828.964 11.3061C844.24 3.67337 861.173 -0.0419469 878.241 0.49443L875.005 103.449L947.841 176.285Z" fill="#3A73A8"/>
<path d="M875.005 0.443603C895.516 0.443603 915.56 6.56702 932.569 18.0294C949.578 29.4918 962.778 45.7712 970.478 64.7821C978.177 83.7929 980.026 104.67 975.787 124.738C971.548 144.806 961.414 163.151 946.684 177.424C931.953 191.697 913.297 201.247 893.106 204.852C872.914 208.456 852.106 205.95 833.347 197.655C814.589 189.359 798.733 175.653 787.813 158.291C776.893 140.929 771.404 120.702 772.051 100.201L875.005 103.449L875.005 0.443603Z" fill="#D9A867"/>
<circle cx="875.006" cy="103.447" r="76.0069" fill="white"/>
<path d="M830.077 118.494L828.197 118.014L835.717 89.4539L837.637 89.9739L830.077 118.494ZM826.797 102.614C825.677 102.614 824.744 102.401 823.997 101.974C823.277 101.521 822.744 100.841 822.397 99.9339C822.05 99.0006 821.877 97.8139 821.877 96.3739C821.877 94.9339 822.05 93.7606 822.397 92.8539C822.77 91.9472 823.317 91.2939 824.037 90.8939C824.784 90.4672 825.704 90.2539 826.797 90.2539C827.944 90.2539 828.877 90.4672 829.597 90.8939C830.317 91.2939 830.85 91.9472 831.197 92.8539C831.544 93.7606 831.717 94.9339 831.717 96.3739C831.717 97.8139 831.544 99.0006 831.197 99.9339C830.85 100.841 830.317 101.521 829.597 101.974C828.877 102.401 827.944 102.614 826.797 102.614ZM826.797 99.6939C827.17 99.6939 827.464 99.6006 827.677 99.4139C827.89 99.2006 828.037 98.8539 828.117 98.3739C828.224 97.8672 828.277 97.2006 828.277 96.3739C828.277 95.5472 828.224 94.9072 828.117 94.4539C828.037 93.9739 827.89 93.6406 827.677 93.4539C827.464 93.2406 827.17 93.1339 826.797 93.1339C826.424 93.1339 826.13 93.2406 825.917 93.4539C825.704 93.6406 825.557 93.9739 825.477 94.4539C825.397 94.9072 825.357 95.5472 825.357 96.3739C825.357 97.2006 825.397 97.8672 825.477 98.3739C825.557 98.8539 825.704 99.2006 825.917 99.4139C826.13 99.6006 826.424 99.6939 826.797 99.6939ZM839.117 117.454C837.97 117.454 837.024 117.241 836.277 116.814C835.557 116.361 835.024 115.681 834.677 114.774C834.33 113.841 834.157 112.654 834.157 111.214C834.157 109.774 834.33 108.601 834.677 107.694C835.05 106.787 835.597 106.121 836.317 105.694C837.064 105.267 837.997 105.054 839.117 105.054C840.237 105.054 841.157 105.267 841.877 105.694C842.597 106.121 843.13 106.787 843.477 107.694C843.85 108.601 844.037 109.774 844.037 111.214C844.037 112.654 843.85 113.841 843.477 114.774C843.13 115.681 842.597 116.361 841.877 116.814C841.157 117.241 840.237 117.454 839.117 117.454ZM839.117 114.534C839.464 114.534 839.744 114.441 839.957 114.254C840.197 114.041 840.357 113.694 840.437 113.214C840.517 112.707 840.557 112.041 840.557 111.214C840.557 110.361 840.517 109.707 840.437 109.254C840.357 108.774 840.21 108.454 839.997 108.294C839.784 108.107 839.49 108.014 839.117 108.014C838.717 108.014 838.41 108.107 838.197 108.294C837.984 108.454 837.837 108.774 837.757 109.254C837.677 109.707 837.637 110.361 837.637 111.214C837.637 112.041 837.677 112.707 837.757 113.214C837.864 113.694 838.024 114.041 838.237 114.254C838.45 114.441 838.744 114.534 839.117 114.534ZM864.372 117.454L859.092 116.174L867.732 96.6539V95.6139H856.252V90.6139H873.332V96.5739L864.372 117.454ZM887.119 117.454C886.106 117.454 885.012 117.374 883.839 117.214C882.666 117.081 881.532 116.907 880.439 116.694C879.346 116.481 878.412 116.294 877.639 116.134L878.119 112.054C878.839 112.161 879.692 112.294 880.679 112.454C881.666 112.587 882.679 112.694 883.719 112.774C884.759 112.854 885.706 112.894 886.559 112.894C887.919 112.894 888.999 112.547 889.799 111.854C890.599 111.134 890.999 110.094 890.999 108.734C890.999 107.801 890.826 107.067 890.479 106.534C890.159 106.001 889.679 105.627 889.039 105.414C888.426 105.174 887.706 105.054 886.879 105.054C886.239 105.054 885.599 105.121 884.959 105.254C884.319 105.361 883.719 105.507 883.159 105.694C882.599 105.854 882.146 106.027 881.799 106.214L878.199 105.654L878.839 90.6139H895.359V95.4539H883.159L882.639 101.334C883.012 101.174 883.479 101.014 884.039 100.854C884.599 100.667 885.199 100.507 885.839 100.374C886.506 100.241 887.146 100.174 887.759 100.174C889.599 100.174 891.159 100.427 892.439 100.934C893.719 101.441 894.692 102.281 895.359 103.454C896.052 104.627 896.399 106.227 896.399 108.254C896.399 110.361 896.012 112.094 895.239 113.454C894.492 114.787 893.426 115.787 892.039 116.454C890.679 117.121 889.039 117.454 887.119 117.454ZM900.145 117.014V111.094H905.705V117.014H900.145ZM919.033 117.454C918.02 117.454 916.926 117.374 915.753 117.214C914.58 117.081 913.446 116.907 912.353 116.694C911.26 116.481 910.326 116.294 909.553 116.134L910.033 112.054C910.753 112.161 911.606 112.294 912.593 112.454C913.58 112.587 914.593 112.694 915.633 112.774C916.673 112.854 917.62 112.894 918.473 112.894C919.833 112.894 920.913 112.547 921.713 111.854C922.513 111.134 922.913 110.094 922.913 108.734C922.913 107.801 922.74 107.067 922.393 106.534C922.073 106.001 921.593 105.627 920.953 105.414C920.34 105.174 919.62 105.054 918.793 105.054C918.153 105.054 917.513 105.121 916.873 105.254C916.233 105.361 915.633 105.507 915.073 105.694C914.513 105.854 914.06 106.027 913.713 106.214L910.113 105.654L910.753 90.6139H927.273V95.4539H915.073L914.553 101.334C914.926 101.174 915.393 101.014 915.953 100.854C916.513 100.667 917.113 100.507 917.753 100.374C918.42 100.241 919.06 100.174 919.673 100.174C921.513 100.174 923.073 100.427 924.353 100.934C925.633 101.441 926.606 102.281 927.273 103.454C927.966 104.627 928.313 106.227 928.313 108.254C928.313 110.361 927.926 112.094 927.153 113.454C926.406 114.787 925.34 115.787 923.953 116.454C922.593 117.121 920.953 117.454 919.033 117.454Z" fill="#333333"/>
<path d="M88.857 253.094C88.737 252.374 88.6236 251.674 88.517 250.994C88.4236 250.314 88.377 249.714 88.377 249.194C88.377 248.154 88.577 247.254 88.977 246.494C89.377 245.747 89.9436 245.167 90.677 244.754C91.4103 244.34 92.277 244.134 93.277 244.134C93.477 244.134 93.7236 244.134 94.017 244.134C94.3236 244.134 94.677 244.134 95.077 244.134C95.477 244.134 95.9236 244.134 96.417 244.134C96.9103 244.134 97.4503 244.134 98.037 244.134L96.817 245.294V241.514C96.817 240.82 96.737 240.274 96.577 239.874C96.4303 239.46 96.157 239.167 95.757 238.994C95.3703 238.82 94.8036 238.734 94.057 238.734C93.5503 238.734 93.0303 238.774 92.497 238.854C91.977 238.92 91.5636 239.014 91.257 239.134L92.937 237.574C92.8436 237.894 92.757 238.294 92.677 238.774C92.6103 239.254 92.557 239.754 92.517 240.274C92.477 240.78 92.457 241.26 92.457 241.714C92.457 242.207 92.477 242.707 92.517 243.214C92.557 243.707 92.6036 244.147 92.657 244.534C92.7236 244.92 92.777 245.187 92.817 245.334L90.277 246.034C90.2103 245.847 90.137 245.54 90.057 245.114C89.9903 244.687 89.9236 244.187 89.857 243.614C89.8036 243.027 89.777 242.407 89.777 241.754C89.777 241.1 89.8036 240.467 89.857 239.854C89.9236 239.227 90.0036 238.667 90.097 238.174C90.1903 237.667 90.277 237.26 90.357 236.954C90.7036 236.82 91.217 236.7 91.897 236.594C92.577 236.474 93.3103 236.414 94.097 236.414C94.9636 236.414 95.7036 236.5 96.317 236.674C96.9436 236.834 97.457 237.067 97.857 237.374C98.2703 237.68 98.597 238.047 98.837 238.474C99.077 238.887 99.2436 239.354 99.337 239.874C99.4303 240.394 99.477 240.947 99.477 241.534V246.454C98.8903 246.454 98.277 246.454 97.637 246.454C97.0103 246.454 96.397 246.454 95.797 246.454C95.2103 246.454 94.6903 246.454 94.237 246.454C93.797 246.454 93.477 246.454 93.277 246.454C93.0636 246.454 92.8303 246.48 92.577 246.534C92.3236 246.6 92.077 246.72 91.837 246.894C91.6103 247.08 91.4236 247.354 91.277 247.714C91.1303 248.087 91.057 248.58 91.057 249.194C91.057 249.674 91.097 250.234 91.177 250.874C91.2703 251.514 91.377 252.254 91.497 253.094H88.857ZM105.338 246.454V244.134H107.618V246.454H105.338ZM102.678 246.454V232.314H105.338V246.454H102.678ZM107.618 246.454V244.134C107.698 244.134 107.758 244.16 107.798 244.214C107.851 244.267 107.891 244.347 107.918 244.454C107.958 244.56 107.984 244.687 107.998 244.834C108.011 244.967 108.018 245.12 108.018 245.294C108.018 245.467 108.011 245.627 107.998 245.774C107.984 245.92 107.958 246.047 107.918 246.154C107.891 246.247 107.851 246.32 107.798 246.374C107.758 246.427 107.698 246.454 107.618 246.454ZM111.376 246.134C110.696 245.494 110.183 244.814 109.836 244.094C109.503 243.374 109.336 242.607 109.336 241.794C109.336 241.007 109.483 240.287 109.776 239.634C110.069 238.967 110.469 238.394 110.976 237.914C111.483 237.434 112.069 237.067 112.736 236.814C113.416 236.547 114.129 236.414 114.876 236.414C115.276 236.414 115.696 236.454 116.136 236.534C116.576 236.614 116.996 236.72 117.396 236.854L116.596 239.034C116.316 238.94 116.036 238.867 115.756 238.814C115.489 238.76 115.229 238.734 114.976 238.734C114.389 238.734 113.869 238.867 113.416 239.134C112.963 239.387 112.609 239.74 112.356 240.194C112.116 240.647 111.996 241.167 111.996 241.754C111.996 242.287 112.103 242.787 112.316 243.254C112.543 243.72 112.863 244.14 113.276 244.514L111.376 246.134ZM107.616 246.454V244.134H117.576V246.454H107.616ZM107.616 246.454C107.536 246.454 107.476 246.427 107.436 246.374C107.383 246.32 107.343 246.247 107.316 246.154C107.276 246.047 107.249 245.92 107.236 245.774C107.223 245.627 107.216 245.467 107.216 245.294C107.216 245.054 107.229 244.854 107.256 244.694C107.283 244.52 107.329 244.387 107.396 244.294C107.449 244.187 107.523 244.134 107.616 244.134V246.454ZM50.7613 296.454V291.054L58.3113 283.304C59.7447 281.837 60.978 280.554 62.0113 279.454C63.0447 278.32 63.828 277.254 64.3613 276.254C64.928 275.254 65.2113 274.187 65.2113 273.054C65.2113 271.387 64.7447 270.27 63.8113 269.704C62.878 269.104 61.378 268.804 59.3113 268.804C58.478 268.804 57.5613 268.854 56.5613 268.954C55.5613 269.054 54.5947 269.17 53.6613 269.304C52.7613 269.437 51.978 269.57 51.3113 269.704L50.9613 264.404C51.6947 264.204 52.5947 263.987 53.6613 263.754C54.7613 263.52 55.9447 263.32 57.2113 263.154C58.5113 262.954 59.778 262.854 61.0113 262.854C64.6113 262.854 67.3613 263.62 69.2613 265.154C71.1613 266.654 72.1113 268.987 72.1113 272.154C72.1113 273.887 71.8613 275.42 71.3613 276.754C70.8947 278.087 70.1447 279.37 69.1113 280.604C68.1113 281.804 66.778 283.12 65.1113 284.554L58.5113 290.854H72.5613V296.454H50.7613ZM89.4945 297.004C87.3612 297.004 85.5112 296.72 83.9445 296.154C82.3779 295.554 81.0779 294.604 80.0445 293.304C79.0445 291.97 78.2779 290.237 77.7445 288.104C77.2445 285.97 76.9945 283.354 76.9945 280.254C76.9945 277.054 77.2445 274.337 77.7445 272.104C78.2779 269.87 79.0612 268.087 80.0945 266.754C81.1279 265.387 82.4112 264.404 83.9445 263.804C85.5112 263.204 87.3445 262.904 89.4445 262.904C91.6112 262.904 93.4779 263.204 95.0445 263.804C96.6112 264.404 97.8945 265.387 98.8945 266.754C99.9279 268.087 100.678 269.87 101.145 272.104C101.645 274.304 101.895 277.02 101.895 280.254C101.895 284.354 101.445 287.637 100.545 290.104C99.6779 292.537 98.3279 294.304 96.4945 295.404C94.6612 296.47 92.3279 297.004 89.4945 297.004ZM89.4945 291.204C90.4279 291.204 91.2279 291.054 91.8945 290.754C92.5945 290.42 93.1779 289.854 93.6445 289.054C94.1112 288.254 94.4445 287.137 94.6445 285.704C94.8779 284.27 94.9945 282.454 94.9945 280.254C94.9945 277.92 94.8779 276.004 94.6445 274.504C94.4445 273.004 94.1279 271.837 93.6945 271.004C93.2612 270.137 92.6945 269.537 91.9945 269.204C91.2945 268.837 90.4612 268.654 89.4945 268.654C88.5279 268.654 87.6945 268.837 86.9945 269.204C86.2945 269.537 85.7112 270.12 85.2445 270.954C84.8112 271.787 84.4779 272.97 84.2445 274.504C84.0112 276.004 83.8945 277.937 83.8945 280.304C83.8945 282.504 84.0112 284.32 84.2445 285.754C84.5112 287.187 84.8779 288.304 85.3445 289.104C85.8112 289.87 86.3779 290.42 87.0445 290.754C87.7445 291.054 88.5612 291.204 89.4945 291.204ZM106.328 296.454V291.054L113.878 283.304C115.311 281.837 116.544 280.554 117.578 279.454C118.611 278.32 119.394 277.254 119.928 276.254C120.494 275.254 120.778 274.187 120.778 273.054C120.778 271.387 120.311 270.27 119.378 269.704C118.444 269.104 116.944 268.804 114.878 268.804C114.044 268.804 113.128 268.854 112.128 268.954C111.128 269.054 110.161 269.17 109.228 269.304C108.328 269.437 107.544 269.57 106.878 269.704L106.528 264.404C107.261 264.204 108.161 263.987 109.228 263.754C110.328 263.52 111.511 263.32 112.778 263.154C114.078 262.954 115.344 262.854 116.578 262.854C120.178 262.854 122.928 263.62 124.828 265.154C126.728 266.654 127.678 268.987 127.678 272.154C127.678 273.887 127.428 275.42 126.928 276.754C126.461 278.087 125.711 279.37 124.678 280.604C123.678 281.804 122.344 283.12 120.678 284.554L114.078 290.854H128.128V296.454H106.328ZM144.511 297.004C143.278 297.004 141.978 296.937 140.611 296.804C139.278 296.67 137.994 296.504 136.761 296.304C135.561 296.07 134.561 295.87 133.761 295.704L134.061 290.354C134.861 290.454 135.811 290.57 136.911 290.704C138.044 290.837 139.194 290.954 140.361 291.054C141.561 291.12 142.661 291.154 143.661 291.154C145.561 291.154 146.978 290.804 147.911 290.104C148.844 289.404 149.311 288.27 149.311 286.704C149.311 285.637 149.094 284.804 148.661 284.204C148.261 283.57 147.661 283.104 146.861 282.804C146.094 282.504 145.194 282.337 144.161 282.304H137.361V276.804H144.011C144.778 276.804 145.511 276.637 146.211 276.304C146.944 275.97 147.528 275.487 147.961 274.854C148.428 274.22 148.661 273.454 148.661 272.554C148.661 271.154 148.228 270.17 147.361 269.604C146.528 269.004 145.161 268.704 143.261 268.704C142.261 268.704 141.211 268.754 140.111 268.854C139.011 268.954 137.961 269.07 136.961 269.204C135.961 269.304 135.128 269.42 134.461 269.554L134.161 264.304C134.894 264.104 135.794 263.904 136.861 263.704C137.928 263.47 139.061 263.287 140.261 263.154C141.461 262.987 142.594 262.904 143.661 262.904C146.494 262.904 148.778 263.204 150.511 263.804C152.278 264.37 153.561 265.32 154.361 266.654C155.161 267.954 155.561 269.67 155.561 271.804C155.561 272.97 155.411 273.954 155.111 274.754C154.844 275.554 154.478 276.237 154.011 276.804C153.578 277.37 153.128 277.837 152.661 278.204C152.194 278.537 151.761 278.837 151.361 279.104C152.361 279.57 153.228 280.087 153.961 280.654C154.694 281.22 155.261 281.97 155.661 282.904C156.061 283.837 156.261 285.087 156.261 286.654C156.261 289.154 155.828 291.17 154.961 292.704C154.094 294.204 152.794 295.304 151.061 296.004C149.328 296.67 147.144 297.004 144.511 297.004Z" fill="#333333"/>
<path d="M103.005 206.454C85.9291 206.454 69.1208 202.209 54.0926 194.1C39.0644 185.991 26.288 174.274 16.9127 160.001C7.53749 145.729 1.85762 129.35 0.384173 112.337C-1.08928 95.3244 1.68991 78.2124 8.4717 62.5406C15.2535 46.8689 25.8251 33.129 39.2353 22.5571C52.6456 11.9854 68.4737 4.91334 85.2957 1.97743C102.118 -0.958481 119.406 0.333816 135.604 5.73804C151.803 11.1423 166.403 20.4888 178.093 32.9369L103.005 103.449L103.005 206.454Z" fill="#3A73A8"/>
<path d="M103.005 0.443603C127.257 0.443603 150.73 9.00024 169.293 24.6067C187.855 40.2132 200.316 61.8687 204.48 85.7597C208.645 109.651 204.247 134.245 192.06 155.212C179.873 176.179 160.679 192.173 137.858 200.379C115.038 208.584 90.0532 208.475 67.3051 200.07C44.5569 191.665 25.5038 175.503 13.501 154.43C1.49816 133.357 -2.68469 108.726 1.68904 84.8719C6.06277 61.0183 18.7126 39.4727 37.4109 24.0294L103.005 103.449L103.005 0.443603Z" fill="#D9A867"/>
<circle cx="103.006" cy="103.447" r="76.0069" fill="white"/>
<path d="M74.8088 118.494L72.9288 118.014L80.4488 89.4539L82.3688 89.9739L74.8088 118.494ZM71.5288 102.614C70.4088 102.614 69.4754 102.401 68.7288 101.974C68.0088 101.521 67.4754 100.841 67.1288 99.9339C66.7821 99.0006 66.6088 97.8139 66.6088 96.3739C66.6088 94.9339 66.7821 93.7606 67.1288 92.8539C67.5021 91.9472 68.0488 91.2939 68.7688 90.8939C69.5154 90.4672 70.4354 90.2539 71.5288 90.2539C72.6754 90.2539 73.6088 90.4672 74.3288 90.8939C75.0488 91.2939 75.5821 91.9472 75.9288 92.8539C76.2754 93.7606 76.4488 94.9339 76.4488 96.3739C76.4488 97.8139 76.2754 99.0006 75.9288 99.9339C75.5821 100.841 75.0488 101.521 74.3288 101.974C73.6088 102.401 72.6754 102.614 71.5288 102.614ZM71.5288 99.6939C71.9021 99.6939 72.1954 99.6006 72.4088 99.4139C72.6221 99.2006 72.7688 98.8539 72.8488 98.3739C72.9554 97.8672 73.0088 97.2006 73.0088 96.3739C73.0088 95.5472 72.9554 94.9072 72.8488 94.4539C72.7688 93.9739 72.6221 93.6406 72.4088 93.4539C72.1954 93.2406 71.9021 93.1339 71.5288 93.1339C71.1554 93.1339 70.8621 93.2406 70.6488 93.4539C70.4354 93.6406 70.2888 93.9739 70.2088 94.4539C70.1288 94.9072 70.0888 95.5472 70.0888 96.3739C70.0888 97.2006 70.1288 97.8672 70.2088 98.3739C70.2888 98.8539 70.4354 99.2006 70.6488 99.4139C70.8621 99.6006 71.1554 99.6939 71.5288 99.6939ZM83.8488 117.454C82.7021 117.454 81.7554 117.241 81.0088 116.814C80.2888 116.361 79.7554 115.681 79.4088 114.774C79.0621 113.841 78.8888 112.654 78.8888 111.214C78.8888 109.774 79.0621 108.601 79.4088 107.694C79.7821 106.787 80.3288 106.121 81.0488 105.694C81.7954 105.267 82.7288 105.054 83.8488 105.054C84.9688 105.054 85.8888 105.267 86.6088 105.694C87.3288 106.121 87.8621 106.787 88.2088 107.694C88.5821 108.601 88.7688 109.774 88.7688 111.214C88.7688 112.654 88.5821 113.841 88.2088 114.774C87.8621 115.681 87.3288 116.361 86.6088 116.814C85.8888 117.241 84.9688 117.454 83.8488 117.454ZM83.8488 114.534C84.1954 114.534 84.4754 114.441 84.6888 114.254C84.9288 114.041 85.0888 113.694 85.1688 113.214C85.2488 112.707 85.2888 112.041 85.2888 111.214C85.2888 110.361 85.2488 109.707 85.1688 109.254C85.0888 108.774 84.9421 108.454 84.7288 108.294C84.5154 108.107 84.2221 108.014 83.8488 108.014C83.4488 108.014 83.1421 108.107 82.9288 108.294C82.7154 108.454 82.5688 108.774 82.4888 109.254C82.4088 109.707 82.3688 110.361 82.3688 111.214C82.3688 112.041 82.4088 112.707 82.4888 113.214C82.5954 113.694 82.7554 114.041 82.9688 114.254C83.1821 114.441 83.4754 114.534 83.8488 114.534ZM109.384 117.454C108.051 117.454 106.771 117.334 105.544 117.094C104.317 116.881 103.237 116.507 102.304 115.974C101.371 115.414 100.637 114.667 100.104 113.734C99.5707 112.774 99.3041 111.587 99.3041 110.174C99.3041 108.841 99.4641 107.774 99.7841 106.974C100.131 106.174 100.611 105.494 101.224 104.934C101.837 104.374 102.571 103.841 103.424 103.334C102.571 102.854 101.864 102.347 101.304 101.814C100.771 101.281 100.371 100.641 100.104 99.8939C99.8641 99.1206 99.7441 98.1872 99.7441 97.0939C99.7441 95.4672 100.144 94.1472 100.944 93.1339C101.771 92.1206 102.904 91.3739 104.344 90.8939C105.811 90.4139 107.491 90.1739 109.384 90.1739C111.277 90.1739 112.957 90.4006 114.424 90.8539C115.917 91.3072 117.077 92.0539 117.904 93.0939C118.757 94.1072 119.184 95.4539 119.184 97.1339C119.184 98.2539 119.051 99.2006 118.784 99.9739C118.544 100.721 118.144 101.361 117.584 101.894C117.024 102.401 116.277 102.894 115.344 103.374C116.277 103.801 117.051 104.294 117.664 104.854C118.304 105.387 118.784 106.054 119.104 106.854C119.424 107.654 119.584 108.681 119.584 109.934C119.584 111.374 119.317 112.587 118.784 113.574C118.251 114.534 117.504 115.307 116.544 115.894C115.611 116.454 114.531 116.854 113.304 117.094C112.077 117.334 110.771 117.454 109.384 117.454ZM109.384 113.094C110.317 113.094 111.131 112.987 111.824 112.774C112.544 112.534 113.091 112.147 113.464 111.614C113.864 111.054 114.064 110.294 114.064 109.334C114.064 108.587 113.917 107.974 113.624 107.494C113.357 106.987 112.971 106.574 112.464 106.254C111.984 105.934 111.451 105.681 110.864 105.494H107.864C106.931 105.787 106.184 106.254 105.624 106.894C105.091 107.507 104.824 108.361 104.824 109.454C104.824 110.334 105.011 111.041 105.384 111.574C105.784 112.107 106.331 112.494 107.024 112.734C107.717 112.974 108.504 113.094 109.384 113.094ZM107.864 101.454H110.864C111.744 101.107 112.437 100.654 112.944 100.094C113.451 99.5339 113.704 98.8006 113.704 97.8939C113.704 96.6939 113.331 95.8272 112.584 95.2939C111.864 94.7606 110.811 94.4939 109.424 94.4939C108.064 94.4939 107.024 94.7606 106.304 95.2939C105.584 95.8272 105.224 96.6806 105.224 97.8539C105.224 98.7872 105.451 99.5339 105.904 100.094C106.357 100.654 107.011 101.107 107.864 101.454ZM130.571 117.454C129.771 117.454 128.877 117.401 127.891 117.294C126.931 117.187 125.984 117.067 125.051 116.934C124.144 116.774 123.357 116.627 122.691 116.494L123.131 112.334C123.691 112.414 124.384 112.507 125.211 112.614C126.064 112.694 126.944 112.761 127.851 112.814C128.757 112.867 129.611 112.894 130.411 112.894C132.304 112.894 133.691 112.347 134.571 111.254C135.477 110.161 135.957 108.507 136.011 106.294C135.451 106.507 134.837 106.707 134.171 106.894C133.531 107.081 132.891 107.227 132.251 107.334C131.637 107.441 131.077 107.494 130.571 107.494C127.691 107.494 125.504 106.814 124.011 105.454C122.544 104.094 121.811 101.961 121.811 99.0539C121.811 97.1339 122.197 95.5206 122.971 94.2139C123.771 92.8806 124.877 91.8806 126.291 91.2139C127.731 90.5206 129.411 90.1739 131.331 90.1739C133.651 90.1739 135.544 90.7206 137.011 91.8139C138.504 92.8806 139.597 94.4272 140.291 96.4539C140.984 98.4806 141.331 100.921 141.331 103.774C141.331 106.414 141.064 108.614 140.531 110.374C140.024 112.134 139.304 113.534 138.371 114.574C137.437 115.614 136.304 116.361 134.971 116.814C133.664 117.241 132.197 117.454 130.571 117.454ZM131.131 103.054C131.691 103.054 132.277 103.001 132.891 102.894C133.504 102.761 134.091 102.614 134.651 102.454C135.211 102.267 135.677 102.107 136.051 101.974C136.024 100.507 135.864 99.2272 135.571 98.1339C135.277 97.0406 134.784 96.1872 134.091 95.5739C133.424 94.9606 132.504 94.6539 131.331 94.6539C129.944 94.6539 128.864 95.0539 128.091 95.8539C127.344 96.6539 126.971 97.7206 126.971 99.0539C126.971 100.441 127.317 101.454 128.011 102.094C128.731 102.734 129.771 103.054 131.131 103.054Z" fill="#333333"/>
</svg>
