<svg width="388" height="286" viewBox="0 0 388 286" fill="none" xmlns="http://www.w3.org/2000/svg">
<path d="M349.79 91.6531L314.569 95.0116C306.864 90.3624 298.408 86.1215 289.293 82.3679C259.644 70.1457 223.173 62.915 183.672 62.915C144.17 62.915 107.699 70.1457 78.0498 82.3679C52.8397 92.7594 32.6215 106.799 19.7267 123.104L4 124.606V164.578C4 164.657 4 164.723 4 164.789C4 164.855 4 164.921 4 164.986V165.526H4.02634C4.15806 176.26 7.227 186.586 12.7722 196.28C24.587 216.944 47.716 234.698 78.0498 247.21L183.672 164.789L354.571 133.298V94.5374L349.79 91.6663V91.6531Z" fill="#004585"/>
<path d="M183.672 62.915C144.17 62.915 107.699 70.1457 78.0498 82.3679V247.21L183.672 164.789V62.915Z" fill="#38637F"/>
<path d="M354.571 94.5374L349.789 91.6663L314.569 95.0248C306.864 90.3756 298.408 86.1347 289.293 82.3811C259.644 70.1588 223.173 62.9282 183.671 62.9282V164.802L354.571 133.311V94.5506V94.5374Z" fill="#19567F"/>
<path d="M289.293 43.6071C259.644 31.3849 223.173 24.1543 183.672 24.1543C144.17 24.1543 107.699 31.3849 78.0498 43.6071C47.716 56.1191 24.587 73.873 12.7722 94.5375C7.09529 104.455 4 115.044 4 126.028C4 137.012 7.09529 147.601 12.7722 157.519C24.587 178.183 47.716 195.937 78.0498 208.449L183.672 126.028L354.571 94.5375C342.756 73.873 319.627 56.1191 289.293 43.6071Z" fill="#1C639C"/>
<path d="M129.458 232.315L96.8586 227.007L86.6771 226.928C86.6771 226.928 86.2292 266.031 86.6771 265.689C116.313 277.924 152.798 285.141 192.299 285.141V183.268L129.458 232.301V232.315Z" fill="#748791"/>
<path d="M86.6772 226.941C116.313 239.176 152.798 246.393 192.299 246.393V144.52L86.6772 226.941Z" fill="#B3C9DD"/>
<path d="M375.948 136.051L316.15 140.674L338.318 155.623L208.315 179.58V281.454C247.817 281.454 284.288 274.223 313.937 262.001C344.271 249.489 367.387 231.735 379.202 211.07C384.207 202.325 387.21 193.053 387.842 183.439L387.974 183.36V137.592L375.935 136.051H375.948Z" fill="#9C7845"/>
<path d="M379.228 109.328L208.329 140.819V242.693C247.83 242.693 284.301 235.462 313.95 223.24C344.284 210.728 367.4 192.974 379.215 172.31C384.892 162.405 387.987 151.816 387.987 140.819C387.987 129.821 384.892 119.246 379.215 109.328H379.228Z" fill="#D7A868"/>
<path d="M28.6453 33.1543V19.2793L24.5203 21.9293L23.5203 20.1543L28.8453 16.6543H31.0203V33.1543H28.6453ZM42.0102 33.4043C41.0268 33.4043 40.1602 33.271 39.4102 33.0043C38.6602 32.721 38.0268 32.2626 37.5102 31.6293C36.9935 30.996 36.5935 30.146 36.3102 29.0793C36.0435 28.0126 35.9102 26.696 35.9102 25.1293C35.9102 23.4626 36.0435 22.071 36.3102 20.9543C36.5768 19.821 36.9685 18.921 37.4852 18.2543C38.0185 17.5876 38.6602 17.1126 39.4102 16.8293C40.1602 16.5293 41.0185 16.3793 41.9852 16.3793C43.0018 16.3793 43.8852 16.5293 44.6352 16.8293C45.4018 17.1126 46.0352 17.5876 46.5352 18.2543C47.0518 18.921 47.4352 19.8126 47.6852 20.9293C47.9518 22.046 48.0852 23.446 48.0852 25.1293C48.0852 27.2126 47.8518 28.8626 47.3852 30.0793C46.9185 31.2793 46.2352 32.1376 45.3352 32.6543C44.4352 33.1543 43.3268 33.4043 42.0102 33.4043ZM42.0102 31.3293C42.6102 31.3293 43.1352 31.2376 43.5852 31.0543C44.0352 30.8543 44.4102 30.5293 44.7102 30.0793C45.0268 29.6126 45.2602 28.9793 45.4102 28.1793C45.5602 27.3626 45.6352 26.346 45.6352 25.1293C45.6352 23.796 45.5602 22.7043 45.4102 21.8543C45.2768 20.9876 45.0602 20.3126 44.7602 19.8293C44.4602 19.3293 44.0852 18.9793 43.6352 18.7793C43.1852 18.5626 42.6435 18.4543 42.0102 18.4543C41.4102 18.4543 40.8768 18.5626 40.4102 18.7793C39.9435 18.9793 39.5602 19.321 39.2602 19.8043C38.9768 20.2876 38.7602 20.9626 38.6102 21.8293C38.4602 22.696 38.3852 23.8043 38.3852 25.1543C38.3852 26.371 38.4602 27.3876 38.6102 28.2043C38.7768 29.0043 39.0102 29.6293 39.3102 30.0793C39.6268 30.5293 40.0102 30.8543 40.4602 31.0543C40.9102 31.2376 41.4268 31.3293 42.0102 31.3293Z" fill="#333333"/>
<path d="M13.0607 1.09364C12.4749 0.50785 11.5251 0.50785 10.9393 1.09364L1.3934 10.6396C0.807611 11.2254 0.807611 12.1751 1.3934 12.7609C1.97918 13.3467 2.92893 13.3467 3.51472 12.7609L12 4.27562L20.4853 12.7609C21.0711 13.3467 22.0208 13.3467 22.6066 12.7609C23.1924 12.1751 23.1924 11.2254 22.6066 10.6396L13.0607 1.09364ZM10.5 2.1543L10.5 35.4082L13.5 35.4082L13.5 2.1543L10.5 2.1543Z" fill="#16A851"/>
</svg>
