<svg width="1060" height="371" viewBox="0 0 1060 371" fill="none" xmlns="http://www.w3.org/2000/svg">
<path d="M435.9 362.541C434.901 362.541 434.057 362.41 433.366 362.149C432.685 361.887 432.167 361.5 431.812 360.987C431.467 360.473 431.294 359.834 431.294 359.069C431.294 358.845 431.308 358.611 431.336 358.369C431.364 358.117 431.397 357.879 431.434 357.655C431.481 357.421 431.523 357.216 431.56 357.039C431.597 356.861 431.625 356.731 431.644 356.647L433.464 356.997C433.436 357.146 433.399 357.337 433.352 357.571C433.305 357.804 433.263 358.051 433.226 358.313C433.189 358.565 433.17 358.807 433.17 359.041C433.17 359.405 433.226 359.708 433.338 359.951C433.459 360.193 433.637 360.389 433.87 360.539C434.103 360.679 434.397 360.777 434.752 360.833C435.107 360.889 435.522 360.917 435.998 360.917H439.736L439.736 355.513H441.612L441.612 362.541H435.9ZM435.648 353.077L435.648 351.677H437.272L437.272 353.077H435.648ZM434.29 355.219L434.29 353.623H436.096L436.096 355.219H434.29ZM436.838 355.219L436.838 353.623H438.644L438.644 355.219H436.838ZM445.586 362.541L445.586 360.917H447.182L447.182 362.541H445.586ZM443.724 362.541L443.724 352.643H445.586L445.586 362.541H443.724ZM447.182 362.541L447.182 360.917C447.238 360.917 447.28 360.935 447.308 360.973C447.346 361.01 447.374 361.066 447.392 361.141C447.42 361.215 447.439 361.304 447.448 361.407C447.458 361.5 447.462 361.607 447.462 361.729C447.462 361.85 447.458 361.962 447.448 362.065C447.439 362.167 447.42 362.256 447.392 362.331C447.374 362.396 447.346 362.447 447.308 362.485C447.28 362.522 447.238 362.541 447.182 362.541ZM447.181 362.541L447.181 360.917H450.681L450.681 362.541H447.181ZM450.681 362.541L450.681 360.917C450.737 360.917 450.779 360.935 450.807 360.973C450.844 361.01 450.872 361.066 450.891 361.141C450.919 361.215 450.938 361.304 450.947 361.407C450.956 361.5 450.961 361.607 450.961 361.729C450.961 361.85 450.956 361.962 450.947 362.065C450.938 362.167 450.919 362.256 450.891 362.331C450.872 362.396 450.844 362.447 450.807 362.485C450.779 362.522 450.737 362.541 450.681 362.541ZM447.181 362.541C447.125 362.541 447.083 362.522 447.055 362.485C447.018 362.447 446.99 362.396 446.971 362.331C446.943 362.256 446.924 362.167 446.915 362.065C446.906 361.962 446.901 361.85 446.901 361.729C446.901 361.561 446.91 361.421 446.929 361.309C446.948 361.187 446.98 361.094 447.027 361.029C447.064 360.954 447.116 360.917 447.181 360.917L447.181 362.541ZM450.681 362.541L450.681 360.917H454.181L454.181 362.541H450.681ZM454.181 362.541L454.181 360.917C454.237 360.917 454.279 360.935 454.307 360.973C454.344 361.01 454.372 361.066 454.391 361.141C454.419 361.215 454.438 361.304 454.447 361.407C454.456 361.5 454.461 361.607 454.461 361.729C454.461 361.85 454.456 361.962 454.447 362.065C454.438 362.167 454.419 362.256 454.391 362.331C454.372 362.396 454.344 362.447 454.307 362.485C454.279 362.522 454.237 362.541 454.181 362.541ZM450.681 362.541C450.625 362.541 450.583 362.522 450.555 362.485C450.518 362.447 450.49 362.396 450.471 362.331C450.443 362.256 450.424 362.167 450.415 362.065C450.406 361.962 450.401 361.85 450.401 361.729C450.401 361.561 450.41 361.421 450.429 361.309C450.448 361.187 450.48 361.094 450.527 361.029C450.564 360.954 450.616 360.917 450.681 360.917L450.681 362.541ZM454.181 362.541L454.181 360.917H456.743L455.651 361.827L455.651 355.513H457.527L457.527 362.541H454.181ZM454.181 362.541C454.125 362.541 454.083 362.522 454.055 362.485C454.018 362.447 453.99 362.396 453.971 362.331C453.943 362.256 453.924 362.167 453.915 362.065C453.906 361.962 453.901 361.85 453.901 361.729C453.901 361.561 453.91 361.421 453.929 361.309C453.948 361.187 453.98 361.094 454.027 361.029C454.064 360.954 454.116 360.917 454.181 360.917L454.181 362.541ZM455.651 354.225L455.651 352.629H457.527L457.527 354.225H455.651ZM459.102 362.541L459.102 360.917H466.214L465.318 361.841L465.318 352.643H467.194L467.194 362.541H459.102ZM461.048 360.917L461.048 354.603H462.91L462.91 360.917H461.048ZM461.146 366.727C460.969 366.512 460.834 366.307 460.74 366.111C460.647 365.915 460.6 365.705 460.6 365.481C460.6 365.163 460.684 364.874 460.852 364.613C461.02 364.361 461.24 364.16 461.51 364.011C461.781 363.871 462.08 363.801 462.406 363.801C462.584 363.801 462.766 363.824 462.952 363.871C463.139 363.917 463.298 363.987 463.428 364.081L462.952 364.935C462.868 364.888 462.784 364.855 462.7 364.837C462.626 364.827 462.546 364.823 462.462 364.823C462.238 364.823 462.066 364.879 461.944 364.991C461.823 365.112 461.762 365.271 461.762 365.467C461.762 365.579 461.786 365.686 461.832 365.789C461.879 365.891 461.949 366.003 462.042 366.125L461.146 366.727ZM460.292 366.839L460.292 365.817H463.68L463.68 366.839H460.292ZM469.482 362.541L469.482 352.643H471.344L471.344 362.541H469.482Z" fill="#333333"/>
<rect x="482.611" y="347.541" width="20" height="20" fill="#C6822A"/>
<path d="M597.151 366.013C597.029 366.013 596.899 366.008 596.759 365.999C596.619 365.989 596.474 365.975 596.325 365.957L596.395 364.361C596.544 364.37 596.684 364.379 596.815 364.389C596.955 364.398 597.057 364.403 597.123 364.403C597.487 364.403 597.776 364.258 597.991 363.969C598.215 363.679 598.327 363.273 598.327 362.751L598.327 355.513H600.203L600.203 362.751C600.203 363.385 600.072 363.95 599.811 364.445C599.559 364.939 599.204 365.322 598.747 365.593C598.289 365.873 597.757 366.013 597.151 366.013ZM608.34 362.541L608.34 360.917H609.81L609.81 362.541H608.34ZM604.56 366.013C604.215 366.013 603.851 365.985 603.468 365.929C603.095 365.882 602.693 365.817 602.264 365.733L602.544 364.235C603.011 364.291 603.407 364.333 603.734 364.361C604.061 364.389 604.336 364.403 604.56 364.403C605.232 364.403 605.717 364.281 606.016 364.039C606.315 363.796 606.464 363.432 606.464 362.947L606.464 356.801L606.926 357.137H605.176C604.793 357.137 604.485 357.183 604.252 357.277C604.019 357.361 603.846 357.543 603.734 357.823C603.631 358.093 603.58 358.509 603.58 359.069C603.58 359.601 603.627 360.002 603.72 360.273C603.823 360.534 603.991 360.707 604.224 360.791C604.457 360.875 604.775 360.917 605.176 360.917H606.464L606.464 362.541H605.176C604.383 362.541 603.729 362.415 603.216 362.163C602.703 361.911 602.32 361.528 602.068 361.015C601.825 360.501 601.704 359.853 601.704 359.069C601.704 358.285 601.825 357.631 602.068 357.109C602.32 356.577 602.703 356.18 603.216 355.919C603.729 355.648 604.383 355.513 605.176 355.513H608.34L608.34 362.947C608.34 363.581 608.181 364.127 607.864 364.585C607.556 365.051 607.117 365.406 606.548 365.649C605.988 365.891 605.325 366.013 604.56 366.013ZM609.81 362.541L609.81 360.917C609.866 360.917 609.908 360.935 609.936 360.973C609.973 361.01 610.001 361.066 610.02 361.141C610.048 361.215 610.067 361.304 610.076 361.407C610.085 361.5 610.09 361.607 610.09 361.729C610.09 361.85 610.085 361.962 610.076 362.065C610.067 362.167 610.048 362.256 610.02 362.331C610.001 362.396 609.973 362.447 609.936 362.485C609.908 362.522 609.866 362.541 609.81 362.541ZM609.812 362.541L609.812 360.917H613.312L613.312 362.541H609.812ZM613.312 362.541L613.312 360.917C613.368 360.917 613.41 360.935 613.438 360.973C613.475 361.01 613.503 361.066 613.522 361.141C613.55 361.215 613.569 361.304 613.578 361.407C613.587 361.5 613.592 361.607 613.592 361.729C613.592 361.85 613.587 361.962 613.578 362.065C613.569 362.167 613.55 362.256 613.522 362.331C613.503 362.396 613.475 362.447 613.438 362.485C613.41 362.522 613.368 362.541 613.312 362.541ZM609.812 362.541C609.756 362.541 609.714 362.522 609.686 362.485C609.649 362.447 609.621 362.396 609.602 362.331C609.574 362.256 609.555 362.167 609.546 362.065C609.537 361.962 609.532 361.85 609.532 361.729C609.532 361.561 609.541 361.421 609.56 361.309C609.579 361.187 609.611 361.094 609.658 361.029C609.695 360.954 609.747 360.917 609.812 360.917L609.812 362.541ZM613.312 362.541L613.312 360.917H616.812L616.812 362.541H613.312ZM616.812 362.541L616.812 360.917C616.868 360.917 616.91 360.935 616.938 360.973C616.975 361.01 617.003 361.066 617.022 361.141C617.05 361.215 617.069 361.304 617.078 361.407C617.087 361.5 617.092 361.607 617.092 361.729C617.092 361.85 617.087 361.962 617.078 362.065C617.069 362.167 617.05 362.256 617.022 362.331C617.003 362.396 616.975 362.447 616.938 362.485C616.91 362.522 616.868 362.541 616.812 362.541ZM613.312 362.541C613.256 362.541 613.214 362.522 613.186 362.485C613.149 362.447 613.121 362.396 613.102 362.331C613.074 362.256 613.055 362.167 613.046 362.065C613.037 361.962 613.032 361.85 613.032 361.729C613.032 361.561 613.041 361.421 613.06 361.309C613.079 361.187 613.111 361.094 613.158 361.029C613.195 360.954 613.247 360.917 613.312 360.917L613.312 362.541ZM616.812 362.541L616.812 360.917H623.84L623.224 361.421L623.224 359.517C623.224 359.031 623.173 358.644 623.07 358.355C622.967 358.065 622.809 357.855 622.594 357.725C622.389 357.594 622.127 357.529 621.81 357.529H618.744L617.582 355.849L618.296 354.505C618.38 354.346 618.473 354.173 618.576 353.987C618.679 353.8 618.814 353.576 618.982 353.315C619.15 353.053 619.365 352.727 619.626 352.335L621.194 353.217C620.951 353.581 620.755 353.884 620.606 354.127C620.457 354.36 620.331 354.565 620.228 354.743C620.125 354.92 620.032 355.097 619.948 355.275L619.388 356.325L619.108 355.905H621.81C622.407 355.905 622.916 356.003 623.336 356.199C623.756 356.395 624.092 356.665 624.344 357.011C624.605 357.356 624.797 357.743 624.918 358.173C625.039 358.602 625.1 359.05 625.1 359.517L625.1 362.541H616.812ZM616.812 362.541C616.756 362.541 616.714 362.522 616.686 362.485C616.649 362.447 616.621 362.396 616.602 362.331C616.574 362.256 616.555 362.167 616.546 362.065C616.537 361.962 616.532 361.85 616.532 361.729C616.532 361.561 616.541 361.421 616.56 361.309C616.579 361.187 616.611 361.094 616.658 361.029C616.695 360.954 616.747 360.917 616.812 360.917L616.812 362.541ZM632.312 362.541L632.312 360.917H633.782L633.782 362.541H632.312ZM626.628 362.541L626.628 360.917H631.71L630.436 362.023L630.436 359.671C630.436 359.008 630.366 358.495 630.226 358.131C630.095 357.767 629.871 357.51 629.554 357.361C629.246 357.211 628.821 357.137 628.28 357.137H627.146L627.146 355.513H628.28C629.139 355.513 629.867 355.653 630.464 355.933C631.071 356.213 631.528 356.661 631.836 357.277C632.153 357.883 632.312 358.681 632.312 359.671L632.312 362.541H626.628ZM633.782 362.541L633.782 360.917C633.838 360.917 633.885 360.935 633.922 360.973C633.959 361.01 633.987 361.066 634.006 361.141C634.025 361.215 634.039 361.304 634.048 361.407C634.057 361.5 634.062 361.607 634.062 361.729C634.062 361.85 634.057 361.962 634.048 362.065C634.039 362.167 634.025 362.256 634.006 362.331C633.987 362.396 633.959 362.447 633.922 362.485C633.885 362.522 633.838 362.541 633.782 362.541ZM627.356 354.225L627.356 352.629H629.232L629.232 354.225H627.356ZM635.361 362.541L635.361 352.643H637.237L637.237 362.541H635.361ZM633.779 362.541L633.779 360.917H635.361L635.361 362.541H633.779ZM633.779 362.541C633.723 362.541 633.681 362.522 633.653 362.485C633.615 362.447 633.587 362.396 633.569 362.331C633.541 362.256 633.522 362.167 633.513 362.065C633.503 361.962 633.499 361.85 633.499 361.729C633.499 361.561 633.508 361.421 633.527 361.309C633.545 361.187 633.578 361.094 633.625 361.029C633.662 360.954 633.713 360.917 633.779 360.917L633.779 362.541ZM639.482 362.541L639.482 352.643H641.344L641.344 362.541H639.482Z" fill="#333333"/>
<rect x="652.611" y="348.005" width="20" height="20" fill="#005491"/>
<path d="M435.9 362.541C434.901 362.541 434.057 362.41 433.366 362.149C432.685 361.887 432.167 361.5 431.812 360.987C431.467 360.473 431.294 359.834 431.294 359.069C431.294 358.845 431.308 358.611 431.336 358.369C431.364 358.117 431.397 357.879 431.434 357.655C431.481 357.421 431.523 357.216 431.56 357.039C431.597 356.861 431.625 356.731 431.644 356.647L433.464 356.997C433.436 357.146 433.399 357.337 433.352 357.571C433.305 357.804 433.263 358.051 433.226 358.313C433.189 358.565 433.17 358.807 433.17 359.041C433.17 359.405 433.226 359.708 433.338 359.951C433.459 360.193 433.637 360.389 433.87 360.539C434.103 360.679 434.397 360.777 434.752 360.833C435.107 360.889 435.522 360.917 435.998 360.917H439.736L439.736 355.513H441.612L441.612 362.541H435.9ZM435.648 353.077L435.648 351.677H437.272L437.272 353.077H435.648ZM434.29 355.219L434.29 353.623H436.096L436.096 355.219H434.29ZM436.838 355.219L436.838 353.623H438.644L438.644 355.219H436.838ZM445.586 362.541L445.586 360.917H447.182L447.182 362.541H445.586ZM443.724 362.541L443.724 352.643H445.586L445.586 362.541H443.724ZM447.182 362.541L447.182 360.917C447.238 360.917 447.28 360.935 447.308 360.973C447.346 361.01 447.374 361.066 447.392 361.141C447.42 361.215 447.439 361.304 447.448 361.407C447.458 361.5 447.462 361.607 447.462 361.729C447.462 361.85 447.458 361.962 447.448 362.065C447.439 362.167 447.42 362.256 447.392 362.331C447.374 362.396 447.346 362.447 447.308 362.485C447.28 362.522 447.238 362.541 447.182 362.541ZM447.181 362.541L447.181 360.917H450.681L450.681 362.541H447.181ZM450.681 362.541L450.681 360.917C450.737 360.917 450.779 360.935 450.807 360.973C450.844 361.01 450.872 361.066 450.891 361.141C450.919 361.215 450.938 361.304 450.947 361.407C450.956 361.5 450.961 361.607 450.961 361.729C450.961 361.85 450.956 361.962 450.947 362.065C450.938 362.167 450.919 362.256 450.891 362.331C450.872 362.396 450.844 362.447 450.807 362.485C450.779 362.522 450.737 362.541 450.681 362.541ZM447.181 362.541C447.125 362.541 447.083 362.522 447.055 362.485C447.018 362.447 446.99 362.396 446.971 362.331C446.943 362.256 446.924 362.167 446.915 362.065C446.906 361.962 446.901 361.85 446.901 361.729C446.901 361.561 446.91 361.421 446.929 361.309C446.948 361.187 446.98 361.094 447.027 361.029C447.064 360.954 447.116 360.917 447.181 360.917L447.181 362.541ZM450.681 362.541L450.681 360.917H454.181L454.181 362.541H450.681ZM454.181 362.541L454.181 360.917C454.237 360.917 454.279 360.935 454.307 360.973C454.344 361.01 454.372 361.066 454.391 361.141C454.419 361.215 454.438 361.304 454.447 361.407C454.456 361.5 454.461 361.607 454.461 361.729C454.461 361.85 454.456 361.962 454.447 362.065C454.438 362.167 454.419 362.256 454.391 362.331C454.372 362.396 454.344 362.447 454.307 362.485C454.279 362.522 454.237 362.541 454.181 362.541ZM450.681 362.541C450.625 362.541 450.583 362.522 450.555 362.485C450.518 362.447 450.49 362.396 450.471 362.331C450.443 362.256 450.424 362.167 450.415 362.065C450.406 361.962 450.401 361.85 450.401 361.729C450.401 361.561 450.41 361.421 450.429 361.309C450.448 361.187 450.48 361.094 450.527 361.029C450.564 360.954 450.616 360.917 450.681 360.917L450.681 362.541ZM454.181 362.541L454.181 360.917H456.743L455.651 361.827L455.651 355.513H457.527L457.527 362.541H454.181ZM454.181 362.541C454.125 362.541 454.083 362.522 454.055 362.485C454.018 362.447 453.99 362.396 453.971 362.331C453.943 362.256 453.924 362.167 453.915 362.065C453.906 361.962 453.901 361.85 453.901 361.729C453.901 361.561 453.91 361.421 453.929 361.309C453.948 361.187 453.98 361.094 454.027 361.029C454.064 360.954 454.116 360.917 454.181 360.917L454.181 362.541ZM455.651 354.225L455.651 352.629H457.527L457.527 354.225H455.651ZM459.102 362.541L459.102 360.917H466.214L465.318 361.841L465.318 352.643H467.194L467.194 362.541H459.102ZM461.048 360.917L461.048 354.603H462.91L462.91 360.917H461.048ZM461.146 366.727C460.969 366.512 460.834 366.307 460.74 366.111C460.647 365.915 460.6 365.705 460.6 365.481C460.6 365.163 460.684 364.874 460.852 364.613C461.02 364.361 461.24 364.16 461.51 364.011C461.781 363.871 462.08 363.801 462.406 363.801C462.584 363.801 462.766 363.824 462.952 363.871C463.139 363.917 463.298 363.987 463.428 364.081L462.952 364.935C462.868 364.888 462.784 364.855 462.7 364.837C462.626 364.827 462.546 364.823 462.462 364.823C462.238 364.823 462.066 364.879 461.944 364.991C461.823 365.112 461.762 365.271 461.762 365.467C461.762 365.579 461.786 365.686 461.832 365.789C461.879 365.891 461.949 366.003 462.042 366.125L461.146 366.727ZM460.292 366.839L460.292 365.817H463.68L463.68 366.839H460.292ZM469.482 362.541L469.482 352.643H471.344L471.344 362.541H469.482Z" fill="#333333"/>
<rect x="482.611" y="347.541" width="20" height="20" fill="#C6822A"/>
<path d="M597.151 366.013C597.029 366.013 596.899 366.008 596.759 365.999C596.619 365.989 596.474 365.975 596.325 365.957L596.395 364.361C596.544 364.37 596.684 364.379 596.815 364.389C596.955 364.398 597.057 364.403 597.123 364.403C597.487 364.403 597.776 364.258 597.991 363.969C598.215 363.679 598.327 363.273 598.327 362.751L598.327 355.513H600.203L600.203 362.751C600.203 363.385 600.072 363.95 599.811 364.445C599.559 364.939 599.204 365.322 598.747 365.593C598.289 365.873 597.757 366.013 597.151 366.013ZM608.34 362.541L608.34 360.917H609.81L609.81 362.541H608.34ZM604.56 366.013C604.215 366.013 603.851 365.985 603.468 365.929C603.095 365.882 602.693 365.817 602.264 365.733L602.544 364.235C603.011 364.291 603.407 364.333 603.734 364.361C604.061 364.389 604.336 364.403 604.56 364.403C605.232 364.403 605.717 364.281 606.016 364.039C606.315 363.796 606.464 363.432 606.464 362.947L606.464 356.801L606.926 357.137H605.176C604.793 357.137 604.485 357.183 604.252 357.277C604.019 357.361 603.846 357.543 603.734 357.823C603.631 358.093 603.58 358.509 603.58 359.069C603.58 359.601 603.627 360.002 603.72 360.273C603.823 360.534 603.991 360.707 604.224 360.791C604.457 360.875 604.775 360.917 605.176 360.917H606.464L606.464 362.541H605.176C604.383 362.541 603.729 362.415 603.216 362.163C602.703 361.911 602.32 361.528 602.068 361.015C601.825 360.501 601.704 359.853 601.704 359.069C601.704 358.285 601.825 357.631 602.068 357.109C602.32 356.577 602.703 356.18 603.216 355.919C603.729 355.648 604.383 355.513 605.176 355.513H608.34L608.34 362.947C608.34 363.581 608.181 364.127 607.864 364.585C607.556 365.051 607.117 365.406 606.548 365.649C605.988 365.891 605.325 366.013 604.56 366.013ZM609.81 362.541L609.81 360.917C609.866 360.917 609.908 360.935 609.936 360.973C609.973 361.01 610.001 361.066 610.02 361.141C610.048 361.215 610.067 361.304 610.076 361.407C610.085 361.5 610.09 361.607 610.09 361.729C610.09 361.85 610.085 361.962 610.076 362.065C610.067 362.167 610.048 362.256 610.02 362.331C610.001 362.396 609.973 362.447 609.936 362.485C609.908 362.522 609.866 362.541 609.81 362.541ZM609.812 362.541L609.812 360.917H613.312L613.312 362.541H609.812ZM613.312 362.541L613.312 360.917C613.368 360.917 613.41 360.935 613.438 360.973C613.475 361.01 613.503 361.066 613.522 361.141C613.55 361.215 613.569 361.304 613.578 361.407C613.587 361.5 613.592 361.607 613.592 361.729C613.592 361.85 613.587 361.962 613.578 362.065C613.569 362.167 613.55 362.256 613.522 362.331C613.503 362.396 613.475 362.447 613.438 362.485C613.41 362.522 613.368 362.541 613.312 362.541ZM609.812 362.541C609.756 362.541 609.714 362.522 609.686 362.485C609.649 362.447 609.621 362.396 609.602 362.331C609.574 362.256 609.555 362.167 609.546 362.065C609.537 361.962 609.532 361.85 609.532 361.729C609.532 361.561 609.541 361.421 609.56 361.309C609.579 361.187 609.611 361.094 609.658 361.029C609.695 360.954 609.747 360.917 609.812 360.917L609.812 362.541ZM613.312 362.541L613.312 360.917H616.812L616.812 362.541H613.312ZM616.812 362.541L616.812 360.917C616.868 360.917 616.91 360.935 616.938 360.973C616.975 361.01 617.003 361.066 617.022 361.141C617.05 361.215 617.069 361.304 617.078 361.407C617.087 361.5 617.092 361.607 617.092 361.729C617.092 361.85 617.087 361.962 617.078 362.065C617.069 362.167 617.05 362.256 617.022 362.331C617.003 362.396 616.975 362.447 616.938 362.485C616.91 362.522 616.868 362.541 616.812 362.541ZM613.312 362.541C613.256 362.541 613.214 362.522 613.186 362.485C613.149 362.447 613.121 362.396 613.102 362.331C613.074 362.256 613.055 362.167 613.046 362.065C613.037 361.962 613.032 361.85 613.032 361.729C613.032 361.561 613.041 361.421 613.06 361.309C613.079 361.187 613.111 361.094 613.158 361.029C613.195 360.954 613.247 360.917 613.312 360.917L613.312 362.541ZM616.812 362.541L616.812 360.917H623.84L623.224 361.421L623.224 359.517C623.224 359.031 623.173 358.644 623.07 358.355C622.967 358.065 622.809 357.855 622.594 357.725C622.389 357.594 622.127 357.529 621.81 357.529H618.744L617.582 355.849L618.296 354.505C618.38 354.346 618.473 354.173 618.576 353.987C618.679 353.8 618.814 353.576 618.982 353.315C619.15 353.053 619.365 352.727 619.626 352.335L621.194 353.217C620.951 353.581 620.755 353.884 620.606 354.127C620.457 354.36 620.331 354.565 620.228 354.743C620.125 354.92 620.032 355.097 619.948 355.275L619.388 356.325L619.108 355.905H621.81C622.407 355.905 622.916 356.003 623.336 356.199C623.756 356.395 624.092 356.665 624.344 357.011C624.605 357.356 624.797 357.743 624.918 358.173C625.039 358.602 625.1 359.05 625.1 359.517L625.1 362.541H616.812ZM616.812 362.541C616.756 362.541 616.714 362.522 616.686 362.485C616.649 362.447 616.621 362.396 616.602 362.331C616.574 362.256 616.555 362.167 616.546 362.065C616.537 361.962 616.532 361.85 616.532 361.729C616.532 361.561 616.541 361.421 616.56 361.309C616.579 361.187 616.611 361.094 616.658 361.029C616.695 360.954 616.747 360.917 616.812 360.917L616.812 362.541ZM632.312 362.541L632.312 360.917H633.782L633.782 362.541H632.312ZM626.628 362.541L626.628 360.917H631.71L630.436 362.023L630.436 359.671C630.436 359.008 630.366 358.495 630.226 358.131C630.095 357.767 629.871 357.51 629.554 357.361C629.246 357.211 628.821 357.137 628.28 357.137H627.146L627.146 355.513H628.28C629.139 355.513 629.867 355.653 630.464 355.933C631.071 356.213 631.528 356.661 631.836 357.277C632.153 357.883 632.312 358.681 632.312 359.671L632.312 362.541H626.628ZM633.782 362.541L633.782 360.917C633.838 360.917 633.885 360.935 633.922 360.973C633.959 361.01 633.987 361.066 634.006 361.141C634.025 361.215 634.039 361.304 634.048 361.407C634.057 361.5 634.062 361.607 634.062 361.729C634.062 361.85 634.057 361.962 634.048 362.065C634.039 362.167 634.025 362.256 634.006 362.331C633.987 362.396 633.959 362.447 633.922 362.485C633.885 362.522 633.838 362.541 633.782 362.541ZM627.356 354.225L627.356 352.629H629.232L629.232 354.225H627.356ZM635.361 362.541L635.361 352.643H637.237L637.237 362.541H635.361ZM633.779 362.541L633.779 360.917H635.361L635.361 362.541H633.779ZM633.779 362.541C633.723 362.541 633.681 362.522 633.653 362.485C633.615 362.447 633.587 362.396 633.569 362.331C633.541 362.256 633.522 362.167 633.513 362.065C633.503 361.962 633.499 361.85 633.499 361.729C633.499 361.561 633.508 361.421 633.527 361.309C633.545 361.187 633.578 361.094 633.625 361.029C633.662 360.954 633.713 360.917 633.779 360.917L633.779 362.541ZM639.482 362.541L639.482 352.643H641.344L641.344 362.541H639.482Z" fill="#333333"/>
<rect x="652.611" y="348.005" width="20" height="20" fill="#005491"/>
<path d="M917.381 281.541L917.381 279.381L920.401 276.281C920.974 275.694 921.467 275.181 921.881 274.741C922.294 274.287 922.607 273.861 922.821 273.461C923.047 273.061 923.161 272.634 923.161 272.181C923.161 271.514 922.974 271.067 922.601 270.841C922.227 270.601 921.627 270.481 920.801 270.481C920.467 270.481 920.101 270.501 919.701 270.541C919.301 270.581 918.914 270.627 918.541 270.681C918.181 270.734 917.867 270.787 917.601 270.841L917.461 268.721C917.754 268.641 918.114 268.554 918.541 268.461C918.981 268.367 919.454 268.287 919.961 268.221C920.481 268.141 920.987 268.101 921.481 268.101C922.921 268.101 924.021 268.407 924.781 269.021C925.541 269.621 925.921 270.554 925.921 271.821C925.921 272.514 925.821 273.127 925.621 273.661C925.434 274.194 925.134 274.707 924.721 275.201C924.321 275.681 923.787 276.207 923.121 276.781L920.481 279.301H926.101L926.101 281.541H917.381ZM932.874 281.761C932.021 281.761 931.281 281.647 930.654 281.421C930.027 281.181 929.507 280.801 929.094 280.281C928.694 279.747 928.387 279.054 928.174 278.201C927.974 277.347 927.874 276.301 927.874 275.061C927.874 273.781 927.974 272.694 928.174 271.801C928.387 270.907 928.701 270.194 929.114 269.661C929.527 269.114 930.041 268.721 930.654 268.481C931.281 268.241 932.014 268.121 932.854 268.121C933.721 268.121 934.467 268.241 935.094 268.481C935.721 268.721 936.234 269.114 936.634 269.661C937.047 270.194 937.347 270.907 937.534 271.801C937.734 272.681 937.834 273.767 937.834 275.061C937.834 276.701 937.654 278.014 937.294 279.001C936.947 279.974 936.407 280.681 935.674 281.121C934.941 281.547 934.007 281.761 932.874 281.761ZM932.874 279.441C933.247 279.441 933.567 279.381 933.834 279.261C934.114 279.127 934.347 278.901 934.534 278.581C934.721 278.261 934.854 277.814 934.934 277.241C935.027 276.667 935.074 275.941 935.074 275.061C935.074 274.127 935.027 273.361 934.934 272.761C934.854 272.161 934.727 271.694 934.554 271.361C934.381 271.014 934.154 270.774 933.874 270.641C933.594 270.494 933.261 270.421 932.874 270.421C932.487 270.421 932.154 270.494 931.874 270.641C931.594 270.774 931.361 271.007 931.174 271.341C931.001 271.674 930.867 272.147 930.774 272.761C930.681 273.361 930.634 274.134 930.634 275.081C930.634 275.961 930.681 276.687 930.774 277.261C930.881 277.834 931.027 278.281 931.214 278.601C931.401 278.907 931.627 279.127 931.894 279.261C932.174 279.381 932.501 279.441 932.874 279.441ZM939.607 281.541L939.607 279.381L942.627 276.281C943.201 275.694 943.694 275.181 944.107 274.741C944.521 274.287 944.834 273.861 945.047 273.461C945.274 273.061 945.387 272.634 945.387 272.181C945.387 271.514 945.201 271.067 944.827 270.841C944.454 270.601 943.854 270.481 943.027 270.481C942.694 270.481 942.327 270.501 941.927 270.541C941.527 270.581 941.141 270.627 940.767 270.681C940.407 270.734 940.094 270.787 939.827 270.841L939.687 268.721C939.981 268.641 940.341 268.554 940.767 268.461C941.207 268.367 941.681 268.287 942.187 268.221C942.707 268.141 943.214 268.101 943.707 268.101C945.147 268.101 946.247 268.407 947.007 269.021C947.767 269.621 948.147 270.554 948.147 271.821C948.147 272.514 948.047 273.127 947.847 273.661C947.661 274.194 947.361 274.707 946.947 275.201C946.547 275.681 946.014 276.207 945.347 276.781L942.707 279.301H948.327L948.327 281.541H939.607ZM955.101 281.761C954.247 281.761 953.507 281.647 952.881 281.421C952.254 281.181 951.734 280.801 951.321 280.281C950.921 279.747 950.614 279.054 950.401 278.201C950.201 277.347 950.101 276.301 950.101 275.061C950.101 273.781 950.201 272.694 950.401 271.801C950.614 270.907 950.927 270.194 951.341 269.661C951.754 269.114 952.267 268.721 952.881 268.481C953.507 268.241 954.241 268.121 955.081 268.121C955.947 268.121 956.694 268.241 957.321 268.481C957.947 268.721 958.461 269.114 958.861 269.661C959.274 270.194 959.574 270.907 959.761 271.801C959.961 272.681 960.061 273.767 960.061 275.061C960.061 276.701 959.881 278.014 959.521 279.001C959.174 279.974 958.634 280.681 957.901 281.121C957.167 281.547 956.234 281.761 955.101 281.761ZM955.101 279.441C955.474 279.441 955.794 279.381 956.061 279.261C956.341 279.127 956.574 278.901 956.761 278.581C956.947 278.261 957.081 277.814 957.161 277.241C957.254 276.667 957.301 275.941 957.301 275.061C957.301 274.127 957.254 273.361 957.161 272.761C957.081 272.161 956.954 271.694 956.781 271.361C956.607 271.014 956.381 270.774 956.101 270.641C955.821 270.494 955.487 270.421 955.101 270.421C954.714 270.421 954.381 270.494 954.101 270.641C953.821 270.774 953.587 271.007 953.401 271.341C953.227 271.674 953.094 272.147 953.001 272.761C952.907 273.361 952.861 274.134 952.861 275.081C952.861 275.961 952.907 276.687 953.001 277.261C953.107 277.834 953.254 278.281 953.441 278.601C953.627 278.907 953.854 279.127 954.121 279.261C954.401 279.381 954.727 279.441 955.101 279.441ZM966.289 288.181C966.169 287.461 966.056 286.761 965.949 286.081C965.856 285.401 965.809 284.801 965.809 284.281C965.809 283.241 966.009 282.341 966.409 281.581C966.809 280.834 967.376 280.254 968.109 279.841C968.843 279.427 969.709 279.221 970.709 279.221C970.909 279.221 971.156 279.221 971.449 279.221C971.756 279.221 972.109 279.221 972.509 279.221C972.909 279.221 973.356 279.221 973.849 279.221C974.343 279.221 974.883 279.221 975.469 279.221L974.249 280.381L974.249 276.601C974.249 275.907 974.169 275.361 974.009 274.961C973.863 274.547 973.589 274.254 973.189 274.081C972.803 273.907 972.236 273.821 971.489 273.821C970.983 273.821 970.463 273.861 969.929 273.941C969.409 274.007 968.996 274.101 968.689 274.221L970.369 272.661C970.276 272.981 970.189 273.381 970.109 273.861C970.043 274.341 969.989 274.841 969.949 275.361C969.909 275.867 969.889 276.347 969.889 276.801C969.889 277.294 969.909 277.794 969.949 278.301C969.989 278.794 970.036 279.234 970.089 279.621C970.156 280.007 970.209 280.274 970.249 280.421L967.709 281.121C967.643 280.934 967.569 280.627 967.489 280.201C967.423 279.774 967.356 279.274 967.289 278.701C967.236 278.114 967.209 277.494 967.209 276.841C967.209 276.187 967.236 275.554 967.289 274.941C967.356 274.314 967.436 273.754 967.529 273.261C967.623 272.754 967.709 272.347 967.789 272.041C968.136 271.907 968.649 271.787 969.329 271.681C970.009 271.561 970.743 271.501 971.529 271.501C972.396 271.501 973.136 271.587 973.749 271.761C974.376 271.921 974.889 272.154 975.289 272.461C975.703 272.767 976.029 273.134 976.269 273.561C976.509 273.974 976.676 274.441 976.769 274.961C976.863 275.481 976.909 276.034 976.909 276.621L976.909 281.541C976.323 281.541 975.709 281.541 975.069 281.541C974.443 281.541 973.829 281.541 973.229 281.541C972.643 281.541 972.123 281.541 971.669 281.541C971.229 281.541 970.909 281.541 970.709 281.541C970.496 281.541 970.263 281.567 970.009 281.621C969.756 281.687 969.509 281.807 969.269 281.981C969.043 282.167 968.856 282.441 968.709 282.801C968.563 283.174 968.489 283.667 968.489 284.281C968.489 284.761 968.529 285.321 968.609 285.961C968.703 286.601 968.809 287.341 968.929 288.181H966.289ZM982.77 281.541L982.77 279.221H985.05L985.05 281.541H982.77ZM980.11 281.541L980.11 267.401H982.77L982.77 281.541H980.11ZM985.05 281.541L985.05 279.221C985.13 279.221 985.19 279.247 985.23 279.301C985.283 279.354 985.323 279.434 985.35 279.541C985.39 279.647 985.417 279.774 985.43 279.921C985.443 280.054 985.45 280.207 985.45 280.381C985.45 280.554 985.443 280.714 985.43 280.861C985.417 281.007 985.39 281.134 985.35 281.241C985.323 281.334 985.283 281.407 985.23 281.461C985.19 281.514 985.13 281.541 985.05 281.541ZM988.808 281.221C988.128 280.581 987.615 279.901 987.268 279.181C986.935 278.461 986.768 277.694 986.768 276.881C986.768 276.094 986.915 275.374 987.208 274.721C987.502 274.054 987.902 273.481 988.408 273.001C988.915 272.521 989.502 272.154 990.168 271.901C990.848 271.634 991.562 271.501 992.308 271.501C992.708 271.501 993.128 271.541 993.568 271.621C994.008 271.701 994.428 271.807 994.828 271.941L994.028 274.121C993.748 274.027 993.468 273.954 993.188 273.901C992.922 273.847 992.662 273.821 992.408 273.821C991.822 273.821 991.302 273.954 990.848 274.221C990.395 274.474 990.042 274.827 989.788 275.281C989.548 275.734 989.428 276.254 989.428 276.841C989.428 277.374 989.535 277.874 989.748 278.341C989.975 278.807 990.295 279.227 990.708 279.601L988.808 281.221ZM985.048 281.541L985.048 279.221H995.008L995.008 281.541H985.048ZM985.048 281.541C984.968 281.541 984.908 281.514 984.868 281.461C984.815 281.407 984.775 281.334 984.748 281.241C984.708 281.134 984.682 281.007 984.668 280.861C984.655 280.714 984.648 280.554 984.648 280.381C984.648 280.141 984.662 279.941 984.688 279.781C984.715 279.607 984.762 279.474 984.828 279.381C984.882 279.274 984.955 279.221 985.048 279.221L985.048 281.541Z" fill="#333333"/>
<path d="M639.381 281.541L639.381 279.381L642.401 276.281C642.974 275.694 643.467 275.181 643.881 274.741C644.294 274.287 644.607 273.861 644.821 273.461C645.047 273.061 645.161 272.634 645.161 272.181C645.161 271.514 644.974 271.067 644.601 270.841C644.227 270.601 643.627 270.481 642.801 270.481C642.467 270.481 642.101 270.501 641.701 270.541C641.301 270.581 640.914 270.627 640.541 270.681C640.181 270.734 639.867 270.787 639.601 270.841L639.461 268.721C639.754 268.641 640.114 268.554 640.541 268.461C640.981 268.367 641.454 268.287 641.961 268.221C642.481 268.141 642.987 268.101 643.481 268.101C644.921 268.101 646.021 268.407 646.781 269.021C647.541 269.621 647.921 270.554 647.921 271.821C647.921 272.514 647.821 273.127 647.621 273.661C647.434 274.194 647.134 274.707 646.721 275.201C646.321 275.681 645.787 276.207 645.121 276.781L642.481 279.301H648.101L648.101 281.541H639.381ZM654.874 281.761C654.021 281.761 653.281 281.647 652.654 281.421C652.027 281.181 651.507 280.801 651.094 280.281C650.694 279.747 650.387 279.054 650.174 278.201C649.974 277.347 649.874 276.301 649.874 275.061C649.874 273.781 649.974 272.694 650.174 271.801C650.387 270.907 650.701 270.194 651.114 269.661C651.527 269.114 652.041 268.721 652.654 268.481C653.281 268.241 654.014 268.121 654.854 268.121C655.721 268.121 656.467 268.241 657.094 268.481C657.721 268.721 658.234 269.114 658.634 269.661C659.047 270.194 659.347 270.907 659.534 271.801C659.734 272.681 659.834 273.767 659.834 275.061C659.834 276.701 659.654 278.014 659.294 279.001C658.947 279.974 658.407 280.681 657.674 281.121C656.941 281.547 656.007 281.761 654.874 281.761ZM654.874 279.441C655.247 279.441 655.567 279.381 655.834 279.261C656.114 279.127 656.347 278.901 656.534 278.581C656.721 278.261 656.854 277.814 656.934 277.241C657.027 276.667 657.074 275.941 657.074 275.061C657.074 274.127 657.027 273.361 656.934 272.761C656.854 272.161 656.727 271.694 656.554 271.361C656.381 271.014 656.154 270.774 655.874 270.641C655.594 270.494 655.261 270.421 654.874 270.421C654.487 270.421 654.154 270.494 653.874 270.641C653.594 270.774 653.361 271.007 653.174 271.341C653.001 271.674 652.867 272.147 652.774 272.761C652.681 273.361 652.634 274.134 652.634 275.081C652.634 275.961 652.681 276.687 652.774 277.261C652.881 277.834 653.027 278.281 653.214 278.601C653.401 278.907 653.627 279.127 653.894 279.261C654.174 279.381 654.501 279.441 654.874 279.441ZM661.607 281.541L661.607 279.381L664.627 276.281C665.201 275.694 665.694 275.181 666.107 274.741C666.521 274.287 666.834 273.861 667.047 273.461C667.274 273.061 667.387 272.634 667.387 272.181C667.387 271.514 667.201 271.067 666.827 270.841C666.454 270.601 665.854 270.481 665.027 270.481C664.694 270.481 664.327 270.501 663.927 270.541C663.527 270.581 663.141 270.627 662.767 270.681C662.407 270.734 662.094 270.787 661.827 270.841L661.687 268.721C661.981 268.641 662.341 268.554 662.767 268.461C663.207 268.367 663.681 268.287 664.187 268.221C664.707 268.141 665.214 268.101 665.707 268.101C667.147 268.101 668.247 268.407 669.007 269.021C669.767 269.621 670.147 270.554 670.147 271.821C670.147 272.514 670.047 273.127 669.847 273.661C669.661 274.194 669.361 274.707 668.947 275.201C668.547 275.681 668.014 276.207 667.347 276.781L664.707 279.301H670.327L670.327 281.541H661.607ZM677.201 281.541L677.201 271.301L674.081 273.101L673.161 271.121L677.541 268.341H679.921L679.921 281.541H677.201ZM688.289 288.181C688.169 287.461 688.056 286.761 687.949 286.081C687.856 285.401 687.809 284.801 687.809 284.281C687.809 283.241 688.009 282.341 688.409 281.581C688.809 280.834 689.376 280.254 690.109 279.841C690.843 279.427 691.709 279.221 692.709 279.221C692.909 279.221 693.156 279.221 693.449 279.221C693.756 279.221 694.109 279.221 694.509 279.221C694.909 279.221 695.356 279.221 695.849 279.221C696.343 279.221 696.883 279.221 697.469 279.221L696.249 280.381L696.249 276.601C696.249 275.907 696.169 275.361 696.009 274.961C695.863 274.547 695.589 274.254 695.189 274.081C694.803 273.907 694.236 273.821 693.489 273.821C692.983 273.821 692.463 273.861 691.929 273.941C691.409 274.007 690.996 274.101 690.689 274.221L692.369 272.661C692.276 272.981 692.189 273.381 692.109 273.861C692.043 274.341 691.989 274.841 691.949 275.361C691.909 275.867 691.889 276.347 691.889 276.801C691.889 277.294 691.909 277.794 691.949 278.301C691.989 278.794 692.036 279.234 692.089 279.621C692.156 280.007 692.209 280.274 692.249 280.421L689.709 281.121C689.643 280.934 689.569 280.627 689.489 280.201C689.423 279.774 689.356 279.274 689.289 278.701C689.236 278.114 689.209 277.494 689.209 276.841C689.209 276.187 689.236 275.554 689.289 274.941C689.356 274.314 689.436 273.754 689.529 273.261C689.623 272.754 689.709 272.347 689.789 272.041C690.136 271.907 690.649 271.787 691.329 271.681C692.009 271.561 692.743 271.501 693.529 271.501C694.396 271.501 695.136 271.587 695.749 271.761C696.376 271.921 696.889 272.154 697.289 272.461C697.703 272.767 698.029 273.134 698.269 273.561C698.509 273.974 698.676 274.441 698.769 274.961C698.863 275.481 698.909 276.034 698.909 276.621L698.909 281.541C698.323 281.541 697.709 281.541 697.069 281.541C696.443 281.541 695.829 281.541 695.229 281.541C694.643 281.541 694.123 281.541 693.669 281.541C693.229 281.541 692.909 281.541 692.709 281.541C692.496 281.541 692.263 281.567 692.009 281.621C691.756 281.687 691.509 281.807 691.269 281.981C691.043 282.167 690.856 282.441 690.709 282.801C690.563 283.174 690.489 283.667 690.489 284.281C690.489 284.761 690.529 285.321 690.609 285.961C690.703 286.601 690.809 287.341 690.929 288.181H688.289ZM704.77 281.541L704.77 279.221H707.05L707.05 281.541H704.77ZM702.11 281.541L702.11 267.401H704.77L704.77 281.541H702.11ZM707.05 281.541L707.05 279.221C707.13 279.221 707.19 279.247 707.23 279.301C707.283 279.354 707.323 279.434 707.35 279.541C707.39 279.647 707.417 279.774 707.43 279.921C707.443 280.054 707.45 280.207 707.45 280.381C707.45 280.554 707.443 280.714 707.43 280.861C707.417 281.007 707.39 281.134 707.35 281.241C707.323 281.334 707.283 281.407 707.23 281.461C707.19 281.514 707.13 281.541 707.05 281.541ZM710.808 281.221C710.128 280.581 709.615 279.901 709.268 279.181C708.935 278.461 708.768 277.694 708.768 276.881C708.768 276.094 708.915 275.374 709.208 274.721C709.502 274.054 709.902 273.481 710.408 273.001C710.915 272.521 711.502 272.154 712.168 271.901C712.848 271.634 713.562 271.501 714.308 271.501C714.708 271.501 715.128 271.541 715.568 271.621C716.008 271.701 716.428 271.807 716.828 271.941L716.028 274.121C715.748 274.027 715.468 273.954 715.188 273.901C714.922 273.847 714.662 273.821 714.408 273.821C713.822 273.821 713.302 273.954 712.848 274.221C712.395 274.474 712.042 274.827 711.788 275.281C711.548 275.734 711.428 276.254 711.428 276.841C711.428 277.374 711.535 277.874 711.748 278.341C711.975 278.807 712.295 279.227 712.708 279.601L710.808 281.221ZM707.048 281.541L707.048 279.221H717.008L717.008 281.541H707.048ZM707.048 281.541C706.968 281.541 706.908 281.514 706.868 281.461C706.815 281.407 706.775 281.334 706.748 281.241C706.708 281.134 706.682 281.007 706.668 280.861C706.655 280.714 706.648 280.554 706.648 280.381C706.648 280.141 706.662 279.941 706.688 279.781C706.715 279.607 706.762 279.474 706.828 279.381C706.882 279.274 706.955 279.221 707.048 279.221L707.048 281.541Z" fill="#333333"/>
<path d="M356.381 281.541L356.381 279.381L359.401 276.281C359.974 275.694 360.467 275.181 360.881 274.741C361.294 274.287 361.607 273.861 361.821 273.461C362.047 273.061 362.161 272.634 362.161 272.181C362.161 271.514 361.974 271.067 361.601 270.841C361.227 270.601 360.627 270.481 359.801 270.481C359.467 270.481 359.101 270.501 358.701 270.541C358.301 270.581 357.914 270.627 357.541 270.681C357.181 270.734 356.867 270.787 356.601 270.841L356.461 268.721C356.754 268.641 357.114 268.554 357.541 268.461C357.981 268.367 358.454 268.287 358.961 268.221C359.481 268.141 359.987 268.101 360.481 268.101C361.921 268.101 363.021 268.407 363.781 269.021C364.541 269.621 364.921 270.554 364.921 271.821C364.921 272.514 364.821 273.127 364.621 273.661C364.434 274.194 364.134 274.707 363.721 275.201C363.321 275.681 362.787 276.207 362.121 276.781L359.481 279.301H365.101L365.101 281.541H356.381ZM371.874 281.761C371.021 281.761 370.281 281.647 369.654 281.421C369.027 281.181 368.507 280.801 368.094 280.281C367.694 279.747 367.387 279.054 367.174 278.201C366.974 277.347 366.874 276.301 366.874 275.061C366.874 273.781 366.974 272.694 367.174 271.801C367.387 270.907 367.701 270.194 368.114 269.661C368.527 269.114 369.041 268.721 369.654 268.481C370.281 268.241 371.014 268.121 371.854 268.121C372.721 268.121 373.467 268.241 374.094 268.481C374.721 268.721 375.234 269.114 375.634 269.661C376.047 270.194 376.347 270.907 376.534 271.801C376.734 272.681 376.834 273.767 376.834 275.061C376.834 276.701 376.654 278.014 376.294 279.001C375.947 279.974 375.407 280.681 374.674 281.121C373.941 281.547 373.007 281.761 371.874 281.761ZM371.874 279.441C372.247 279.441 372.567 279.381 372.834 279.261C373.114 279.127 373.347 278.901 373.534 278.581C373.721 278.261 373.854 277.814 373.934 277.241C374.027 276.667 374.074 275.941 374.074 275.061C374.074 274.127 374.027 273.361 373.934 272.761C373.854 272.161 373.727 271.694 373.554 271.361C373.381 271.014 373.154 270.774 372.874 270.641C372.594 270.494 372.261 270.421 371.874 270.421C371.487 270.421 371.154 270.494 370.874 270.641C370.594 270.774 370.361 271.007 370.174 271.341C370.001 271.674 369.867 272.147 369.774 272.761C369.681 273.361 369.634 274.134 369.634 275.081C369.634 275.961 369.681 276.687 369.774 277.261C369.881 277.834 370.027 278.281 370.214 278.601C370.401 278.907 370.627 279.127 370.894 279.261C371.174 279.381 371.501 279.441 371.874 279.441ZM378.607 281.541L378.607 279.381L381.627 276.281C382.201 275.694 382.694 275.181 383.107 274.741C383.521 274.287 383.834 273.861 384.047 273.461C384.274 273.061 384.387 272.634 384.387 272.181C384.387 271.514 384.201 271.067 383.827 270.841C383.454 270.601 382.854 270.481 382.027 270.481C381.694 270.481 381.327 270.501 380.927 270.541C380.527 270.581 380.141 270.627 379.767 270.681C379.407 270.734 379.094 270.787 378.827 270.841L378.687 268.721C378.981 268.641 379.341 268.554 379.767 268.461C380.207 268.367 380.681 268.287 381.187 268.221C381.707 268.141 382.214 268.101 382.707 268.101C384.147 268.101 385.247 268.407 386.007 269.021C386.767 269.621 387.147 270.554 387.147 271.821C387.147 272.514 387.047 273.127 386.847 273.661C386.661 274.194 386.361 274.707 385.947 275.201C385.547 275.681 385.014 276.207 384.347 276.781L381.707 279.301H387.327L387.327 281.541H378.607ZM389.721 281.541L389.721 279.381L392.741 276.281C393.314 275.694 393.807 275.181 394.221 274.741C394.634 274.287 394.947 273.861 395.161 273.461C395.387 273.061 395.501 272.634 395.501 272.181C395.501 271.514 395.314 271.067 394.941 270.841C394.567 270.601 393.967 270.481 393.141 270.481C392.807 270.481 392.441 270.501 392.041 270.541C391.641 270.581 391.254 270.627 390.881 270.681C390.521 270.734 390.207 270.787 389.941 270.841L389.801 268.721C390.094 268.641 390.454 268.554 390.881 268.461C391.321 268.367 391.794 268.287 392.301 268.221C392.821 268.141 393.327 268.101 393.821 268.101C395.261 268.101 396.361 268.407 397.121 269.021C397.881 269.621 398.261 270.554 398.261 271.821C398.261 272.514 398.161 273.127 397.961 273.661C397.774 274.194 397.474 274.707 397.061 275.201C396.661 275.681 396.127 276.207 395.461 276.781L392.821 279.301H398.441L398.441 281.541H389.721ZM405.289 288.181C405.169 287.461 405.056 286.761 404.949 286.081C404.856 285.401 404.809 284.801 404.809 284.281C404.809 283.241 405.009 282.341 405.409 281.581C405.809 280.834 406.376 280.254 407.109 279.841C407.843 279.427 408.709 279.221 409.709 279.221C409.909 279.221 410.156 279.221 410.449 279.221C410.756 279.221 411.109 279.221 411.509 279.221C411.909 279.221 412.356 279.221 412.849 279.221C413.343 279.221 413.883 279.221 414.469 279.221L413.249 280.381L413.249 276.601C413.249 275.907 413.169 275.361 413.009 274.961C412.863 274.547 412.589 274.254 412.189 274.081C411.803 273.907 411.236 273.821 410.489 273.821C409.983 273.821 409.463 273.861 408.929 273.941C408.409 274.007 407.996 274.101 407.689 274.221L409.369 272.661C409.276 272.981 409.189 273.381 409.109 273.861C409.043 274.341 408.989 274.841 408.949 275.361C408.909 275.867 408.889 276.347 408.889 276.801C408.889 277.294 408.909 277.794 408.949 278.301C408.989 278.794 409.036 279.234 409.089 279.621C409.156 280.007 409.209 280.274 409.249 280.421L406.709 281.121C406.643 280.934 406.569 280.627 406.489 280.201C406.423 279.774 406.356 279.274 406.289 278.701C406.236 278.114 406.209 277.494 406.209 276.841C406.209 276.187 406.236 275.554 406.289 274.941C406.356 274.314 406.436 273.754 406.529 273.261C406.623 272.754 406.709 272.347 406.789 272.041C407.136 271.907 407.649 271.787 408.329 271.681C409.009 271.561 409.743 271.501 410.529 271.501C411.396 271.501 412.136 271.587 412.749 271.761C413.376 271.921 413.889 272.154 414.289 272.461C414.703 272.767 415.029 273.134 415.269 273.561C415.509 273.974 415.676 274.441 415.769 274.961C415.863 275.481 415.909 276.034 415.909 276.621L415.909 281.541C415.323 281.541 414.709 281.541 414.069 281.541C413.443 281.541 412.829 281.541 412.229 281.541C411.643 281.541 411.123 281.541 410.669 281.541C410.229 281.541 409.909 281.541 409.709 281.541C409.496 281.541 409.263 281.567 409.009 281.621C408.756 281.687 408.509 281.807 408.269 281.981C408.043 282.167 407.856 282.441 407.709 282.801C407.563 283.174 407.489 283.667 407.489 284.281C407.489 284.761 407.529 285.321 407.609 285.961C407.703 286.601 407.809 287.341 407.929 288.181H405.289ZM421.77 281.541L421.77 279.221H424.05L424.05 281.541H421.77ZM419.11 281.541L419.11 267.401H421.77L421.77 281.541H419.11ZM424.05 281.541L424.05 279.221C424.13 279.221 424.19 279.247 424.23 279.301C424.283 279.354 424.323 279.434 424.35 279.541C424.39 279.647 424.417 279.774 424.43 279.921C424.443 280.054 424.45 280.207 424.45 280.381C424.45 280.554 424.443 280.714 424.43 280.861C424.417 281.007 424.39 281.134 424.35 281.241C424.323 281.334 424.283 281.407 424.23 281.461C424.19 281.514 424.13 281.541 424.05 281.541ZM427.808 281.221C427.128 280.581 426.615 279.901 426.268 279.181C425.935 278.461 425.768 277.694 425.768 276.881C425.768 276.094 425.915 275.374 426.208 274.721C426.502 274.054 426.902 273.481 427.408 273.001C427.915 272.521 428.502 272.154 429.168 271.901C429.848 271.634 430.562 271.501 431.308 271.501C431.708 271.501 432.128 271.541 432.568 271.621C433.008 271.701 433.428 271.807 433.828 271.941L433.028 274.121C432.748 274.027 432.468 273.954 432.188 273.901C431.922 273.847 431.662 273.821 431.408 273.821C430.822 273.821 430.302 273.954 429.848 274.221C429.395 274.474 429.042 274.827 428.788 275.281C428.548 275.734 428.428 276.254 428.428 276.841C428.428 277.374 428.535 277.874 428.748 278.341C428.975 278.807 429.295 279.227 429.708 279.601L427.808 281.221ZM424.048 281.541L424.048 279.221H434.008L434.008 281.541H424.048ZM424.048 281.541C423.968 281.541 423.908 281.514 423.868 281.461C423.815 281.407 423.775 281.334 423.748 281.241C423.708 281.134 423.682 281.007 423.668 280.861C423.655 280.714 423.648 280.554 423.648 280.381C423.648 280.141 423.662 279.941 423.688 279.781C423.715 279.607 423.762 279.474 423.828 279.381C423.882 279.274 423.955 279.221 424.048 279.221L424.048 281.541Z" fill="#333333"/>
<path d="M70.3807 281.541L70.3807 279.381L73.4007 276.281C73.974 275.694 74.4673 275.181 74.8807 274.741C75.294 274.287 75.6074 273.861 75.8207 273.461C76.0474 273.061 76.1607 272.634 76.1607 272.181C76.1607 271.514 75.974 271.067 75.6007 270.841C75.2274 270.601 74.6274 270.481 73.8007 270.481C73.4673 270.481 73.1007 270.501 72.7007 270.541C72.3007 270.581 71.914 270.627 71.5407 270.681C71.1807 270.734 70.8673 270.787 70.6007 270.841L70.4607 268.721C70.754 268.641 71.114 268.554 71.5407 268.461C71.9807 268.367 72.454 268.287 72.9607 268.221C73.4807 268.141 73.9874 268.101 74.4807 268.101C75.9207 268.101 77.0207 268.407 77.7807 269.021C78.5407 269.621 78.9207 270.554 78.9207 271.821C78.9207 272.514 78.8207 273.127 78.6207 273.661C78.434 274.194 78.134 274.707 77.7207 275.201C77.3207 275.681 76.7874 276.207 76.1207 276.781L73.4807 279.301H79.1007L79.1007 281.541H70.3807ZM85.874 281.761C85.0206 281.761 84.2806 281.647 83.654 281.421C83.0273 281.181 82.5073 280.801 82.094 280.281C81.694 279.747 81.3873 279.054 81.174 278.201C80.974 277.347 80.874 276.301 80.874 275.061C80.874 273.781 80.974 272.694 81.174 271.801C81.3873 270.907 81.7006 270.194 82.114 269.661C82.5273 269.114 83.0406 268.721 83.654 268.481C84.2806 268.241 85.014 268.121 85.854 268.121C86.7206 268.121 87.4673 268.241 88.094 268.481C88.7206 268.721 89.234 269.114 89.634 269.661C90.0473 270.194 90.3473 270.907 90.534 271.801C90.734 272.681 90.834 273.767 90.834 275.061C90.834 276.701 90.654 278.014 90.294 279.001C89.9473 279.974 89.4073 280.681 88.674 281.121C87.9406 281.547 87.0073 281.761 85.874 281.761ZM85.874 279.441C86.2473 279.441 86.5673 279.381 86.834 279.261C87.114 279.127 87.3473 278.901 87.534 278.581C87.7206 278.261 87.854 277.814 87.934 277.241C88.0273 276.667 88.074 275.941 88.074 275.061C88.074 274.127 88.0273 273.361 87.934 272.761C87.854 272.161 87.7273 271.694 87.554 271.361C87.3806 271.014 87.154 270.774 86.874 270.641C86.594 270.494 86.2606 270.421 85.874 270.421C85.4873 270.421 85.154 270.494 84.874 270.641C84.594 270.774 84.3606 271.007 84.174 271.341C84.0006 271.674 83.8673 272.147 83.774 272.761C83.6806 273.361 83.634 274.134 83.634 275.081C83.634 275.961 83.6806 276.687 83.774 277.261C83.8806 277.834 84.0273 278.281 84.214 278.601C84.4006 278.907 84.6273 279.127 84.894 279.261C85.174 279.381 85.5006 279.441 85.874 279.441ZM92.6072 281.541L92.6072 279.381L95.6272 276.281C96.2006 275.694 96.6939 275.181 97.1072 274.741C97.5206 274.287 97.8339 273.861 98.0472 273.461C98.2739 273.061 98.3872 272.634 98.3872 272.181C98.3872 271.514 98.2006 271.067 97.8272 270.841C97.4539 270.601 96.8539 270.481 96.0272 270.481C95.6939 270.481 95.3272 270.501 94.9272 270.541C94.5272 270.581 94.1406 270.627 93.7672 270.681C93.4072 270.734 93.0939 270.787 92.8272 270.841L92.6872 268.721C92.9806 268.641 93.3406 268.554 93.7672 268.461C94.2072 268.367 94.6806 268.287 95.1872 268.221C95.7072 268.141 96.2139 268.101 96.7072 268.101C98.1472 268.101 99.2472 268.407 100.007 269.021C100.767 269.621 101.147 270.554 101.147 271.821C101.147 272.514 101.047 273.127 100.847 273.661C100.661 274.194 100.361 274.707 99.9472 275.201C99.5472 275.681 99.0139 276.207 98.3472 276.781L95.7072 279.301H101.327L101.327 281.541H92.6072ZM107.881 281.761C107.387 281.761 106.867 281.734 106.321 281.681C105.787 281.627 105.274 281.561 104.781 281.481C104.301 281.387 103.901 281.307 103.581 281.241L103.701 279.101C104.021 279.141 104.401 279.187 104.841 279.241C105.294 279.294 105.754 279.341 106.221 279.381C106.701 279.407 107.141 279.421 107.541 279.421C108.301 279.421 108.867 279.281 109.241 279.001C109.614 278.721 109.801 278.267 109.801 277.641C109.801 277.214 109.714 276.881 109.541 276.641C109.381 276.387 109.141 276.201 108.821 276.081C108.514 275.961 108.154 275.894 107.741 275.881H105.021L105.021 273.681H107.681C107.987 273.681 108.281 273.614 108.561 273.481C108.854 273.347 109.087 273.154 109.261 272.901C109.447 272.647 109.541 272.341 109.541 271.981C109.541 271.421 109.367 271.027 109.021 270.801C108.687 270.561 108.141 270.441 107.381 270.441C106.981 270.441 106.561 270.461 106.121 270.501C105.681 270.541 105.261 270.587 104.861 270.641C104.461 270.681 104.127 270.727 103.861 270.781L103.741 268.681C104.034 268.601 104.394 268.521 104.821 268.441C105.247 268.347 105.701 268.274 106.181 268.221C106.661 268.154 107.114 268.121 107.541 268.121C108.674 268.121 109.587 268.241 110.281 268.481C110.987 268.707 111.501 269.087 111.821 269.621C112.141 270.141 112.301 270.827 112.301 271.681C112.301 272.147 112.241 272.541 112.121 272.861C112.014 273.181 111.867 273.454 111.681 273.681C111.507 273.907 111.327 274.094 111.141 274.241C110.954 274.374 110.781 274.494 110.621 274.601C111.021 274.787 111.367 274.994 111.661 275.221C111.954 275.447 112.181 275.747 112.341 276.121C112.501 276.494 112.581 276.994 112.581 277.621C112.581 278.621 112.407 279.427 112.061 280.041C111.714 280.641 111.194 281.081 110.501 281.361C109.807 281.627 108.934 281.761 107.881 281.761ZM119.289 288.181C119.169 287.461 119.056 286.761 118.949 286.081C118.856 285.401 118.809 284.801 118.809 284.281C118.809 283.241 119.009 282.341 119.409 281.581C119.809 280.834 120.376 280.254 121.109 279.841C121.843 279.427 122.709 279.221 123.709 279.221C123.909 279.221 124.156 279.221 124.449 279.221C124.756 279.221 125.109 279.221 125.509 279.221C125.909 279.221 126.356 279.221 126.849 279.221C127.343 279.221 127.883 279.221 128.469 279.221L127.249 280.381L127.249 276.601C127.249 275.907 127.169 275.361 127.009 274.961C126.863 274.547 126.589 274.254 126.189 274.081C125.803 273.907 125.236 273.821 124.489 273.821C123.983 273.821 123.463 273.861 122.929 273.941C122.409 274.007 121.996 274.101 121.689 274.221L123.369 272.661C123.276 272.981 123.189 273.381 123.109 273.861C123.043 274.341 122.989 274.841 122.949 275.361C122.909 275.867 122.889 276.347 122.889 276.801C122.889 277.294 122.909 277.794 122.949 278.301C122.989 278.794 123.036 279.234 123.089 279.621C123.156 280.007 123.209 280.274 123.249 280.421L120.709 281.121C120.643 280.934 120.569 280.627 120.489 280.201C120.423 279.774 120.356 279.274 120.289 278.701C120.236 278.114 120.209 277.494 120.209 276.841C120.209 276.187 120.236 275.554 120.289 274.941C120.356 274.314 120.436 273.754 120.529 273.261C120.623 272.754 120.709 272.347 120.789 272.041C121.136 271.907 121.649 271.787 122.329 271.681C123.009 271.561 123.743 271.501 124.529 271.501C125.396 271.501 126.136 271.587 126.749 271.761C127.376 271.921 127.889 272.154 128.289 272.461C128.703 272.767 129.029 273.134 129.269 273.561C129.509 273.974 129.676 274.441 129.769 274.961C129.863 275.481 129.909 276.034 129.909 276.621L129.909 281.541C129.323 281.541 128.709 281.541 128.069 281.541C127.443 281.541 126.829 281.541 126.229 281.541C125.643 281.541 125.123 281.541 124.669 281.541C124.229 281.541 123.909 281.541 123.709 281.541C123.496 281.541 123.263 281.567 123.009 281.621C122.756 281.687 122.509 281.807 122.269 281.981C122.043 282.167 121.856 282.441 121.709 282.801C121.563 283.174 121.489 283.667 121.489 284.281C121.489 284.761 121.529 285.321 121.609 285.961C121.703 286.601 121.809 287.341 121.929 288.181H119.289ZM135.77 281.541L135.77 279.221H138.05L138.05 281.541H135.77ZM133.11 281.541L133.11 267.401H135.77L135.77 281.541H133.11ZM138.05 281.541L138.05 279.221C138.13 279.221 138.19 279.247 138.23 279.301C138.283 279.354 138.323 279.434 138.35 279.541C138.39 279.647 138.417 279.774 138.43 279.921C138.443 280.054 138.45 280.207 138.45 280.381C138.45 280.554 138.443 280.714 138.43 280.861C138.417 281.007 138.39 281.134 138.35 281.241C138.323 281.334 138.283 281.407 138.23 281.461C138.19 281.514 138.13 281.541 138.05 281.541ZM141.808 281.221C141.128 280.581 140.615 279.901 140.268 279.181C139.935 278.461 139.768 277.694 139.768 276.881C139.768 276.094 139.915 275.374 140.208 274.721C140.502 274.054 140.902 273.481 141.408 273.001C141.915 272.521 142.502 272.154 143.168 271.901C143.848 271.634 144.562 271.501 145.308 271.501C145.708 271.501 146.128 271.541 146.568 271.621C147.008 271.701 147.428 271.807 147.828 271.941L147.028 274.121C146.748 274.027 146.468 273.954 146.188 273.901C145.922 273.847 145.662 273.821 145.408 273.821C144.822 273.821 144.302 273.954 143.848 274.221C143.395 274.474 143.042 274.827 142.788 275.281C142.548 275.734 142.428 276.254 142.428 276.841C142.428 277.374 142.535 277.874 142.748 278.341C142.975 278.807 143.295 279.227 143.708 279.601L141.808 281.221ZM138.048 281.541L138.048 279.221H148.008L148.008 281.541H138.048ZM138.048 281.541C137.968 281.541 137.908 281.514 137.868 281.461C137.815 281.407 137.775 281.334 137.748 281.241C137.708 281.134 137.682 281.007 137.668 280.861C137.655 280.714 137.648 280.554 137.648 280.381C137.648 280.141 137.662 279.941 137.688 279.781C137.715 279.607 137.762 279.474 137.828 279.381C137.882 279.274 137.955 279.221 138.048 279.221L138.048 281.541Z" fill="#333333"/>
<path d="M105.355 105.328L3.31743 128.9C-9.69177 72.516 25.4497 16.2429 81.7982 3.22549C89.6814 1.41082 97.2501 0.540527 105.355 0.540527V105.328Z" fill="#C6822A"/>
<path d="M113.016 111.716V6.92871C170.845 6.92871 217.738 53.8507 217.738 111.716C217.738 169.582 170.845 216.504 113.016 216.504C63.2744 216.504 22.1742 183.784 10.9785 135.288L113.016 111.716Z" fill="#005491"/>
<path d="M392.373 106.328L291.205 133.455C276.234 77.5527 309.396 20.0945 365.263 5.1143C374.201 2.72561 383.121 1.54053 392.373 1.54053V106.328Z" fill="#C6822A"/>
<path d="M398.406 112.365V7.57715C456.254 7.57715 503.128 54.4991 503.128 112.365C503.128 170.23 456.235 217.152 398.406 217.152C349.812 217.152 309.822 186.433 297.238 139.473L398.406 112.346V112.365Z" fill="#005491"/>
<path d="M680.164 113.197V10.2432C736.994 10.2432 783.053 56.3504 783.053 113.197C783.053 170.045 736.975 216.152 680.164 216.152C623.353 216.152 577.275 170.045 577.275 113.197C577.275 106.383 577.663 102.032 578.848 95.3286L680.183 113.197H680.164Z" fill="#005491"/>
<path d="M674.946 104.495L573.611 86.626C582.29 37.3523 624.944 1.54053 674.946 1.54053V104.495Z" fill="#C6822A"/>
<path d="M951.281 104.495L855.221 67.5905C870.691 27.2421 908.09 1.54053 951.281 1.54053V104.495Z" fill="#C6822A"/>
<path d="M956.5 114.068V11.1138C1013.33 11.1138 1059.39 57.221 1059.39 114.068C1059.39 170.915 1013.31 217.022 956.5 217.022C899.689 217.022 853.611 170.915 853.611 114.068C853.611 100.421 855.554 89.9035 860.439 77.1638L956.5 114.068Z" fill="#005491"/>
<path d="M26.351 73.5765L25.035 73.2405L30.299 53.2485L31.643 53.6125L26.351 73.5765ZM24.055 62.4605C23.271 62.4605 22.6176 62.3112 22.095 62.0125C21.591 61.6952 21.2176 61.2192 20.975 60.5845C20.7323 59.9312 20.611 59.1005 20.611 58.0925C20.611 57.0845 20.7323 56.2632 20.975 55.6285C21.2363 54.9939 21.619 54.5365 22.123 54.2565C22.6456 53.9579 23.2896 53.8085 24.055 53.8085C24.8576 53.8085 25.511 53.9579 26.015 54.2565C26.519 54.5365 26.8923 54.9939 27.135 55.6285C27.3776 56.2632 27.499 57.0845 27.499 58.0925C27.499 59.1005 27.3776 59.9312 27.135 60.5845C26.8923 61.2192 26.519 61.6952 26.015 62.0125C25.511 62.3112 24.8576 62.4605 24.055 62.4605ZM24.055 60.4165C24.3163 60.4165 24.5216 60.3512 24.671 60.2205C24.8203 60.0712 24.923 59.8285 24.979 59.4925C25.0536 59.1379 25.091 58.6712 25.091 58.0925C25.091 57.5139 25.0536 57.0659 24.979 56.7485C24.923 56.4125 24.8203 56.1792 24.671 56.0485C24.5216 55.8992 24.3163 55.8245 24.055 55.8245C23.7936 55.8245 23.5883 55.8992 23.439 56.0485C23.2896 56.1792 23.187 56.4125 23.131 56.7485C23.075 57.0659 23.047 57.5139 23.047 58.0925C23.047 58.6712 23.075 59.1379 23.131 59.4925C23.187 59.8285 23.2896 60.0712 23.439 60.2205C23.5883 60.3512 23.7936 60.4165 24.055 60.4165ZM32.679 72.8485C31.8763 72.8485 31.2136 72.6992 30.691 72.4005C30.187 72.0832 29.8136 71.6072 29.571 70.9725C29.3283 70.3192 29.207 69.4885 29.207 68.4805C29.207 67.4725 29.3283 66.6512 29.571 66.0165C29.8323 65.3819 30.215 64.9152 30.719 64.6165C31.2416 64.3179 31.895 64.1685 32.679 64.1685C33.463 64.1685 34.107 64.3179 34.611 64.6165C35.115 64.9152 35.4883 65.3819 35.731 66.0165C35.9923 66.6512 36.123 67.4725 36.123 68.4805C36.123 69.4885 35.9923 70.3192 35.731 70.9725C35.4883 71.6072 35.115 72.0832 34.611 72.4005C34.107 72.6992 33.463 72.8485 32.679 72.8485ZM32.679 70.8045C32.9216 70.8045 33.1176 70.7392 33.267 70.6085C33.435 70.4592 33.547 70.2165 33.603 69.8805C33.659 69.5259 33.687 69.0592 33.687 68.4805C33.687 67.8832 33.659 67.4259 33.603 67.1085C33.547 66.7725 33.4443 66.5485 33.295 66.4365C33.1456 66.3059 32.9403 66.2405 32.679 66.2405C32.399 66.2405 32.1843 66.3059 32.035 66.4365C31.8856 66.5485 31.783 66.7725 31.727 67.1085C31.671 67.4259 31.643 67.8832 31.643 68.4805C31.643 69.0592 31.671 69.5259 31.727 69.8805C31.8016 70.2165 31.9136 70.4592 32.063 70.6085C32.2123 70.7392 32.4176 70.8045 32.679 70.8045ZM44.4777 72.5405V69.5165L48.7057 65.1765C49.5084 64.3552 50.199 63.6365 50.7777 63.0205C51.3564 62.3859 51.795 61.7885 52.0937 61.2285C52.411 60.6685 52.5697 60.0712 52.5697 59.4365C52.5697 58.5032 52.3084 57.8779 51.7857 57.5605C51.263 57.2245 50.423 57.0565 49.2657 57.0565C48.799 57.0565 48.2857 57.0845 47.7257 57.1405C47.1657 57.1965 46.6244 57.2619 46.1017 57.3365C45.5977 57.4112 45.159 57.4859 44.7857 57.5605L44.5897 54.5925C45.0004 54.4805 45.5044 54.3592 46.1017 54.2285C46.7177 54.0979 47.3804 53.9859 48.0897 53.8925C48.8177 53.7805 49.527 53.7245 50.2177 53.7245C52.2337 53.7245 53.7737 54.1539 54.8377 55.0125C55.9017 55.8525 56.4337 57.1592 56.4337 58.9325C56.4337 59.9032 56.2937 60.7619 56.0137 61.5085C55.7524 62.2552 55.3324 62.9739 54.7537 63.6645C54.1937 64.3365 53.447 65.0739 52.5137 65.8765L48.8177 69.4045H56.6857V72.5405H44.4777ZM66.1123 72.8485C65.1789 72.8485 64.2829 72.7645 63.4243 72.5965C62.5656 72.4472 61.8096 72.1859 61.1563 71.8125C60.5029 71.4205 59.9896 70.8979 59.6163 70.2445C59.2429 69.5725 59.0563 68.7419 59.0563 67.7525C59.0563 66.8192 59.1683 66.0725 59.3923 65.5125C59.6349 64.9525 59.9709 64.4765 60.4003 64.0845C60.8296 63.6925 61.3429 63.3192 61.9403 62.9645C61.3429 62.6285 60.8483 62.2739 60.4563 61.9005C60.0829 61.5272 59.8029 61.0792 59.6163 60.5565C59.4483 60.0152 59.3643 59.3619 59.3643 58.5965C59.3643 57.4579 59.6443 56.5339 60.2043 55.8245C60.7829 55.1152 61.5763 54.5925 62.5843 54.2565C63.6109 53.9205 64.7869 53.7525 66.1123 53.7525C67.4376 53.7525 68.6136 53.9112 69.6403 54.2285C70.6856 54.5459 71.4976 55.0685 72.0763 55.7965C72.6736 56.5059 72.9723 57.4485 72.9723 58.6245C72.9723 59.4085 72.8789 60.0712 72.6923 60.6125C72.5243 61.1352 72.2443 61.5832 71.8523 61.9565C71.4603 62.3112 70.9376 62.6565 70.2843 62.9925C70.9376 63.2912 71.4789 63.6365 71.9083 64.0285C72.3563 64.4019 72.6923 64.8685 72.9163 65.4285C73.1403 65.9885 73.2523 66.7072 73.2523 67.5845C73.2523 68.5925 73.0656 69.4419 72.6923 70.1325C72.3189 70.8045 71.7963 71.3459 71.1243 71.7565C70.4709 72.1485 69.7149 72.4285 68.8563 72.5965C67.9976 72.7645 67.0829 72.8485 66.1123 72.8485ZM66.1123 69.7965C66.7656 69.7965 67.3349 69.7219 67.8203 69.5725C68.3243 69.4045 68.7069 69.1339 68.9683 68.7605C69.2483 68.3685 69.3883 67.8365 69.3883 67.1645C69.3883 66.6419 69.2856 66.2125 69.0803 65.8765C68.8936 65.5219 68.6229 65.2325 68.2683 65.0085C67.9323 64.7845 67.5589 64.6072 67.1483 64.4765H65.0483C64.3949 64.6819 63.8723 65.0085 63.4803 65.4565C63.1069 65.8859 62.9203 66.4832 62.9203 67.2485C62.9203 67.8645 63.0509 68.3592 63.3123 68.7325C63.5923 69.1059 63.9749 69.3765 64.4603 69.5445C64.9456 69.7125 65.4963 69.7965 66.1123 69.7965ZM65.0483 61.6485H67.1483C67.7643 61.4059 68.2496 61.0885 68.6043 60.6965C68.9589 60.3045 69.1363 59.7912 69.1363 59.1565C69.1363 58.3165 68.8749 57.7099 68.3523 57.3365C67.8483 56.9632 67.1109 56.7765 66.1403 56.7765C65.1883 56.7765 64.4603 56.9632 63.9563 57.3365C63.4523 57.7099 63.2003 58.3072 63.2003 59.1285C63.2003 59.7819 63.3589 60.3045 63.6763 60.6965C63.9936 61.0885 64.4509 61.4059 65.0483 61.6485ZM75.3989 72.5405V68.3965H79.2909V72.5405H75.3989ZM88.6201 72.8485C87.9108 72.8485 87.1455 72.7925 86.3241 72.6805C85.5028 72.5872 84.7095 72.4659 83.9441 72.3165C83.1788 72.1672 82.5255 72.0365 81.9841 71.9245L82.3201 69.0685C82.8241 69.1432 83.4215 69.2365 84.1121 69.3485C84.8028 69.4419 85.5121 69.5165 86.2401 69.5725C86.9681 69.6285 87.6308 69.6565 88.2281 69.6565C89.1801 69.6565 89.9361 69.4139 90.4961 68.9285C91.0561 68.4245 91.3361 67.6965 91.3361 66.7445C91.3361 66.0912 91.2148 65.5779 90.9721 65.2045C90.7481 64.8312 90.4121 64.5699 89.9641 64.4205C89.5348 64.2525 89.0308 64.1685 88.4521 64.1685C88.0041 64.1685 87.5561 64.2152 87.1081 64.3085C86.6601 64.3832 86.2401 64.4859 85.8481 64.6165C85.4561 64.7285 85.1388 64.8499 84.8961 64.9805L82.3761 64.5885L82.8241 54.0605H94.3881V57.4485H85.8481L85.4841 61.5645C85.7455 61.4525 86.0721 61.3405 86.4641 61.2285C86.8561 61.0979 87.2761 60.9859 87.7241 60.8925C88.1908 60.7992 88.6388 60.7525 89.0681 60.7525C90.3561 60.7525 91.4481 60.9299 92.3441 61.2845C93.2401 61.6392 93.9215 62.2272 94.3881 63.0485C94.8735 63.8699 95.1161 64.9899 95.1161 66.4085C95.1161 67.8832 94.8455 69.0965 94.3041 70.0485C93.7815 70.9819 93.0348 71.6819 92.0641 72.1485C91.1121 72.6152 89.9641 72.8485 88.6201 72.8485Z" fill="white"/>
<path d="M74.5824 173.651L73.1724 173.291L78.8124 151.871L80.2524 152.261L74.5824 173.651ZM72.1224 161.741C71.2824 161.741 70.5824 161.581 70.0224 161.261C69.4824 160.921 69.0824 160.411 68.8224 159.731C68.5624 159.031 68.4324 158.141 68.4324 157.061C68.4324 155.981 68.5624 155.101 68.8224 154.421C69.1024 153.741 69.5124 153.251 70.0524 152.951C70.6124 152.631 71.3024 152.471 72.1224 152.471C72.9824 152.471 73.6824 152.631 74.2224 152.951C74.7624 153.251 75.1624 153.741 75.4224 154.421C75.6824 155.101 75.8124 155.981 75.8124 157.061C75.8124 158.141 75.6824 159.031 75.4224 159.731C75.1624 160.411 74.7624 160.921 74.2224 161.261C73.6824 161.581 72.9824 161.741 72.1224 161.741ZM72.1224 159.551C72.4024 159.551 72.6224 159.481 72.7824 159.341C72.9424 159.181 73.0524 158.921 73.1124 158.561C73.1924 158.181 73.2324 157.681 73.2324 157.061C73.2324 156.441 73.1924 155.961 73.1124 155.621C73.0524 155.261 72.9424 155.011 72.7824 154.871C72.6224 154.711 72.4024 154.631 72.1224 154.631C71.8424 154.631 71.6224 154.711 71.4624 154.871C71.3024 155.011 71.1924 155.261 71.1324 155.621C71.0724 155.961 71.0424 156.441 71.0424 157.061C71.0424 157.681 71.0724 158.181 71.1324 158.561C71.1924 158.921 71.3024 159.181 71.4624 159.341C71.6224 159.481 71.8424 159.551 72.1224 159.551ZM81.3624 172.871C80.5024 172.871 79.7924 172.711 79.2324 172.391C78.6924 172.051 78.2924 171.541 78.0324 170.861C77.7724 170.161 77.6424 169.271 77.6424 168.191C77.6424 167.111 77.7724 166.231 78.0324 165.551C78.3124 164.871 78.7224 164.371 79.2624 164.051C79.8224 163.731 80.5224 163.571 81.3624 163.571C82.2024 163.571 82.8924 163.731 83.4324 164.051C83.9724 164.371 84.3724 164.871 84.6324 165.551C84.9124 166.231 85.0524 167.111 85.0524 168.191C85.0524 169.271 84.9124 170.161 84.6324 170.861C84.3724 171.541 83.9724 172.051 83.4324 172.391C82.8924 172.711 82.2024 172.871 81.3624 172.871ZM81.3624 170.681C81.6224 170.681 81.8324 170.611 81.9924 170.471C82.1724 170.311 82.2924 170.051 82.3524 169.691C82.4124 169.311 82.4424 168.811 82.4424 168.191C82.4424 167.551 82.4124 167.061 82.3524 166.721C82.2924 166.361 82.1824 166.121 82.0224 166.001C81.8624 165.861 81.6424 165.791 81.3624 165.791C81.0624 165.791 80.8324 165.861 80.6724 166.001C80.5124 166.121 80.4024 166.361 80.3424 166.721C80.2824 167.061 80.2524 167.551 80.2524 168.191C80.2524 168.811 80.2824 169.311 80.3424 169.691C80.4224 170.051 80.5424 170.311 80.7024 170.471C80.8624 170.611 81.0824 170.681 81.3624 170.681ZM100.304 172.871L96.3439 171.911L102.824 157.271V156.491H94.2139V152.741H107.024V157.211L100.304 172.871ZM117.394 172.541V157.181L112.714 159.881L111.334 156.911L117.904 152.741H121.474V172.541H117.394ZM127.134 172.541V168.101H131.304V172.541H127.134ZM141.299 172.871C140.539 172.871 139.719 172.811 138.839 172.691C137.959 172.591 137.109 172.461 136.289 172.301C135.469 172.141 134.769 172.001 134.189 171.881L134.549 168.821C135.089 168.901 135.729 169.001 136.469 169.121C137.209 169.221 137.969 169.301 138.749 169.361C139.529 169.421 140.239 169.451 140.879 169.451C141.899 169.451 142.709 169.191 143.309 168.671C143.909 168.131 144.209 167.351 144.209 166.331C144.209 165.631 144.079 165.081 143.819 164.681C143.579 164.281 143.219 164.001 142.739 163.841C142.279 163.661 141.739 163.571 141.119 163.571C140.639 163.571 140.159 163.621 139.679 163.721C139.199 163.801 138.749 163.911 138.329 164.051C137.909 164.171 137.569 164.301 137.309 164.441L134.609 164.021L135.089 152.741H147.479V156.371H138.329L137.939 160.781C138.219 160.661 138.569 160.541 138.989 160.421C139.409 160.281 139.859 160.161 140.339 160.061C140.839 159.961 141.319 159.911 141.779 159.911C143.159 159.911 144.329 160.101 145.289 160.481C146.249 160.861 146.979 161.491 147.479 162.371C147.999 163.251 148.259 164.451 148.259 165.971C148.259 167.551 147.969 168.851 147.389 169.871C146.829 170.871 146.029 171.621 144.989 172.121C143.969 172.621 142.739 172.871 141.299 172.871Z" fill="white"/>
<path d="M320.55 74.6505L319.14 74.2905L324.78 52.8705L326.22 53.2605L320.55 74.6505ZM318.09 62.7405C317.25 62.7405 316.55 62.5805 315.99 62.2605C315.45 61.9205 315.05 61.4105 314.79 60.7305C314.53 60.0305 314.4 59.1405 314.4 58.0605C314.4 56.9805 314.53 56.1005 314.79 55.4205C315.07 54.7405 315.48 54.2505 316.02 53.9505C316.58 53.6305 317.27 53.4705 318.09 53.4705C318.95 53.4705 319.65 53.6305 320.19 53.9505C320.73 54.2505 321.13 54.7405 321.39 55.4205C321.65 56.1005 321.78 56.9805 321.78 58.0605C321.78 59.1405 321.65 60.0305 321.39 60.7305C321.13 61.4105 320.73 61.9205 320.19 62.2605C319.65 62.5805 318.95 62.7405 318.09 62.7405ZM318.09 60.5505C318.37 60.5505 318.59 60.4805 318.75 60.3405C318.91 60.1805 319.02 59.9205 319.08 59.5605C319.16 59.1805 319.2 58.6805 319.2 58.0605C319.2 57.4405 319.16 56.9605 319.08 56.6205C319.02 56.2605 318.91 56.0105 318.75 55.8705C318.59 55.7105 318.37 55.6305 318.09 55.6305C317.81 55.6305 317.59 55.7105 317.43 55.8705C317.27 56.0105 317.16 56.2605 317.1 56.6205C317.04 56.9605 317.01 57.4405 317.01 58.0605C317.01 58.6805 317.04 59.1805 317.1 59.5605C317.16 59.9205 317.27 60.1805 317.43 60.3405C317.59 60.4805 317.81 60.5505 318.09 60.5505ZM327.33 73.8705C326.47 73.8705 325.76 73.7105 325.2 73.3905C324.66 73.0505 324.26 72.5405 324 71.8605C323.74 71.1605 323.61 70.2705 323.61 69.1905C323.61 68.1105 323.74 67.2305 324 66.5505C324.28 65.8705 324.69 65.3705 325.23 65.0505C325.79 64.7305 326.49 64.5705 327.33 64.5705C328.17 64.5705 328.86 64.7305 329.4 65.0505C329.94 65.3705 330.34 65.8705 330.6 66.5505C330.88 67.2305 331.02 68.1105 331.02 69.1905C331.02 70.2705 330.88 71.1605 330.6 71.8605C330.34 72.5405 329.94 73.0505 329.4 73.3905C328.86 73.7105 328.17 73.8705 327.33 73.8705ZM327.33 71.6805C327.59 71.6805 327.8 71.6105 327.96 71.4705C328.14 71.3105 328.26 71.0505 328.32 70.6905C328.38 70.3105 328.41 69.8105 328.41 69.1905C328.41 68.5505 328.38 68.0605 328.32 67.7205C328.26 67.3605 328.15 67.1205 327.99 67.0005C327.83 66.8605 327.61 66.7905 327.33 66.7905C327.03 66.7905 326.8 66.8605 326.64 67.0005C326.48 67.1205 326.37 67.3605 326.31 67.7205C326.25 68.0605 326.22 68.5505 326.22 69.1905C326.22 69.8105 326.25 70.3105 326.31 70.6905C326.39 71.0505 326.51 71.3105 326.67 71.4705C326.83 71.6105 327.05 71.6805 327.33 71.6805ZM339.972 73.5405V70.3005L344.502 65.6505C345.362 64.7705 346.102 64.0005 346.722 63.3405C347.342 62.6605 347.812 62.0205 348.132 61.4205C348.472 60.8205 348.642 60.1805 348.642 59.5005C348.642 58.5005 348.362 57.8305 347.802 57.4905C347.242 57.1305 346.342 56.9505 345.102 56.9505C344.602 56.9505 344.052 56.9805 343.452 57.0405C342.852 57.1005 342.272 57.1705 341.712 57.2505C341.172 57.3305 340.702 57.4105 340.302 57.4905L340.092 54.3105C340.532 54.1905 341.072 54.0605 341.712 53.9205C342.372 53.7805 343.082 53.6605 343.842 53.5605C344.622 53.4405 345.382 53.3805 346.122 53.3805C348.282 53.3805 349.932 53.8405 351.072 54.7605C352.212 55.6605 352.782 57.0605 352.782 58.9605C352.782 60.0005 352.632 60.9205 352.332 61.7205C352.052 62.5205 351.602 63.2905 350.982 64.0305C350.382 64.7505 349.582 65.5405 348.582 66.4005L344.622 70.1805H353.052V73.5405H339.972ZM362.372 73.8705C361.772 73.8705 361.102 73.8305 360.362 73.7505C359.642 73.6705 358.932 73.5805 358.232 73.4805C357.552 73.3605 356.962 73.2505 356.462 73.1505L356.792 70.0305C357.212 70.0905 357.732 70.1605 358.352 70.2405C358.992 70.3005 359.652 70.3505 360.332 70.3905C361.012 70.4305 361.652 70.4505 362.252 70.4505C363.672 70.4505 364.712 70.0405 365.372 69.2205C366.052 68.4005 366.412 67.1605 366.452 65.5005C366.032 65.6605 365.572 65.8105 365.072 65.9505C364.592 66.0905 364.112 66.2005 363.632 66.2805C363.172 66.3605 362.752 66.4005 362.372 66.4005C360.212 66.4005 358.572 65.8905 357.452 64.8705C356.352 63.8505 355.802 62.2505 355.802 60.0705C355.802 58.6305 356.092 57.4205 356.672 56.4405C357.272 55.4405 358.102 54.6905 359.162 54.1905C360.242 53.6705 361.502 53.4105 362.942 53.4105C364.682 53.4105 366.102 53.8205 367.202 54.6405C368.322 55.4405 369.142 56.6005 369.662 58.1205C370.182 59.6405 370.442 61.4705 370.442 63.6105C370.442 65.5905 370.242 67.2405 369.842 68.5605C369.462 69.8805 368.922 70.9305 368.222 71.7105C367.522 72.4905 366.672 73.0505 365.672 73.3905C364.692 73.7105 363.592 73.8705 362.372 73.8705ZM362.792 63.0705C363.212 63.0705 363.652 63.0305 364.112 62.9505C364.572 62.8505 365.012 62.7405 365.432 62.6205C365.852 62.4805 366.202 62.3605 366.482 62.2605C366.462 61.1605 366.342 60.2005 366.122 59.3805C365.902 58.5605 365.532 57.9205 365.012 57.4605C364.512 57.0005 363.822 56.7705 362.942 56.7705C361.902 56.7705 361.092 57.0705 360.512 57.6705C359.952 58.2705 359.672 59.0705 359.672 60.0705C359.672 61.1105 359.932 61.8705 360.452 62.3505C360.992 62.8305 361.772 63.0705 362.792 63.0705Z" fill="white"/>
<path d="M372.55 173.651L371.14 173.291L376.78 151.871L378.22 152.261L372.55 173.651ZM370.09 161.741C369.25 161.741 368.55 161.581 367.99 161.261C367.45 160.921 367.05 160.411 366.79 159.731C366.53 159.031 366.4 158.141 366.4 157.061C366.4 155.981 366.53 155.101 366.79 154.421C367.07 153.741 367.48 153.251 368.02 152.951C368.58 152.631 369.27 152.471 370.09 152.471C370.95 152.471 371.65 152.631 372.19 152.951C372.73 153.251 373.13 153.741 373.39 154.421C373.65 155.101 373.78 155.981 373.78 157.061C373.78 158.141 373.65 159.031 373.39 159.731C373.13 160.411 372.73 160.921 372.19 161.261C371.65 161.581 370.95 161.741 370.09 161.741ZM370.09 159.551C370.37 159.551 370.59 159.481 370.75 159.341C370.91 159.181 371.02 158.921 371.08 158.561C371.16 158.181 371.2 157.681 371.2 157.061C371.2 156.441 371.16 155.961 371.08 155.621C371.02 155.261 370.91 155.011 370.75 154.871C370.59 154.711 370.37 154.631 370.09 154.631C369.81 154.631 369.59 154.711 369.43 154.871C369.27 155.011 369.16 155.261 369.1 155.621C369.04 155.961 369.01 156.441 369.01 157.061C369.01 157.681 369.04 158.181 369.1 158.561C369.16 158.921 369.27 159.181 369.43 159.341C369.59 159.481 369.81 159.551 370.09 159.551ZM379.33 172.871C378.47 172.871 377.76 172.711 377.2 172.391C376.66 172.051 376.26 171.541 376 170.861C375.74 170.161 375.61 169.271 375.61 168.191C375.61 167.111 375.74 166.231 376 165.551C376.28 164.871 376.69 164.371 377.23 164.051C377.79 163.731 378.49 163.571 379.33 163.571C380.17 163.571 380.86 163.731 381.4 164.051C381.94 164.371 382.34 164.871 382.6 165.551C382.88 166.231 383.02 167.111 383.02 168.191C383.02 169.271 382.88 170.161 382.6 170.861C382.34 171.541 381.94 172.051 381.4 172.391C380.86 172.711 380.17 172.871 379.33 172.871ZM379.33 170.681C379.59 170.681 379.8 170.611 379.96 170.471C380.14 170.311 380.26 170.051 380.32 169.691C380.38 169.311 380.41 168.811 380.41 168.191C380.41 167.551 380.38 167.061 380.32 166.721C380.26 166.361 380.15 166.121 379.99 166.001C379.83 165.861 379.61 165.791 379.33 165.791C379.03 165.791 378.8 165.861 378.64 166.001C378.48 166.121 378.37 166.361 378.31 166.721C378.25 167.061 378.22 167.551 378.22 168.191C378.22 168.811 378.25 169.311 378.31 169.691C378.39 170.051 378.51 170.311 378.67 170.471C378.83 170.611 379.05 170.681 379.33 170.681ZM398.272 172.871L394.312 171.911L400.792 157.271V156.491H392.182V152.741H404.992V157.211L398.272 172.871ZM415.362 172.541V157.181L410.682 159.881L409.302 156.911L415.872 152.741H419.442V172.541H415.362Z" fill="white"/>
<path d="M604.55 73.6505L603.14 73.2905L608.78 51.8705L610.22 52.2605L604.55 73.6505ZM602.09 61.7405C601.25 61.7405 600.55 61.5805 599.99 61.2605C599.45 60.9205 599.05 60.4105 598.79 59.7305C598.53 59.0305 598.4 58.1405 598.4 57.0605C598.4 55.9805 598.53 55.1005 598.79 54.4205C599.07 53.7405 599.48 53.2505 600.02 52.9505C600.58 52.6305 601.27 52.4705 602.09 52.4705C602.95 52.4705 603.65 52.6305 604.19 52.9505C604.73 53.2505 605.13 53.7405 605.39 54.4205C605.65 55.1005 605.78 55.9805 605.78 57.0605C605.78 58.1405 605.65 59.0305 605.39 59.7305C605.13 60.4105 604.73 60.9205 604.19 61.2605C603.65 61.5805 602.95 61.7405 602.09 61.7405ZM602.09 59.5505C602.37 59.5505 602.59 59.4805 602.75 59.3405C602.91 59.1805 603.02 58.9205 603.08 58.5605C603.16 58.1805 603.2 57.6805 603.2 57.0605C603.2 56.4405 603.16 55.9605 603.08 55.6205C603.02 55.2605 602.91 55.0105 602.75 54.8705C602.59 54.7105 602.37 54.6305 602.09 54.6305C601.81 54.6305 601.59 54.7105 601.43 54.8705C601.27 55.0105 601.16 55.2605 601.1 55.6205C601.04 55.9605 601.01 56.4405 601.01 57.0605C601.01 57.6805 601.04 58.1805 601.1 58.5605C601.16 58.9205 601.27 59.1805 601.43 59.3405C601.59 59.4805 601.81 59.5505 602.09 59.5505ZM611.33 72.8705C610.47 72.8705 609.76 72.7105 609.2 72.3905C608.66 72.0505 608.26 71.5405 608 70.8605C607.74 70.1605 607.61 69.2705 607.61 68.1905C607.61 67.1105 607.74 66.2305 608 65.5505C608.28 64.8705 608.69 64.3705 609.23 64.0505C609.79 63.7305 610.49 63.5705 611.33 63.5705C612.17 63.5705 612.86 63.7305 613.4 64.0505C613.94 64.3705 614.34 64.8705 614.6 65.5505C614.88 66.2305 615.02 67.1105 615.02 68.1905C615.02 69.2705 614.88 70.1605 614.6 70.8605C614.34 71.5405 613.94 72.0505 613.4 72.3905C612.86 72.7105 612.17 72.8705 611.33 72.8705ZM611.33 70.6805C611.59 70.6805 611.8 70.6105 611.96 70.4705C612.14 70.3105 612.26 70.0505 612.32 69.6905C612.38 69.3105 612.41 68.8105 612.41 68.1905C612.41 67.5505 612.38 67.0605 612.32 66.7205C612.26 66.3605 612.15 66.1205 611.99 66.0005C611.83 65.8605 611.61 65.7905 611.33 65.7905C611.03 65.7905 610.8 65.8605 610.64 66.0005C610.48 66.1205 610.37 66.3605 610.31 66.7205C610.25 67.0605 610.22 67.5505 610.22 68.1905C610.22 68.8105 610.25 69.3105 610.31 69.6905C610.39 70.0505 610.51 70.3105 610.67 70.4705C610.83 70.6105 611.05 70.6805 611.33 70.6805ZM623.972 72.5405V69.3005L628.502 64.6505C629.362 63.7705 630.102 63.0005 630.722 62.3405C631.342 61.6605 631.812 61.0205 632.132 60.4205C632.472 59.8205 632.642 59.1805 632.642 58.5005C632.642 57.5005 632.362 56.8305 631.802 56.4905C631.242 56.1305 630.342 55.9505 629.102 55.9505C628.602 55.9505 628.052 55.9805 627.452 56.0405C626.852 56.1005 626.272 56.1705 625.712 56.2505C625.172 56.3305 624.702 56.4105 624.302 56.4905L624.092 53.3105C624.532 53.1905 625.072 53.0605 625.712 52.9205C626.372 52.7805 627.082 52.6605 627.842 52.5605C628.622 52.4405 629.382 52.3805 630.122 52.3805C632.282 52.3805 633.932 52.8405 635.072 53.7605C636.212 54.6605 636.782 56.0605 636.782 57.9605C636.782 59.0005 636.632 59.9205 636.332 60.7205C636.052 61.5205 635.602 62.2905 634.982 63.0305C634.382 63.7505 633.582 64.5405 632.582 65.4005L628.622 69.1805H637.052V72.5405H623.972ZM640.642 72.5405V69.3005L645.172 64.6505C646.032 63.7705 646.772 63.0005 647.392 62.3405C648.012 61.6605 648.482 61.0205 648.802 60.4205C649.142 59.8205 649.312 59.1805 649.312 58.5005C649.312 57.5005 649.032 56.8305 648.472 56.4905C647.912 56.1305 647.012 55.9505 645.772 55.9505C645.272 55.9505 644.722 55.9805 644.122 56.0405C643.522 56.1005 642.942 56.1705 642.382 56.2505C641.842 56.3305 641.372 56.4105 640.972 56.4905L640.762 53.3105C641.202 53.1905 641.742 53.0605 642.382 52.9205C643.042 52.7805 643.752 52.6605 644.512 52.5605C645.292 52.4405 646.052 52.3805 646.792 52.3805C648.952 52.3805 650.602 52.8405 651.742 53.7605C652.882 54.6605 653.452 56.0605 653.452 57.9605C653.452 59.0005 653.302 59.9205 653.002 60.7205C652.722 61.5205 652.272 62.2905 651.652 63.0305C651.052 63.7505 650.252 64.5405 649.252 65.4005L645.292 69.1805H653.722V72.5405H640.642Z" fill="white"/>
<path d="M655.55 173.651L654.14 173.291L659.78 151.871L661.22 152.261L655.55 173.651ZM653.09 161.741C652.25 161.741 651.55 161.581 650.99 161.261C650.45 160.921 650.05 160.411 649.79 159.731C649.53 159.031 649.4 158.141 649.4 157.061C649.4 155.981 649.53 155.101 649.79 154.421C650.07 153.741 650.48 153.251 651.02 152.951C651.58 152.631 652.27 152.471 653.09 152.471C653.95 152.471 654.65 152.631 655.19 152.951C655.73 153.251 656.13 153.741 656.39 154.421C656.65 155.101 656.78 155.981 656.78 157.061C656.78 158.141 656.65 159.031 656.39 159.731C656.13 160.411 655.73 160.921 655.19 161.261C654.65 161.581 653.95 161.741 653.09 161.741ZM653.09 159.551C653.37 159.551 653.59 159.481 653.75 159.341C653.91 159.181 654.02 158.921 654.08 158.561C654.16 158.181 654.2 157.681 654.2 157.061C654.2 156.441 654.16 155.961 654.08 155.621C654.02 155.261 653.91 155.011 653.75 154.871C653.59 154.711 653.37 154.631 653.09 154.631C652.81 154.631 652.59 154.711 652.43 154.871C652.27 155.011 652.16 155.261 652.1 155.621C652.04 155.961 652.01 156.441 652.01 157.061C652.01 157.681 652.04 158.181 652.1 158.561C652.16 158.921 652.27 159.181 652.43 159.341C652.59 159.481 652.81 159.551 653.09 159.551ZM662.33 172.871C661.47 172.871 660.76 172.711 660.2 172.391C659.66 172.051 659.26 171.541 659 170.861C658.74 170.161 658.61 169.271 658.61 168.191C658.61 167.111 658.74 166.231 659 165.551C659.28 164.871 659.69 164.371 660.23 164.051C660.79 163.731 661.49 163.571 662.33 163.571C663.17 163.571 663.86 163.731 664.4 164.051C664.94 164.371 665.34 164.871 665.6 165.551C665.88 166.231 666.02 167.111 666.02 168.191C666.02 169.271 665.88 170.161 665.6 170.861C665.34 171.541 664.94 172.051 664.4 172.391C663.86 172.711 663.17 172.871 662.33 172.871ZM662.33 170.681C662.59 170.681 662.8 170.611 662.96 170.471C663.14 170.311 663.26 170.051 663.32 169.691C663.38 169.311 663.41 168.811 663.41 168.191C663.41 167.551 663.38 167.061 663.32 166.721C663.26 166.361 663.15 166.121 662.99 166.001C662.83 165.861 662.61 165.791 662.33 165.791C662.03 165.791 661.8 165.861 661.64 166.001C661.48 166.121 661.37 166.361 661.31 166.721C661.25 167.061 661.22 167.551 661.22 168.191C661.22 168.811 661.25 169.311 661.31 169.691C661.39 170.051 661.51 170.311 661.67 170.471C661.83 170.611 662.05 170.681 662.33 170.681ZM681.272 172.871L677.312 171.911L683.792 157.271V156.491H675.182V152.741H687.992V157.211L681.272 172.871ZM698.152 172.871C697.152 172.871 696.192 172.781 695.272 172.601C694.352 172.441 693.542 172.161 692.842 171.761C692.142 171.341 691.592 170.781 691.192 170.081C690.792 169.361 690.592 168.471 690.592 167.411C690.592 166.411 690.712 165.611 690.952 165.011C691.212 164.411 691.572 163.901 692.032 163.481C692.492 163.061 693.042 162.661 693.682 162.281C693.042 161.921 692.512 161.541 692.092 161.141C691.692 160.741 691.392 160.261 691.192 159.701C691.012 159.121 690.922 158.421 690.922 157.601C690.922 156.381 691.222 155.391 691.822 154.631C692.442 153.871 693.292 153.311 694.372 152.951C695.472 152.591 696.732 152.411 698.152 152.411C699.572 152.411 700.832 152.581 701.932 152.921C703.052 153.261 703.922 153.821 704.542 154.601C705.182 155.361 705.502 156.371 705.502 157.631C705.502 158.471 705.402 159.181 705.202 159.761C705.022 160.321 704.722 160.801 704.302 161.201C703.882 161.581 703.322 161.951 702.622 162.311C703.322 162.631 703.902 163.001 704.362 163.421C704.842 163.821 705.202 164.321 705.442 164.921C705.682 165.521 705.802 166.291 705.802 167.231C705.802 168.311 705.602 169.221 705.202 169.961C704.802 170.681 704.242 171.261 703.522 171.701C702.822 172.121 702.012 172.421 701.092 172.601C700.172 172.781 699.192 172.871 698.152 172.871ZM698.152 169.601C698.852 169.601 699.462 169.521 699.982 169.361C700.522 169.181 700.932 168.891 701.212 168.491C701.512 168.071 701.662 167.501 701.662 166.781C701.662 166.221 701.552 165.761 701.332 165.401C701.132 165.021 700.842 164.711 700.462 164.471C700.102 164.231 699.702 164.041 699.262 163.901H697.012C696.312 164.121 695.752 164.471 695.332 164.951C694.932 165.411 694.732 166.051 694.732 166.871C694.732 167.531 694.872 168.061 695.152 168.461C695.452 168.861 695.862 169.151 696.382 169.331C696.902 169.511 697.492 169.601 698.152 169.601ZM697.012 160.871H699.262C699.922 160.611 700.442 160.271 700.822 159.851C701.202 159.431 701.392 158.881 701.392 158.201C701.392 157.301 701.112 156.651 700.552 156.251C700.012 155.851 699.222 155.651 698.182 155.651C697.162 155.651 696.382 155.851 695.842 156.251C695.302 156.651 695.032 157.291 695.032 158.171C695.032 158.871 695.202 159.431 695.542 159.851C695.882 160.271 696.372 160.611 697.012 160.871Z" fill="white"/>
<path d="M888.55 73.6505L887.14 73.2905L892.78 51.8705L894.22 52.2605L888.55 73.6505ZM886.09 61.7405C885.25 61.7405 884.55 61.5805 883.99 61.2605C883.45 60.9205 883.05 60.4105 882.79 59.7305C882.53 59.0305 882.4 58.1405 882.4 57.0605C882.4 55.9805 882.53 55.1005 882.79 54.4205C883.07 53.7405 883.48 53.2505 884.02 52.9505C884.58 52.6305 885.27 52.4705 886.09 52.4705C886.95 52.4705 887.65 52.6305 888.19 52.9505C888.73 53.2505 889.13 53.7405 889.39 54.4205C889.65 55.1005 889.78 55.9805 889.78 57.0605C889.78 58.1405 889.65 59.0305 889.39 59.7305C889.13 60.4105 888.73 60.9205 888.19 61.2605C887.65 61.5805 886.95 61.7405 886.09 61.7405ZM886.09 59.5505C886.37 59.5505 886.59 59.4805 886.75 59.3405C886.91 59.1805 887.02 58.9205 887.08 58.5605C887.16 58.1805 887.2 57.6805 887.2 57.0605C887.2 56.4405 887.16 55.9605 887.08 55.6205C887.02 55.2605 886.91 55.0105 886.75 54.8705C886.59 54.7105 886.37 54.6305 886.09 54.6305C885.81 54.6305 885.59 54.7105 885.43 54.8705C885.27 55.0105 885.16 55.2605 885.1 55.6205C885.04 55.9605 885.01 56.4405 885.01 57.0605C885.01 57.6805 885.04 58.1805 885.1 58.5605C885.16 58.9205 885.27 59.1805 885.43 59.3405C885.59 59.4805 885.81 59.5505 886.09 59.5505ZM895.33 72.8705C894.47 72.8705 893.76 72.7105 893.2 72.3905C892.66 72.0505 892.26 71.5405 892 70.8605C891.74 70.1605 891.61 69.2705 891.61 68.1905C891.61 67.1105 891.74 66.2305 892 65.5505C892.28 64.8705 892.69 64.3705 893.23 64.0505C893.79 63.7305 894.49 63.5705 895.33 63.5705C896.17 63.5705 896.86 63.7305 897.4 64.0505C897.94 64.3705 898.34 64.8705 898.6 65.5505C898.88 66.2305 899.02 67.1105 899.02 68.1905C899.02 69.2705 898.88 70.1605 898.6 70.8605C898.34 71.5405 897.94 72.0505 897.4 72.3905C896.86 72.7105 896.17 72.8705 895.33 72.8705ZM895.33 70.6805C895.59 70.6805 895.8 70.6105 895.96 70.4705C896.14 70.3105 896.26 70.0505 896.32 69.6905C896.38 69.3105 896.41 68.8105 896.41 68.1905C896.41 67.5505 896.38 67.0605 896.32 66.7205C896.26 66.3605 896.15 66.1205 895.99 66.0005C895.83 65.8605 895.61 65.7905 895.33 65.7905C895.03 65.7905 894.8 65.8605 894.64 66.0005C894.48 66.1205 894.37 66.3605 894.31 66.7205C894.25 67.0605 894.22 67.5505 894.22 68.1905C894.22 68.8105 894.25 69.3105 894.31 69.6905C894.39 70.0505 894.51 70.3105 894.67 70.4705C894.83 70.6105 895.05 70.6805 895.33 70.6805ZM914.692 72.5405V57.1805L910.012 59.8805L908.632 56.9105L915.202 52.7405H918.772V72.5405H914.692ZM930.372 72.8705C929.772 72.8705 929.102 72.8305 928.362 72.7505C927.642 72.6705 926.932 72.5805 926.232 72.4805C925.552 72.3605 924.962 72.2505 924.462 72.1505L924.792 69.0305C925.212 69.0905 925.732 69.1605 926.352 69.2405C926.992 69.3005 927.652 69.3505 928.332 69.3905C929.012 69.4305 929.652 69.4505 930.252 69.4505C931.672 69.4505 932.712 69.0405 933.372 68.2205C934.052 67.4005 934.412 66.1605 934.452 64.5005C934.032 64.6605 933.572 64.8105 933.072 64.9505C932.592 65.0905 932.112 65.2005 931.632 65.2805C931.172 65.3605 930.752 65.4005 930.372 65.4005C928.212 65.4005 926.572 64.8905 925.452 63.8705C924.352 62.8505 923.802 61.2505 923.802 59.0705C923.802 57.6305 924.092 56.4205 924.672 55.4405C925.272 54.4405 926.102 53.6905 927.162 53.1905C928.242 52.6705 929.502 52.4105 930.942 52.4105C932.682 52.4105 934.102 52.8205 935.202 53.6405C936.322 54.4405 937.142 55.6005 937.662 57.1205C938.182 58.6405 938.442 60.4705 938.442 62.6105C938.442 64.5905 938.242 66.2405 937.842 67.5605C937.462 68.8805 936.922 69.9305 936.222 70.7105C935.522 71.4905 934.672 72.0505 933.672 72.3905C932.692 72.7105 931.592 72.8705 930.372 72.8705ZM930.792 62.0705C931.212 62.0705 931.652 62.0305 932.112 61.9505C932.572 61.8505 933.012 61.7405 933.432 61.6205C933.852 61.4805 934.202 61.3605 934.482 61.2605C934.462 60.1605 934.342 59.2005 934.122 58.3805C933.902 57.5605 933.532 56.9205 933.012 56.4605C932.512 56.0005 931.822 55.7705 930.942 55.7705C929.902 55.7705 929.092 56.0705 928.512 56.6705C927.952 57.2705 927.672 58.0705 927.672 59.0705C927.672 60.1105 927.932 60.8705 928.452 61.3505C928.992 61.8305 929.772 62.0705 930.792 62.0705Z" fill="white"/>
<path d="M933.55 173.651L932.14 173.291L937.78 151.871L939.22 152.261L933.55 173.651ZM931.09 161.741C930.25 161.741 929.55 161.581 928.99 161.261C928.45 160.921 928.05 160.411 927.79 159.731C927.53 159.031 927.4 158.141 927.4 157.061C927.4 155.981 927.53 155.101 927.79 154.421C928.07 153.741 928.48 153.251 929.02 152.951C929.58 152.631 930.27 152.471 931.09 152.471C931.95 152.471 932.65 152.631 933.19 152.951C933.73 153.251 934.13 153.741 934.39 154.421C934.65 155.101 934.78 155.981 934.78 157.061C934.78 158.141 934.65 159.031 934.39 159.731C934.13 160.411 933.73 160.921 933.19 161.261C932.65 161.581 931.95 161.741 931.09 161.741ZM931.09 159.551C931.37 159.551 931.59 159.481 931.75 159.341C931.91 159.181 932.02 158.921 932.08 158.561C932.16 158.181 932.2 157.681 932.2 157.061C932.2 156.441 932.16 155.961 932.08 155.621C932.02 155.261 931.91 155.011 931.75 154.871C931.59 154.711 931.37 154.631 931.09 154.631C930.81 154.631 930.59 154.711 930.43 154.871C930.27 155.011 930.16 155.261 930.1 155.621C930.04 155.961 930.01 156.441 930.01 157.061C930.01 157.681 930.04 158.181 930.1 158.561C930.16 158.921 930.27 159.181 930.43 159.341C930.59 159.481 930.81 159.551 931.09 159.551ZM940.33 172.871C939.47 172.871 938.76 172.711 938.2 172.391C937.66 172.051 937.26 171.541 937 170.861C936.74 170.161 936.61 169.271 936.61 168.191C936.61 167.111 936.74 166.231 937 165.551C937.28 164.871 937.69 164.371 938.23 164.051C938.79 163.731 939.49 163.571 940.33 163.571C941.17 163.571 941.86 163.731 942.4 164.051C942.94 164.371 943.34 164.871 943.6 165.551C943.88 166.231 944.02 167.111 944.02 168.191C944.02 169.271 943.88 170.161 943.6 170.861C943.34 171.541 942.94 172.051 942.4 172.391C941.86 172.711 941.17 172.871 940.33 172.871ZM940.33 170.681C940.59 170.681 940.8 170.611 940.96 170.471C941.14 170.311 941.26 170.051 941.32 169.691C941.38 169.311 941.41 168.811 941.41 168.191C941.41 167.551 941.38 167.061 941.32 166.721C941.26 166.361 941.15 166.121 940.99 166.001C940.83 165.861 940.61 165.791 940.33 165.791C940.03 165.791 939.8 165.861 939.64 166.001C939.48 166.121 939.37 166.361 939.31 166.721C939.25 167.061 939.22 167.551 939.22 168.191C939.22 168.811 939.25 169.311 939.31 169.691C939.39 170.051 939.51 170.311 939.67 170.471C939.83 170.611 940.05 170.681 940.33 170.681ZM959.482 172.871C958.482 172.871 957.522 172.781 956.602 172.601C955.682 172.441 954.872 172.161 954.172 171.761C953.472 171.341 952.922 170.781 952.522 170.081C952.122 169.361 951.922 168.471 951.922 167.411C951.922 166.411 952.042 165.611 952.282 165.011C952.542 164.411 952.902 163.901 953.362 163.481C953.822 163.061 954.372 162.661 955.012 162.281C954.372 161.921 953.842 161.541 953.422 161.141C953.022 160.741 952.722 160.261 952.522 159.701C952.342 159.121 952.252 158.421 952.252 157.601C952.252 156.381 952.552 155.391 953.152 154.631C953.772 153.871 954.622 153.311 955.702 152.951C956.802 152.591 958.062 152.411 959.482 152.411C960.902 152.411 962.162 152.581 963.262 152.921C964.382 153.261 965.252 153.821 965.872 154.601C966.512 155.361 966.832 156.371 966.832 157.631C966.832 158.471 966.732 159.181 966.532 159.761C966.352 160.321 966.052 160.801 965.632 161.201C965.212 161.581 964.652 161.951 963.952 162.311C964.652 162.631 965.232 163.001 965.692 163.421C966.172 163.821 966.532 164.321 966.772 164.921C967.012 165.521 967.132 166.291 967.132 167.231C967.132 168.311 966.932 169.221 966.532 169.961C966.132 170.681 965.572 171.261 964.852 171.701C964.152 172.121 963.342 172.421 962.422 172.601C961.502 172.781 960.522 172.871 959.482 172.871ZM959.482 169.601C960.182 169.601 960.792 169.521 961.312 169.361C961.852 169.181 962.262 168.891 962.542 168.491C962.842 168.071 962.992 167.501 962.992 166.781C962.992 166.221 962.882 165.761 962.662 165.401C962.462 165.021 962.172 164.711 961.792 164.471C961.432 164.231 961.032 164.041 960.592 163.901H958.342C957.642 164.121 957.082 164.471 956.662 164.951C956.262 165.411 956.062 166.051 956.062 166.871C956.062 167.531 956.202 168.061 956.482 168.461C956.782 168.861 957.192 169.151 957.712 169.331C958.232 169.511 958.822 169.601 959.482 169.601ZM958.342 160.871H960.592C961.252 160.611 961.772 160.271 962.152 159.851C962.532 159.431 962.722 158.881 962.722 158.201C962.722 157.301 962.442 156.651 961.882 156.251C961.342 155.851 960.552 155.651 959.512 155.651C958.492 155.651 957.712 155.851 957.172 156.251C956.632 156.651 956.362 157.291 956.362 158.171C956.362 158.871 956.532 159.431 956.872 159.851C957.212 160.271 957.702 160.611 958.342 160.871ZM976.362 172.541V157.181L971.682 159.881L970.302 156.911L976.872 152.741H980.442V172.541H976.362Z" fill="white"/>
</svg>
