<svg width="384" height="286" viewBox="0 0 384 286" fill="none" xmlns="http://www.w3.org/2000/svg">
<g clip-path="url(#clip0_107_220)">
<path d="M334.121 77.4196C334.014 77.7263 337.232 87.6264 340.731 98.1958C330.435 90.708 318.496 84.0289 305.221 78.3538C274.385 65.1909 236.444 57.3963 195.379 57.3823V107.482C217.668 107.482 238.274 111.721 255.007 118.861C272.128 126.181 285.202 136.555 291.88 148.631L373.103 133.153V99.9109C373.103 99.9109 334.348 76.7363 334.107 77.4056L334.121 77.4196Z" fill="#9C7845"/>
<path d="M373.103 99.9388C373.103 99.9388 334.348 76.7642 334.107 77.4335C334 77.7402 337.219 87.6403 340.718 98.2097C330.421 90.7219 318.482 84.0428 305.208 78.3677C300.908 76.5411 296.447 74.826 291.88 73.2085V148.658L373.103 133.181V99.9388Z" fill="#9C7845"/>
<path d="M305.208 45.1258C274.372 31.9489 236.444 24.1543 195.379 24.1543V74.2544C217.668 74.2544 238.274 78.4933 255.007 85.6325C272.128 92.953 285.202 103.327 291.88 115.403L373.103 99.9249C360.803 77.6845 336.738 58.5815 305.208 45.1118V45.1258Z" fill="#D7A868"/>
<path d="M383.973 135.509L293.629 118.777V164.582L298.196 165.265C298.45 166.967 298.597 168.668 298.597 170.411C298.597 176.839 296.847 183.03 293.629 188.817C291.372 192.888 288.327 196.751 284.721 200.39L270.458 185.331C270.098 185.902 256.743 185.331 256.743 185.331V218.573L306.917 259.107C338.46 245.638 362.525 226.548 374.838 204.322C380.755 193.641 383.986 182.263 383.986 170.411L383.96 135.495L383.973 135.509Z" fill="#82888E"/>
<path d="M306.917 197.559L296.18 183.155C295.472 185.08 294.644 186.976 293.616 188.83C291.359 192.902 288.314 196.764 284.708 200.404L270.445 185.344C270.085 185.916 256.73 185.344 256.73 185.344V218.586L306.903 259.121V197.573L306.917 197.559Z" fill="#82888E"/>
<path d="M374.852 103.299L293.629 118.777C296.834 124.564 298.583 130.755 298.583 137.169C298.583 143.583 296.834 149.788 293.616 155.589C286.925 167.664 273.851 178.024 256.73 185.345L306.903 225.879C338.447 212.41 362.512 193.32 374.825 171.094C380.741 160.413 383.973 149.035 383.973 137.183C383.973 125.331 380.741 113.98 374.839 103.313L374.852 103.299Z" fill="#B3BEC9"/>
<path d="M187.914 63.1834C146.861 62.765 108.854 70.1553 77.898 83.0114C54.4338 92.7442 35.0696 105.614 21.5146 120.618L0.334087 135.872L0.00022083 170.899C-0.106616 182.724 3.00502 194.144 8.8143 204.866C20.9003 227.232 44.7784 246.586 76.1886 260.377C106.891 273.874 144.751 282.059 185.804 282.477L186.298 232.377C164.009 232.14 143.443 227.692 126.776 220.372C109.722 212.884 96.7548 202.356 90.1976 190.225C87.0459 184.383 85.3499 178.206 85.4033 171.778C85.4701 165.35 87.2729 159.186 90.5448 153.428C97.3424 141.422 110.51 131.187 127.698 124.048C144.511 117.062 165.144 113.046 187.446 113.283L187.94 63.1834H187.914Z" fill="#004585"/>
<path d="M187.914 63.1834C146.861 62.765 108.854 70.1553 77.8978 83.0114C71.5277 85.6468 65.4914 88.5471 59.7622 91.6287C62.8071 104.875 66.493 117.996 70.0587 131.187C71.7948 137.601 76.3086 171.373 84.041 171.401C84.495 171.401 84.9625 171.387 85.4165 171.401C85.5501 165.113 87.3262 159.089 90.5314 153.442C97.3289 141.436 110.497 131.201 127.684 124.062C144.498 117.076 165.131 113.06 187.433 113.297L187.927 63.1973H187.9L187.914 63.1834Z" fill="#004585"/>
<path d="M188.221 29.9412C147.169 29.5229 109.161 36.8992 78.2051 49.7553C46.5545 62.9043 22.3025 81.7563 9.7758 103.857C3.7662 114.468 0.427531 125.819 0.307339 137.657C0.200502 149.481 3.32549 160.901 9.12142 171.638C21.2074 193.99 45.0855 213.344 76.4957 227.148C107.198 240.646 145.059 248.817 186.111 249.249L186.605 199.149C164.303 198.926 143.75 194.478 127.07 187.144C110.016 179.656 97.0485 169.128 90.4914 156.997C87.3397 151.155 85.6436 144.978 85.7104 138.549C85.7638 132.121 87.5801 125.958 90.852 120.199C97.6495 108.194 110.817 97.959 128.005 90.8198C144.818 83.834 165.451 79.8182 187.753 80.0413L188.248 29.9412H188.221Z" fill="#1C639C"/>
<path d="M255.889 228.696L249.666 223.662C246.086 225.196 242.307 226.548 238.408 227.803L236.725 227.72L237.379 228.138C223.237 232.53 207.144 235.054 190.024 235.054H190.01V285.154H190.024C231.076 285.154 269.016 277.36 299.839 264.197V230.955L255.875 228.696H255.889Z" fill="#748791"/>
<path d="M190.024 201.798H190.01V251.898H190.024C231.076 251.898 269.016 244.104 299.839 230.941L249.652 190.406C232.905 197.545 212.313 201.784 190.024 201.784V201.798Z" fill="#B3C9DD"/>
</g>
<path d="M32.6453 33.1543V19.2793L28.5203 21.9293L27.5203 20.1543L32.8453 16.6543H35.0203V33.1543H32.6453ZM46.6102 33.1543V19.2793L42.4852 21.9293L41.4852 20.1543L46.8102 16.6543H48.9852V33.1543H46.6102Z" fill="#333333"/>
<path d="M17.0607 1.09364C16.4749 0.50785 15.5251 0.50785 14.9393 1.09364L5.3934 10.6396C4.80761 11.2254 4.80761 12.1751 5.3934 12.7609C5.97918 13.3467 6.92893 13.3467 7.51472 12.7609L16 4.27562L24.4853 12.7609C25.0711 13.3467 26.0208 13.3467 26.6066 12.7609C27.1924 12.1751 27.1924 11.2254 26.6066 10.6396L17.0607 1.09364ZM14.5 2.1543L14.5 35.4082L17.5 35.4082L17.5 2.1543L14.5 2.1543Z" fill="#16A851"/>
<defs>
<clipPath id="clip0_107_220">
<rect width="384" height="261" fill="white" transform="translate(0 24.1543)"/>
</clipPath>
</defs>
</svg>
