<svg width="1060" height="358" viewBox="0 0 1060 358" fill="none" xmlns="http://www.w3.org/2000/svg">
<path d="M404.335 98.6067L334.318 166.152C296.967 127.525 298.057 65.9812 336.731 28.675C355.291 10.7634 378.537 1.37891 404.358 1.37891V98.6067H404.335Z" fill="#005491"/>
<path d="M411.688 100.576V3.37177C465.442 3.37177 509.034 46.8879 509.034 100.576C509.034 154.265 465.465 197.804 411.688 197.804C383.733 197.804 361.09 188.211 341.672 168.121L411.688 100.576Z" fill="#062E4A"/>
<path d="M680.747 98.9882L650.546 191.807C599.226 175.155 571.121 120.082 587.816 68.824C601.159 27.822 637.577 1.37891 680.747 1.37891V98.9882Z" fill="#005491"/>
<path d="M688.664 98.9882V1.37891C742.639 1.37891 786.392 45.0787 786.392 98.9882C786.392 152.898 742.639 196.597 688.664 196.597C677.859 196.597 668.732 195.156 658.463 191.83L688.664 99.0114V98.9882Z" fill="#062E4A"/>
<path d="M950.97 99.25L964.614 196.163C911.022 203.677 861.487 166.404 853.964 112.877C846.442 59.3504 883.759 9.87481 937.351 2.3614C941.629 1.74756 946.668 1.40381 950.995 1.40381V99.25H950.97Z" fill="#005491"/>
<path d="M961.419 99.2497V1.37891C1015.53 1.37891 1059.38 45.1826 1059.38 99.2252C1059.38 148.946 1024.35 189.214 975.038 196.138L961.394 99.2252L961.419 99.2497Z" fill="#062E4A"/>
<path d="M97.147 97.4782L13.8945 147.452C-13.7406 101.504 1.13092 41.905 47.1121 14.3034C62.748 4.91012 78.9167 0.444824 97.147 0.444824V97.4782Z" fill="#005491"/>
<path d="M104.513 101.411V4.37799C158.162 4.37799 201.664 47.8278 201.664 101.411C201.664 154.995 158.162 198.445 104.513 198.445C69.0948 198.445 39.4676 181.694 21.2373 151.386L104.513 101.411Z" fill="#062E4A"/>
<path d="M404.299 349.445L404.299 342.417H406.161L406.161 348.731L405.069 347.821H407.911L407.911 349.445H404.299ZM401.345 345.441L401.345 343.803H404.299L404.299 345.441H401.345ZM397.313 352.917C396.501 352.917 395.773 352.767 395.129 352.469C394.495 352.179 393.995 351.773 393.631 351.251C393.267 350.728 393.085 350.135 393.085 349.473C393.085 349.286 393.099 349.039 393.127 348.731C393.155 348.423 393.193 348.077 393.239 347.695C393.295 347.312 393.351 346.925 393.407 346.533C393.473 346.131 393.533 345.744 393.589 345.371L395.437 345.623C395.335 346.248 395.246 346.822 395.171 347.345C395.106 347.858 395.055 348.297 395.017 348.661C394.98 349.025 394.961 349.291 394.961 349.459C394.961 349.832 395.055 350.154 395.241 350.425C395.428 350.695 395.694 350.905 396.039 351.055C396.394 351.213 396.819 351.293 397.313 351.293C397.827 351.293 398.242 351.218 398.559 351.069C398.877 350.919 399.105 350.714 399.245 350.453C399.395 350.191 399.469 349.897 399.469 349.571L399.469 342.417H401.345L401.345 349.571C401.345 350.243 401.168 350.831 400.813 351.335C400.468 351.839 399.992 352.226 399.385 352.497C398.779 352.777 398.088 352.917 397.313 352.917ZM396.291 341.913L396.291 340.317H398.167L398.167 341.913H396.291ZM407.911 349.445L407.911 347.821C407.958 347.821 408 347.839 408.037 347.877C408.075 347.914 408.103 347.97 408.121 348.045C408.14 348.119 408.154 348.208 408.163 348.311C408.182 348.404 408.191 348.511 408.191 348.633C408.191 348.754 408.182 348.866 408.163 348.969C408.154 349.071 408.14 349.16 408.121 349.235C408.103 349.3 408.075 349.351 408.037 349.389C408 349.426 407.958 349.445 407.911 349.445ZM403.067 352.427L403.067 350.831H404.873L404.873 352.427H403.067ZM405.615 352.427L405.615 350.831H407.421L407.421 352.427H405.615ZM407.906 349.445L407.906 347.821H411.224L410.132 348.731L410.132 342.417H411.994L411.994 349.445H407.906ZM407.906 349.445C407.85 349.445 407.808 349.426 407.78 349.389C407.743 349.351 407.715 349.3 407.696 349.235C407.668 349.16 407.65 349.071 407.64 348.969C407.631 348.866 407.626 348.754 407.626 348.633C407.626 348.465 407.636 348.325 407.654 348.213C407.673 348.091 407.706 347.998 407.752 347.933C407.79 347.858 407.841 347.821 407.906 347.821L407.906 349.445ZM408.41 352.427L408.41 350.831H410.216L410.216 352.427H408.41ZM410.958 352.427L410.958 350.831H412.764L412.764 352.427H410.958ZM413.58 349.445L413.58 347.821H418.662L417.388 348.927L417.388 346.575C417.388 345.912 417.318 345.399 417.178 345.035C417.047 344.671 416.823 344.414 416.506 344.265C416.198 344.115 415.773 344.041 415.232 344.041H414.098L414.098 342.417H415.232C416.09 342.417 416.818 342.557 417.416 342.837C418.022 343.117 418.48 343.565 418.788 344.181C419.105 344.787 419.264 345.585 419.264 346.575L419.264 349.445H413.58ZM427.161 349.445L427.161 347.821H428.631L428.631 349.445H427.161ZM423.381 352.917C423.036 352.917 422.672 352.889 422.289 352.833C421.916 352.786 421.514 352.721 421.085 352.637L421.365 351.139C421.832 351.195 422.228 351.237 422.555 351.265C422.882 351.293 423.157 351.307 423.381 351.307C424.053 351.307 424.538 351.185 424.837 350.943C425.136 350.7 425.285 350.336 425.285 349.851L425.285 343.705L425.747 344.041H423.997C423.614 344.041 423.306 344.087 423.073 344.181C422.84 344.265 422.667 344.447 422.555 344.727C422.452 344.997 422.401 345.413 422.401 345.973C422.401 346.505 422.448 346.906 422.541 347.177C422.644 347.438 422.812 347.611 423.045 347.695C423.278 347.779 423.596 347.821 423.997 347.821H425.285L425.285 349.445H423.997C423.204 349.445 422.55 349.319 422.037 349.067C421.524 348.815 421.141 348.432 420.889 347.919C420.646 347.405 420.525 346.757 420.525 345.973C420.525 345.189 420.646 344.535 420.889 344.013C421.141 343.481 421.524 343.084 422.037 342.823C422.55 342.552 423.204 342.417 423.997 342.417H427.161L427.161 349.851C427.161 350.485 427.002 351.031 426.685 351.489C426.377 351.955 425.938 352.31 425.369 352.553C424.809 352.795 424.146 352.917 423.381 352.917ZM428.631 349.445L428.631 347.821C428.687 347.821 428.729 347.839 428.757 347.877C428.794 347.914 428.822 347.97 428.841 348.045C428.869 348.119 428.888 348.208 428.897 348.311C428.906 348.404 428.911 348.511 428.911 348.633C428.911 348.754 428.906 348.866 428.897 348.969C428.888 349.071 428.869 349.16 428.841 349.235C428.822 349.3 428.794 349.351 428.757 349.389C428.729 349.426 428.687 349.445 428.631 349.445ZM428.633 349.445L428.633 347.821H431.601C432.002 347.821 432.389 347.746 432.763 347.597C433.136 347.438 433.477 347.233 433.785 346.981C434.102 346.719 434.377 346.435 434.611 346.127C434.853 345.809 435.04 345.487 435.171 345.161C435.311 344.834 435.381 344.526 435.381 344.237L435.381 343.341L436.277 344.825C435.791 344.563 435.297 344.367 434.793 344.237C434.289 344.106 433.808 344.041 433.351 344.041C432.903 344.041 432.422 344.106 431.909 344.237C431.405 344.367 430.915 344.563 430.439 344.825L431.335 343.341L431.335 344.237C431.335 344.526 431.4 344.834 431.531 345.161C431.671 345.487 431.857 345.809 432.091 346.127C432.324 346.435 432.599 346.719 432.917 346.981C433.234 347.233 433.579 347.438 433.953 347.597C434.326 347.746 434.709 347.821 435.101 347.821H437.985L437.985 349.445H435.689C434.961 349.445 434.279 349.328 433.645 349.095C433.01 348.861 432.436 348.553 431.923 348.171C431.409 347.779 430.966 347.354 430.593 346.897C430.229 346.43 429.949 345.968 429.753 345.511C429.557 345.044 429.459 344.619 429.459 344.237L429.459 343.439C429.86 343.215 430.285 343.028 430.733 342.879C431.19 342.729 431.643 342.617 432.091 342.543C432.548 342.459 432.968 342.417 433.351 342.417C433.743 342.417 434.163 342.459 434.611 342.543C435.059 342.617 435.507 342.729 435.955 342.879C436.412 343.028 436.841 343.215 437.243 343.439L437.243 344.237C437.243 344.619 437.145 345.044 436.949 345.511C436.753 345.968 436.468 346.43 436.095 346.897C435.731 347.354 435.292 347.779 434.779 348.171C434.265 348.553 433.691 348.861 433.057 349.095C432.422 349.328 431.741 349.445 431.013 349.445H428.633ZM428.633 349.445C428.577 349.445 428.535 349.426 428.507 349.389C428.469 349.351 428.441 349.3 428.423 349.235C428.395 349.16 428.376 349.071 428.367 348.969C428.357 348.866 428.353 348.754 428.353 348.633C428.353 348.465 428.362 348.325 428.381 348.213C428.399 348.091 428.432 347.998 428.479 347.933C428.516 347.858 428.567 347.821 428.633 347.821L428.633 349.445ZM437.985 349.445L437.985 347.821C438.041 347.821 438.087 347.839 438.125 347.877C438.162 347.914 438.19 347.97 438.209 348.045C438.227 348.119 438.241 348.208 438.251 348.311C438.26 348.404 438.265 348.511 438.265 348.633C438.265 348.754 438.26 348.866 438.251 348.969C438.241 349.071 438.227 349.16 438.209 349.235C438.19 349.3 438.162 349.351 438.125 349.389C438.087 349.426 438.041 349.445 437.985 349.445ZM446.216 349.445C445.834 349.445 445.451 349.375 445.068 349.235C444.695 349.085 444.35 348.866 444.032 348.577L445.18 347.387C445.367 347.536 445.54 347.648 445.698 347.723C445.866 347.788 446.039 347.821 446.216 347.821H448.834L447.868 348.703L447.868 345.595C447.868 345.445 447.85 345.221 447.812 344.923C447.784 344.615 447.738 344.269 447.672 343.887C447.616 343.495 447.546 343.098 447.462 342.697L449.31 342.417C449.376 342.753 449.436 343.131 449.492 343.551C449.558 343.961 449.614 344.353 449.66 344.727C449.707 345.091 449.73 345.38 449.73 345.595L449.73 349.445H446.216ZM437.984 349.445L437.984 347.821H440.028L439.608 348.255L439.608 343.845H441.484L441.484 349.445H437.984ZM441.484 349.445L441.484 347.821H442.618C442.917 347.821 443.146 347.779 443.304 347.695C443.463 347.601 443.57 347.419 443.626 347.149C443.692 346.869 443.724 346.453 443.724 345.903L443.724 343.145H445.6L445.6 345.903C445.6 346.733 445.493 347.41 445.278 347.933C445.073 348.455 444.751 348.838 444.312 349.081C443.874 349.323 443.309 349.445 442.618 349.445H441.484ZM437.984 349.445C437.928 349.445 437.886 349.426 437.858 349.389C437.821 349.351 437.793 349.3 437.774 349.235C437.746 349.16 437.728 349.071 437.718 348.969C437.709 348.866 437.704 348.754 437.704 348.633C437.704 348.465 437.714 348.325 437.732 348.213C437.751 348.091 437.784 347.998 437.83 347.933C437.868 347.858 437.919 347.821 437.984 347.821L437.984 349.445ZM460.286 349.445L460.286 342.417H462.162L462.162 348.731L461.07 347.821H463.912L463.912 349.445H460.286ZM457.346 345.441L457.346 343.803H460.286L460.286 345.441H457.346ZM454.294 352.917C454.172 352.917 454.042 352.912 453.902 352.903C453.762 352.893 453.617 352.879 453.468 352.861L453.538 351.265C453.687 351.274 453.827 351.283 453.958 351.293C454.098 351.302 454.2 351.307 454.266 351.307C454.63 351.307 454.919 351.162 455.134 350.873C455.358 350.583 455.47 350.177 455.47 349.655L455.47 342.417H457.346L457.346 349.655C457.346 350.289 457.215 350.854 456.954 351.349C456.702 351.843 456.347 352.226 455.89 352.497C455.432 352.777 454.9 352.917 454.294 352.917ZM463.912 349.445L463.912 347.821C463.958 347.821 464 347.839 464.038 347.877C464.075 347.914 464.103 347.97 464.122 348.045C464.14 348.119 464.154 348.208 464.164 348.311C464.182 348.404 464.192 348.511 464.192 348.633C464.192 348.754 464.182 348.866 464.164 348.969C464.154 349.071 464.14 349.16 464.122 349.235C464.103 349.3 464.075 349.351 464.038 349.389C464 349.426 463.958 349.445 463.912 349.445ZM459.068 352.427L459.068 350.831H460.874L460.874 352.427H459.068ZM461.616 352.427L461.616 350.831H463.422L463.422 352.427H461.616ZM466.538 349.221C466.062 348.773 465.703 348.297 465.46 347.793C465.227 347.289 465.11 346.752 465.11 346.183C465.11 345.632 465.213 345.128 465.418 344.671C465.624 344.204 465.904 343.803 466.258 343.467C466.613 343.131 467.024 342.874 467.49 342.697C467.966 342.51 468.466 342.417 468.988 342.417C469.268 342.417 469.562 342.445 469.87 342.501C470.178 342.557 470.472 342.631 470.752 342.725L470.192 344.251C469.996 344.185 469.8 344.134 469.604 344.097C469.418 344.059 469.236 344.041 469.058 344.041C468.648 344.041 468.284 344.134 467.966 344.321C467.649 344.498 467.402 344.745 467.224 345.063C467.056 345.38 466.972 345.744 466.972 346.155C466.972 346.528 467.047 346.878 467.196 347.205C467.355 347.531 467.579 347.825 467.868 348.087L466.538 349.221ZM463.906 349.445L463.906 347.821H470.878L470.878 349.445H463.906ZM463.906 349.445C463.85 349.445 463.808 349.426 463.78 349.389C463.743 349.351 463.715 349.3 463.696 349.235C463.668 349.16 463.65 349.071 463.64 348.969C463.631 348.866 463.626 348.754 463.626 348.633C463.626 348.465 463.636 348.325 463.654 348.213C463.673 348.091 463.706 347.998 463.752 347.933C463.79 347.858 463.841 347.821 463.906 347.821L463.906 349.445ZM467.322 341.129L467.322 339.533H469.198L469.198 341.129H467.322Z" fill="#333333"/>
<rect x="482" y="334.445" width="20" height="20" fill="#005491"/>
<path d="M585.524 352.917C584.712 352.917 583.984 352.767 583.34 352.469C582.706 352.179 582.206 351.773 581.842 351.251C581.478 350.728 581.296 350.135 581.296 349.473C581.296 349.286 581.31 349.039 581.338 348.731C581.366 348.423 581.404 348.077 581.45 347.695C581.506 347.312 581.562 346.925 581.618 346.533C581.684 346.131 581.744 345.744 581.8 345.371L583.648 345.623C583.546 346.248 583.457 346.822 583.382 347.345C583.317 347.858 583.266 348.297 583.228 348.661C583.191 349.025 583.172 349.291 583.172 349.459C583.172 349.832 583.266 350.154 583.452 350.425C583.639 350.695 583.905 350.905 584.25 351.055C584.605 351.213 585.03 351.293 585.524 351.293C586.038 351.293 586.453 351.218 586.77 351.069C587.088 350.919 587.316 350.714 587.456 350.453C587.606 350.191 587.68 349.897 587.68 349.571L587.68 342.417H589.556L589.556 349.571C589.556 350.243 589.379 350.831 589.024 351.335C588.679 351.839 588.203 352.226 587.596 352.497C586.99 352.777 586.299 352.917 585.524 352.917ZM584.502 341.913L584.502 340.317H586.378L586.378 341.913H584.502ZM597.721 349.445L597.721 347.821H599.191L599.191 349.445H597.721ZM593.941 352.917C593.596 352.917 593.232 352.889 592.849 352.833C592.476 352.786 592.075 352.721 591.645 352.637L591.925 351.139C592.392 351.195 592.789 351.237 593.115 351.265C593.442 351.293 593.717 351.307 593.941 351.307C594.613 351.307 595.099 351.185 595.397 350.943C595.696 350.7 595.845 350.336 595.845 349.851L595.845 343.705L596.307 344.041H594.557C594.175 344.041 593.867 344.087 593.633 344.181C593.4 344.265 593.227 344.447 593.115 344.727C593.013 344.997 592.961 345.413 592.961 345.973C592.961 346.505 593.008 346.906 593.101 347.177C593.204 347.438 593.372 347.611 593.605 347.695C593.839 347.779 594.156 347.821 594.557 347.821H595.845L595.845 349.445H594.557C593.764 349.445 593.111 349.319 592.597 349.067C592.084 348.815 591.701 348.432 591.449 347.919C591.207 347.405 591.085 346.757 591.085 345.973C591.085 345.189 591.207 344.535 591.449 344.013C591.701 343.481 592.084 343.084 592.597 342.823C593.111 342.552 593.764 342.417 594.557 342.417H597.721L597.721 349.851C597.721 350.485 597.563 351.031 597.245 351.489C596.937 351.955 596.499 352.31 595.929 352.553C595.369 352.795 594.707 352.917 593.941 352.917ZM599.191 349.445L599.191 347.821C599.247 347.821 599.289 347.839 599.317 347.877C599.355 347.914 599.383 347.97 599.401 348.045C599.429 348.119 599.448 348.208 599.457 348.311C599.467 348.404 599.471 348.511 599.471 348.633C599.471 348.754 599.467 348.866 599.457 348.969C599.448 349.071 599.429 349.16 599.401 349.235C599.383 349.3 599.355 349.351 599.317 349.389C599.289 349.426 599.247 349.445 599.191 349.445ZM599.193 349.445L599.193 347.821H602.511L601.419 348.731L601.419 342.417H603.281L603.281 349.445H599.193ZM599.193 349.445C599.137 349.445 599.095 349.426 599.067 349.389C599.03 349.351 599.002 349.3 598.983 349.235C598.955 349.16 598.937 349.071 598.927 348.969C598.918 348.866 598.913 348.754 598.913 348.633C598.913 348.465 598.923 348.325 598.941 348.213C598.96 348.091 598.993 347.998 599.039 347.933C599.077 347.858 599.128 347.821 599.193 347.821L599.193 349.445ZM599.697 352.427L599.697 350.831H601.503L601.503 352.427H599.697ZM602.245 352.427L602.245 350.831H604.051L604.051 352.427H602.245ZM604.867 349.445L604.867 347.821H609.949L608.675 348.927L608.675 346.575C608.675 345.912 608.605 345.399 608.465 345.035C608.334 344.671 608.11 344.414 607.793 344.265C607.485 344.115 607.06 344.041 606.519 344.041H605.385L605.385 342.417H606.519C607.377 342.417 608.105 342.557 608.703 342.837C609.309 343.117 609.767 343.565 610.075 344.181C610.392 344.787 610.551 345.585 610.551 346.575L610.551 349.445H604.867ZM618.448 349.445L618.448 347.821H619.918L619.918 349.445H618.448ZM614.668 352.917C614.323 352.917 613.959 352.889 613.576 352.833C613.203 352.786 612.801 352.721 612.372 352.637L612.652 351.139C613.119 351.195 613.515 351.237 613.842 351.265C614.169 351.293 614.444 351.307 614.668 351.307C615.34 351.307 615.825 351.185 616.124 350.943C616.423 350.7 616.572 350.336 616.572 349.851L616.572 343.705L617.034 344.041H615.284C614.901 344.041 614.593 344.087 614.36 344.181C614.127 344.265 613.954 344.447 613.842 344.727C613.739 344.997 613.688 345.413 613.688 345.973C613.688 346.505 613.735 346.906 613.828 347.177C613.931 347.438 614.099 347.611 614.332 347.695C614.565 347.779 614.883 347.821 615.284 347.821H616.572L616.572 349.445H615.284C614.491 349.445 613.837 349.319 613.324 349.067C612.811 348.815 612.428 348.432 612.176 347.919C611.933 347.405 611.812 346.757 611.812 345.973C611.812 345.189 611.933 344.535 612.176 344.013C612.428 343.481 612.811 343.084 613.324 342.823C613.837 342.552 614.491 342.417 615.284 342.417H618.448L618.448 349.851C618.448 350.485 618.289 351.031 617.972 351.489C617.664 351.955 617.225 352.31 616.656 352.553C616.096 352.795 615.433 352.917 614.668 352.917ZM619.918 349.445L619.918 347.821C619.974 347.821 620.016 347.839 620.044 347.877C620.081 347.914 620.109 347.97 620.128 348.045C620.156 348.119 620.175 348.208 620.184 348.311C620.193 348.404 620.198 348.511 620.198 348.633C620.198 348.754 620.193 348.866 620.184 348.969C620.175 349.071 620.156 349.16 620.128 349.235C620.109 349.3 620.081 349.351 620.044 349.389C620.016 349.426 619.974 349.445 619.918 349.445ZM619.92 349.445L619.92 347.821H622.888C623.289 347.821 623.677 347.746 624.05 347.597C624.423 347.438 624.764 347.233 625.072 346.981C625.389 346.719 625.665 346.435 625.898 346.127C626.141 345.809 626.327 345.487 626.458 345.161C626.598 344.834 626.668 344.526 626.668 344.237L626.668 343.341L627.564 344.825C627.079 344.563 626.584 344.367 626.08 344.237C625.576 344.106 625.095 344.041 624.638 344.041C624.19 344.041 623.709 344.106 623.196 344.237C622.692 344.367 622.202 344.563 621.726 344.825L622.622 343.341L622.622 344.237C622.622 344.526 622.687 344.834 622.818 345.161C622.958 345.487 623.145 345.809 623.378 346.127C623.611 346.435 623.887 346.719 624.204 346.981C624.521 347.233 624.867 347.438 625.24 347.597C625.613 347.746 625.996 347.821 626.388 347.821H629.272L629.272 349.445H626.976C626.248 349.445 625.567 349.328 624.932 349.095C624.297 348.861 623.723 348.553 623.21 348.171C622.697 347.779 622.253 347.354 621.88 346.897C621.516 346.43 621.236 345.968 621.04 345.511C620.844 345.044 620.746 344.619 620.746 344.237L620.746 343.439C621.147 343.215 621.572 343.028 622.02 342.879C622.477 342.729 622.93 342.617 623.378 342.543C623.835 342.459 624.255 342.417 624.638 342.417C625.03 342.417 625.45 342.459 625.898 342.543C626.346 342.617 626.794 342.729 627.242 342.879C627.699 343.028 628.129 343.215 628.53 343.439L628.53 344.237C628.53 344.619 628.432 345.044 628.236 345.511C628.04 345.968 627.755 346.43 627.382 346.897C627.018 347.354 626.579 347.779 626.066 348.171C625.553 348.553 624.979 348.861 624.344 349.095C623.709 349.328 623.028 349.445 622.3 349.445H619.92ZM619.92 349.445C619.864 349.445 619.822 349.426 619.794 349.389C619.757 349.351 619.729 349.3 619.71 349.235C619.682 349.16 619.663 349.071 619.654 348.969C619.645 348.866 619.64 348.754 619.64 348.633C619.64 348.465 619.649 348.325 619.668 348.213C619.687 348.091 619.719 347.998 619.766 347.933C619.803 347.858 619.855 347.821 619.92 347.821L619.92 349.445ZM629.272 349.445L629.272 347.821C629.328 347.821 629.375 347.839 629.412 347.877C629.449 347.914 629.477 347.97 629.496 348.045C629.515 348.119 629.529 348.208 629.538 348.311C629.547 348.404 629.552 348.511 629.552 348.633C629.552 348.754 629.547 348.866 629.538 348.969C629.529 349.071 629.515 349.16 629.496 349.235C629.477 349.3 629.449 349.351 629.412 349.389C629.375 349.426 629.328 349.445 629.272 349.445ZM637.503 349.445C637.121 349.445 636.738 349.375 636.355 349.235C635.982 349.085 635.637 348.866 635.319 348.577L636.467 347.387C636.654 347.536 636.827 347.648 636.985 347.723C637.153 347.788 637.326 347.821 637.503 347.821H640.121L639.155 348.703L639.155 345.595C639.155 345.445 639.137 345.221 639.099 344.923C639.071 344.615 639.025 344.269 638.959 343.887C638.903 343.495 638.833 343.098 638.749 342.697L640.597 342.417C640.663 342.753 640.723 343.131 640.779 343.551C640.845 343.961 640.901 344.353 640.947 344.727C640.994 345.091 641.017 345.38 641.017 345.595L641.017 349.445H637.503ZM629.271 349.445L629.271 347.821H631.315L630.895 348.255L630.895 343.845H632.771L632.771 349.445H629.271ZM632.771 349.445L632.771 347.821H633.905C634.204 347.821 634.433 347.779 634.591 347.695C634.75 347.601 634.857 347.419 634.913 347.149C634.979 346.869 635.011 346.453 635.011 345.903L635.011 343.145H636.887L636.887 345.903C636.887 346.733 636.78 347.41 636.565 347.933C636.36 348.455 636.038 348.838 635.599 349.081C635.161 349.323 634.596 349.445 633.905 349.445H632.771ZM629.271 349.445C629.215 349.445 629.173 349.426 629.145 349.389C629.108 349.351 629.08 349.3 629.061 349.235C629.033 349.16 629.015 349.071 629.005 348.969C628.996 348.866 628.991 348.754 628.991 348.633C628.991 348.465 629.001 348.325 629.019 348.213C629.038 348.091 629.071 347.998 629.117 347.933C629.155 347.858 629.206 347.821 629.271 347.821L629.271 349.445Z" fill="#333333"/>
<rect x="652" y="334.909" width="20" height="20" fill="#062E4A"/>
<path d="M917.77 268.445L917.77 266.285L920.79 263.185C921.363 262.598 921.857 262.085 922.27 261.645C922.683 261.191 922.997 260.765 923.21 260.365C923.437 259.965 923.55 259.538 923.55 259.085C923.55 258.418 923.363 257.971 922.99 257.745C922.617 257.505 922.017 257.385 921.19 257.385C920.857 257.385 920.49 257.405 920.09 257.445C919.69 257.485 919.303 257.531 918.93 257.585C918.57 257.638 918.257 257.691 917.99 257.745L917.85 255.625C918.143 255.545 918.503 255.458 918.93 255.365C919.37 255.271 919.843 255.191 920.35 255.125C920.87 255.045 921.377 255.005 921.87 255.005C923.31 255.005 924.41 255.311 925.17 255.925C925.93 256.525 926.31 257.458 926.31 258.725C926.31 259.418 926.21 260.031 926.01 260.565C925.823 261.098 925.523 261.611 925.11 262.105C924.71 262.585 924.177 263.111 923.51 263.685L920.87 266.205H926.49L926.49 268.445H917.77ZM933.263 268.665C932.41 268.665 931.67 268.551 931.043 268.325C930.416 268.085 929.896 267.705 929.483 267.185C929.083 266.651 928.776 265.958 928.563 265.105C928.363 264.251 928.263 263.205 928.263 261.965C928.263 260.685 928.363 259.598 928.563 258.705C928.776 257.811 929.09 257.098 929.503 256.565C929.916 256.018 930.43 255.625 931.043 255.385C931.67 255.145 932.403 255.025 933.243 255.025C934.11 255.025 934.856 255.145 935.483 255.385C936.11 255.625 936.623 256.018 937.023 256.565C937.436 257.098 937.736 257.811 937.923 258.705C938.123 259.585 938.223 260.671 938.223 261.965C938.223 263.605 938.043 264.918 937.683 265.905C937.336 266.878 936.796 267.585 936.063 268.025C935.33 268.451 934.396 268.665 933.263 268.665ZM933.263 266.345C933.636 266.345 933.956 266.285 934.223 266.165C934.503 266.031 934.736 265.805 934.923 265.485C935.11 265.165 935.243 264.718 935.323 264.145C935.416 263.571 935.463 262.845 935.463 261.965C935.463 261.031 935.416 260.265 935.323 259.665C935.243 259.065 935.116 258.598 934.943 258.265C934.77 257.918 934.543 257.678 934.263 257.545C933.983 257.398 933.65 257.325 933.263 257.325C932.876 257.325 932.543 257.398 932.263 257.545C931.983 257.678 931.75 257.911 931.563 258.245C931.39 258.578 931.256 259.051 931.163 259.665C931.07 260.265 931.023 261.038 931.023 261.985C931.023 262.865 931.07 263.591 931.163 264.165C931.27 264.738 931.416 265.185 931.603 265.505C931.79 265.811 932.016 266.031 932.283 266.165C932.563 266.285 932.89 266.345 933.263 266.345ZM939.996 268.445L939.996 266.285L943.016 263.185C943.59 262.598 944.083 262.085 944.496 261.645C944.91 261.191 945.223 260.765 945.436 260.365C945.663 259.965 945.776 259.538 945.776 259.085C945.776 258.418 945.59 257.971 945.216 257.745C944.843 257.505 944.243 257.385 943.416 257.385C943.083 257.385 942.716 257.405 942.316 257.445C941.916 257.485 941.53 257.531 941.156 257.585C940.796 257.638 940.483 257.691 940.216 257.745L940.076 255.625C940.37 255.545 940.73 255.458 941.156 255.365C941.596 255.271 942.07 255.191 942.576 255.125C943.096 255.045 943.603 255.005 944.096 255.005C945.536 255.005 946.636 255.311 947.396 255.925C948.156 256.525 948.536 257.458 948.536 258.725C948.536 259.418 948.436 260.031 948.236 260.565C948.05 261.098 947.75 261.611 947.336 262.105C946.936 262.585 946.403 263.111 945.736 263.685L943.096 266.205H948.716L948.716 268.445H939.996ZM955.49 268.665C954.636 268.665 953.896 268.551 953.27 268.325C952.643 268.085 952.123 267.705 951.71 267.185C951.31 266.651 951.003 265.958 950.79 265.105C950.59 264.251 950.49 263.205 950.49 261.965C950.49 260.685 950.59 259.598 950.79 258.705C951.003 257.811 951.316 257.098 951.73 256.565C952.143 256.018 952.656 255.625 953.27 255.385C953.896 255.145 954.63 255.025 955.47 255.025C956.336 255.025 957.083 255.145 957.71 255.385C958.336 255.625 958.85 256.018 959.25 256.565C959.663 257.098 959.963 257.811 960.15 258.705C960.35 259.585 960.45 260.671 960.45 261.965C960.45 263.605 960.27 264.918 959.91 265.905C959.563 266.878 959.023 267.585 958.29 268.025C957.556 268.451 956.623 268.665 955.49 268.665ZM955.49 266.345C955.863 266.345 956.183 266.285 956.45 266.165C956.73 266.031 956.963 265.805 957.15 265.485C957.336 265.165 957.47 264.718 957.55 264.145C957.643 263.571 957.69 262.845 957.69 261.965C957.69 261.031 957.643 260.265 957.55 259.665C957.47 259.065 957.343 258.598 957.17 258.265C956.996 257.918 956.77 257.678 956.49 257.545C956.21 257.398 955.876 257.325 955.49 257.325C955.103 257.325 954.77 257.398 954.49 257.545C954.21 257.678 953.976 257.911 953.79 258.245C953.616 258.578 953.483 259.051 953.39 259.665C953.296 260.265 953.25 261.038 953.25 261.985C953.25 262.865 953.296 263.591 953.39 264.165C953.496 264.738 953.643 265.185 953.83 265.505C954.016 265.811 954.243 266.031 954.51 266.165C954.79 266.285 955.116 266.345 955.49 266.345ZM966.678 275.085C966.558 274.365 966.445 273.665 966.338 272.985C966.245 272.305 966.198 271.705 966.198 271.185C966.198 270.145 966.398 269.245 966.798 268.485C967.198 267.738 967.765 267.158 968.498 266.745C969.232 266.331 970.098 266.125 971.098 266.125C971.298 266.125 971.545 266.125 971.838 266.125C972.145 266.125 972.498 266.125 972.898 266.125C973.298 266.125 973.745 266.125 974.238 266.125C974.732 266.125 975.272 266.125 975.858 266.125L974.638 267.285L974.638 263.505C974.638 262.811 974.558 262.265 974.398 261.865C974.252 261.451 973.978 261.158 973.578 260.985C973.192 260.811 972.625 260.725 971.878 260.725C971.372 260.725 970.852 260.765 970.318 260.845C969.798 260.911 969.385 261.005 969.078 261.125L970.758 259.565C970.665 259.885 970.578 260.285 970.498 260.765C970.432 261.245 970.378 261.745 970.338 262.265C970.298 262.771 970.278 263.251 970.278 263.705C970.278 264.198 970.298 264.698 970.338 265.205C970.378 265.698 970.425 266.138 970.478 266.525C970.545 266.911 970.598 267.178 970.638 267.325L968.098 268.025C968.032 267.838 967.958 267.531 967.878 267.105C967.812 266.678 967.745 266.178 967.678 265.605C967.625 265.018 967.598 264.398 967.598 263.745C967.598 263.091 967.625 262.458 967.678 261.845C967.745 261.218 967.825 260.658 967.918 260.165C968.012 259.658 968.098 259.251 968.178 258.945C968.525 258.811 969.038 258.691 969.718 258.585C970.398 258.465 971.132 258.405 971.918 258.405C972.785 258.405 973.525 258.491 974.138 258.665C974.765 258.825 975.278 259.058 975.678 259.365C976.092 259.671 976.418 260.038 976.658 260.465C976.898 260.878 977.065 261.345 977.158 261.865C977.252 262.385 977.298 262.938 977.298 263.525L977.298 268.445C976.712 268.445 976.098 268.445 975.458 268.445C974.832 268.445 974.218 268.445 973.618 268.445C973.032 268.445 972.512 268.445 972.058 268.445C971.618 268.445 971.298 268.445 971.098 268.445C970.885 268.445 970.652 268.471 970.398 268.525C970.145 268.591 969.898 268.711 969.658 268.885C969.432 269.071 969.245 269.345 969.098 269.705C968.952 270.078 968.878 270.571 968.878 271.185C968.878 271.665 968.918 272.225 968.998 272.865C969.092 273.505 969.198 274.245 969.318 275.085H966.678ZM983.159 268.445L983.159 266.125H985.439L985.439 268.445H983.159ZM980.499 268.445L980.499 254.305H983.159L983.159 268.445H980.499ZM985.439 268.445L985.439 266.125C985.519 266.125 985.579 266.151 985.619 266.205C985.673 266.258 985.713 266.338 985.739 266.445C985.779 266.551 985.806 266.678 985.819 266.825C985.833 266.958 985.839 267.111 985.839 267.285C985.839 267.458 985.833 267.618 985.819 267.765C985.806 267.911 985.779 268.038 985.739 268.145C985.713 268.238 985.673 268.311 985.619 268.365C985.579 268.418 985.519 268.445 985.439 268.445ZM989.197 268.125C988.517 267.485 988.004 266.805 987.657 266.085C987.324 265.365 987.157 264.598 987.157 263.785C987.157 262.998 987.304 262.278 987.597 261.625C987.891 260.958 988.291 260.385 988.797 259.905C989.304 259.425 989.891 259.058 990.557 258.805C991.237 258.538 991.951 258.405 992.697 258.405C993.097 258.405 993.517 258.445 993.958 258.525C994.397 258.605 994.817 258.711 995.217 258.845L994.418 261.025C994.138 260.931 993.857 260.858 993.577 260.805C993.311 260.751 993.051 260.725 992.798 260.725C992.211 260.725 991.691 260.858 991.237 261.125C990.784 261.378 990.431 261.731 990.177 262.185C989.937 262.638 989.817 263.158 989.817 263.745C989.817 264.278 989.924 264.778 990.137 265.245C990.364 265.711 990.684 266.131 991.097 266.505L989.197 268.125ZM985.437 268.445L985.437 266.125H995.397L995.397 268.445H985.437ZM985.437 268.445C985.357 268.445 985.297 268.418 985.257 268.365C985.204 268.311 985.164 268.238 985.137 268.145C985.097 268.038 985.071 267.911 985.057 267.765C985.044 267.618 985.037 267.458 985.037 267.285C985.037 267.045 985.051 266.845 985.077 266.685C985.104 266.511 985.151 266.378 985.217 266.285C985.271 266.178 985.344 266.125 985.437 266.125L985.437 268.445Z" fill="#333333"/>
<path d="M646.77 268.445L646.77 266.285L649.79 263.185C650.363 262.598 650.857 262.085 651.27 261.645C651.683 261.191 651.997 260.765 652.21 260.365C652.437 259.965 652.55 259.538 652.55 259.085C652.55 258.418 652.363 257.971 651.99 257.745C651.617 257.505 651.017 257.385 650.19 257.385C649.857 257.385 649.49 257.405 649.09 257.445C648.69 257.485 648.303 257.531 647.93 257.585C647.57 257.638 647.257 257.691 646.99 257.745L646.85 255.625C647.143 255.545 647.503 255.458 647.93 255.365C648.37 255.271 648.843 255.191 649.35 255.125C649.87 255.045 650.377 255.005 650.87 255.005C652.31 255.005 653.41 255.311 654.17 255.925C654.93 256.525 655.31 257.458 655.31 258.725C655.31 259.418 655.21 260.031 655.01 260.565C654.823 261.098 654.523 261.611 654.11 262.105C653.71 262.585 653.177 263.111 652.51 263.685L649.87 266.205H655.49L655.49 268.445H646.77ZM662.263 268.665C661.41 268.665 660.67 268.551 660.043 268.325C659.416 268.085 658.896 267.705 658.483 267.185C658.083 266.651 657.776 265.958 657.563 265.105C657.363 264.251 657.263 263.205 657.263 261.965C657.263 260.685 657.363 259.598 657.563 258.705C657.776 257.811 658.09 257.098 658.503 256.565C658.916 256.018 659.43 255.625 660.043 255.385C660.67 255.145 661.403 255.025 662.243 255.025C663.11 255.025 663.856 255.145 664.483 255.385C665.11 255.625 665.623 256.018 666.023 256.565C666.436 257.098 666.736 257.811 666.923 258.705C667.123 259.585 667.223 260.671 667.223 261.965C667.223 263.605 667.043 264.918 666.683 265.905C666.336 266.878 665.796 267.585 665.063 268.025C664.33 268.451 663.396 268.665 662.263 268.665ZM662.263 266.345C662.636 266.345 662.956 266.285 663.223 266.165C663.503 266.031 663.736 265.805 663.923 265.485C664.11 265.165 664.243 264.718 664.323 264.145C664.416 263.571 664.463 262.845 664.463 261.965C664.463 261.031 664.416 260.265 664.323 259.665C664.243 259.065 664.116 258.598 663.943 258.265C663.77 257.918 663.543 257.678 663.263 257.545C662.983 257.398 662.65 257.325 662.263 257.325C661.876 257.325 661.543 257.398 661.263 257.545C660.983 257.678 660.75 257.911 660.563 258.245C660.39 258.578 660.256 259.051 660.163 259.665C660.07 260.265 660.023 261.038 660.023 261.985C660.023 262.865 660.07 263.591 660.163 264.165C660.27 264.738 660.416 265.185 660.603 265.505C660.79 265.811 661.016 266.031 661.283 266.165C661.563 266.285 661.89 266.345 662.263 266.345ZM668.996 268.445L668.996 266.285L672.016 263.185C672.59 262.598 673.083 262.085 673.496 261.645C673.91 261.191 674.223 260.765 674.436 260.365C674.663 259.965 674.776 259.538 674.776 259.085C674.776 258.418 674.59 257.971 674.216 257.745C673.843 257.505 673.243 257.385 672.416 257.385C672.083 257.385 671.716 257.405 671.316 257.445C670.916 257.485 670.53 257.531 670.156 257.585C669.796 257.638 669.483 257.691 669.216 257.745L669.076 255.625C669.37 255.545 669.73 255.458 670.156 255.365C670.596 255.271 671.07 255.191 671.576 255.125C672.096 255.045 672.603 255.005 673.096 255.005C674.536 255.005 675.636 255.311 676.396 255.925C677.156 256.525 677.536 257.458 677.536 258.725C677.536 259.418 677.436 260.031 677.236 260.565C677.05 261.098 676.75 261.611 676.336 262.105C675.936 262.585 675.403 263.111 674.736 263.685L672.096 266.205H677.716L677.716 268.445H668.996ZM684.59 268.445L684.59 258.205L681.47 260.005L680.55 258.025L684.93 255.245H687.31L687.31 268.445H684.59ZM695.678 275.085C695.558 274.365 695.445 273.665 695.338 272.985C695.245 272.305 695.198 271.705 695.198 271.185C695.198 270.145 695.398 269.245 695.798 268.485C696.198 267.738 696.765 267.158 697.498 266.745C698.232 266.331 699.098 266.125 700.098 266.125C700.298 266.125 700.545 266.125 700.838 266.125C701.145 266.125 701.498 266.125 701.898 266.125C702.298 266.125 702.745 266.125 703.238 266.125C703.732 266.125 704.272 266.125 704.858 266.125L703.638 267.285L703.638 263.505C703.638 262.811 703.558 262.265 703.398 261.865C703.252 261.451 702.978 261.158 702.578 260.985C702.192 260.811 701.625 260.725 700.878 260.725C700.372 260.725 699.852 260.765 699.318 260.845C698.798 260.911 698.385 261.005 698.078 261.125L699.758 259.565C699.665 259.885 699.578 260.285 699.498 260.765C699.432 261.245 699.378 261.745 699.338 262.265C699.298 262.771 699.278 263.251 699.278 263.705C699.278 264.198 699.298 264.698 699.338 265.205C699.378 265.698 699.425 266.138 699.478 266.525C699.545 266.911 699.598 267.178 699.638 267.325L697.098 268.025C697.032 267.838 696.958 267.531 696.878 267.105C696.812 266.678 696.745 266.178 696.678 265.605C696.625 265.018 696.598 264.398 696.598 263.745C696.598 263.091 696.625 262.458 696.678 261.845C696.745 261.218 696.825 260.658 696.918 260.165C697.012 259.658 697.098 259.251 697.178 258.945C697.525 258.811 698.038 258.691 698.718 258.585C699.398 258.465 700.132 258.405 700.918 258.405C701.785 258.405 702.525 258.491 703.138 258.665C703.765 258.825 704.278 259.058 704.678 259.365C705.092 259.671 705.418 260.038 705.658 260.465C705.898 260.878 706.065 261.345 706.158 261.865C706.252 262.385 706.298 262.938 706.298 263.525L706.298 268.445C705.712 268.445 705.098 268.445 704.458 268.445C703.832 268.445 703.218 268.445 702.618 268.445C702.032 268.445 701.512 268.445 701.058 268.445C700.618 268.445 700.298 268.445 700.098 268.445C699.885 268.445 699.652 268.471 699.398 268.525C699.145 268.591 698.898 268.711 698.658 268.885C698.432 269.071 698.245 269.345 698.098 269.705C697.952 270.078 697.878 270.571 697.878 271.185C697.878 271.665 697.918 272.225 697.998 272.865C698.092 273.505 698.198 274.245 698.318 275.085H695.678ZM712.159 268.445L712.159 266.125H714.439L714.439 268.445H712.159ZM709.499 268.445L709.499 254.305H712.159L712.159 268.445H709.499ZM714.439 268.445L714.439 266.125C714.519 266.125 714.579 266.151 714.619 266.205C714.673 266.258 714.713 266.338 714.739 266.445C714.779 266.551 714.806 266.678 714.819 266.825C714.833 266.958 714.839 267.111 714.839 267.285C714.839 267.458 714.833 267.618 714.819 267.765C714.806 267.911 714.779 268.038 714.739 268.145C714.713 268.238 714.673 268.311 714.619 268.365C714.579 268.418 714.519 268.445 714.439 268.445ZM718.197 268.125C717.517 267.485 717.004 266.805 716.657 266.085C716.324 265.365 716.157 264.598 716.157 263.785C716.157 262.998 716.304 262.278 716.597 261.625C716.891 260.958 717.291 260.385 717.797 259.905C718.304 259.425 718.891 259.058 719.557 258.805C720.237 258.538 720.951 258.405 721.697 258.405C722.097 258.405 722.517 258.445 722.958 258.525C723.397 258.605 723.817 258.711 724.217 258.845L723.418 261.025C723.138 260.931 722.857 260.858 722.577 260.805C722.311 260.751 722.051 260.725 721.798 260.725C721.211 260.725 720.691 260.858 720.237 261.125C719.784 261.378 719.431 261.731 719.177 262.185C718.937 262.638 718.817 263.158 718.817 263.745C718.817 264.278 718.924 264.778 719.137 265.245C719.364 265.711 719.684 266.131 720.097 266.505L718.197 268.125ZM714.437 268.445L714.437 266.125H724.397L724.397 268.445H714.437ZM714.437 268.445C714.357 268.445 714.297 268.418 714.257 268.365C714.204 268.311 714.164 268.238 714.137 268.145C714.097 268.038 714.071 267.911 714.057 267.765C714.044 267.618 714.037 267.458 714.037 267.285C714.037 267.045 714.051 266.845 714.077 266.685C714.104 266.511 714.151 266.378 714.217 266.285C714.271 266.178 714.344 266.125 714.437 266.125L714.437 268.445Z" fill="#333333"/>
<path d="M369.77 268.445L369.77 266.285L372.79 263.185C373.363 262.598 373.857 262.085 374.27 261.645C374.683 261.191 374.997 260.765 375.21 260.365C375.437 259.965 375.55 259.538 375.55 259.085C375.55 258.418 375.363 257.971 374.99 257.745C374.617 257.505 374.017 257.385 373.19 257.385C372.857 257.385 372.49 257.405 372.09 257.445C371.69 257.485 371.303 257.531 370.93 257.585C370.57 257.638 370.257 257.691 369.99 257.745L369.85 255.625C370.143 255.545 370.503 255.458 370.93 255.365C371.37 255.271 371.843 255.191 372.35 255.125C372.87 255.045 373.377 255.005 373.87 255.005C375.31 255.005 376.41 255.311 377.17 255.925C377.93 256.525 378.31 257.458 378.31 258.725C378.31 259.418 378.21 260.031 378.01 260.565C377.823 261.098 377.523 261.611 377.11 262.105C376.71 262.585 376.177 263.111 375.51 263.685L372.87 266.205H378.49L378.49 268.445H369.77ZM385.263 268.665C384.41 268.665 383.67 268.551 383.043 268.325C382.416 268.085 381.896 267.705 381.483 267.185C381.083 266.651 380.776 265.958 380.563 265.105C380.363 264.251 380.263 263.205 380.263 261.965C380.263 260.685 380.363 259.598 380.563 258.705C380.776 257.811 381.09 257.098 381.503 256.565C381.916 256.018 382.43 255.625 383.043 255.385C383.67 255.145 384.403 255.025 385.243 255.025C386.11 255.025 386.856 255.145 387.483 255.385C388.11 255.625 388.623 256.018 389.023 256.565C389.436 257.098 389.736 257.811 389.923 258.705C390.123 259.585 390.223 260.671 390.223 261.965C390.223 263.605 390.043 264.918 389.683 265.905C389.336 266.878 388.796 267.585 388.063 268.025C387.33 268.451 386.396 268.665 385.263 268.665ZM385.263 266.345C385.636 266.345 385.956 266.285 386.223 266.165C386.503 266.031 386.736 265.805 386.923 265.485C387.11 265.165 387.243 264.718 387.323 264.145C387.416 263.571 387.463 262.845 387.463 261.965C387.463 261.031 387.416 260.265 387.323 259.665C387.243 259.065 387.116 258.598 386.943 258.265C386.77 257.918 386.543 257.678 386.263 257.545C385.983 257.398 385.65 257.325 385.263 257.325C384.876 257.325 384.543 257.398 384.263 257.545C383.983 257.678 383.75 257.911 383.563 258.245C383.39 258.578 383.256 259.051 383.163 259.665C383.07 260.265 383.023 261.038 383.023 261.985C383.023 262.865 383.07 263.591 383.163 264.165C383.27 264.738 383.416 265.185 383.603 265.505C383.79 265.811 384.016 266.031 384.283 266.165C384.563 266.285 384.89 266.345 385.263 266.345ZM391.996 268.445L391.996 266.285L395.016 263.185C395.59 262.598 396.083 262.085 396.496 261.645C396.91 261.191 397.223 260.765 397.436 260.365C397.663 259.965 397.776 259.538 397.776 259.085C397.776 258.418 397.59 257.971 397.216 257.745C396.843 257.505 396.243 257.385 395.416 257.385C395.083 257.385 394.716 257.405 394.316 257.445C393.916 257.485 393.53 257.531 393.156 257.585C392.796 257.638 392.483 257.691 392.216 257.745L392.076 255.625C392.37 255.545 392.73 255.458 393.156 255.365C393.596 255.271 394.07 255.191 394.576 255.125C395.096 255.045 395.603 255.005 396.096 255.005C397.536 255.005 398.636 255.311 399.396 255.925C400.156 256.525 400.536 257.458 400.536 258.725C400.536 259.418 400.436 260.031 400.236 260.565C400.05 261.098 399.75 261.611 399.336 262.105C398.936 262.585 398.403 263.111 397.736 263.685L395.096 266.205H400.716L400.716 268.445H391.996ZM403.11 268.445L403.11 266.285L406.13 263.185C406.703 262.598 407.196 262.085 407.61 261.645C408.023 261.191 408.336 260.765 408.55 260.365C408.776 259.965 408.89 259.538 408.89 259.085C408.89 258.418 408.703 257.971 408.33 257.745C407.956 257.505 407.356 257.385 406.53 257.385C406.196 257.385 405.83 257.405 405.43 257.445C405.03 257.485 404.643 257.531 404.27 257.585C403.91 257.638 403.596 257.691 403.33 257.745L403.19 255.625C403.483 255.545 403.843 255.458 404.27 255.365C404.71 255.271 405.183 255.191 405.69 255.125C406.21 255.045 406.716 255.005 407.21 255.005C408.65 255.005 409.75 255.311 410.51 255.925C411.27 256.525 411.65 257.458 411.65 258.725C411.65 259.418 411.55 260.031 411.35 260.565C411.163 261.098 410.863 261.611 410.45 262.105C410.05 262.585 409.516 263.111 408.85 263.685L406.21 266.205H411.83L411.83 268.445H403.11ZM418.678 275.085C418.558 274.365 418.445 273.665 418.338 272.985C418.245 272.305 418.198 271.705 418.198 271.185C418.198 270.145 418.398 269.245 418.798 268.485C419.198 267.738 419.765 267.158 420.498 266.745C421.232 266.331 422.098 266.125 423.098 266.125C423.298 266.125 423.545 266.125 423.838 266.125C424.145 266.125 424.498 266.125 424.898 266.125C425.298 266.125 425.745 266.125 426.238 266.125C426.732 266.125 427.272 266.125 427.858 266.125L426.638 267.285L426.638 263.505C426.638 262.811 426.558 262.265 426.398 261.865C426.252 261.451 425.978 261.158 425.578 260.985C425.192 260.811 424.625 260.725 423.878 260.725C423.372 260.725 422.852 260.765 422.318 260.845C421.798 260.911 421.385 261.005 421.078 261.125L422.758 259.565C422.665 259.885 422.578 260.285 422.498 260.765C422.432 261.245 422.378 261.745 422.338 262.265C422.298 262.771 422.278 263.251 422.278 263.705C422.278 264.198 422.298 264.698 422.338 265.205C422.378 265.698 422.425 266.138 422.478 266.525C422.545 266.911 422.598 267.178 422.638 267.325L420.098 268.025C420.032 267.838 419.958 267.531 419.878 267.105C419.812 266.678 419.745 266.178 419.678 265.605C419.625 265.018 419.598 264.398 419.598 263.745C419.598 263.091 419.625 262.458 419.678 261.845C419.745 261.218 419.825 260.658 419.918 260.165C420.012 259.658 420.098 259.251 420.178 258.945C420.525 258.811 421.038 258.691 421.718 258.585C422.398 258.465 423.132 258.405 423.918 258.405C424.785 258.405 425.525 258.491 426.138 258.665C426.765 258.825 427.278 259.058 427.678 259.365C428.092 259.671 428.418 260.038 428.658 260.465C428.898 260.878 429.065 261.345 429.158 261.865C429.252 262.385 429.298 262.938 429.298 263.525L429.298 268.445C428.712 268.445 428.098 268.445 427.458 268.445C426.832 268.445 426.218 268.445 425.618 268.445C425.032 268.445 424.512 268.445 424.058 268.445C423.618 268.445 423.298 268.445 423.098 268.445C422.885 268.445 422.652 268.471 422.398 268.525C422.145 268.591 421.898 268.711 421.658 268.885C421.432 269.071 421.245 269.345 421.098 269.705C420.952 270.078 420.878 270.571 420.878 271.185C420.878 271.665 420.918 272.225 420.998 272.865C421.092 273.505 421.198 274.245 421.318 275.085H418.678ZM435.159 268.445L435.159 266.125H437.439L437.439 268.445H435.159ZM432.499 268.445L432.499 254.305H435.159L435.159 268.445H432.499ZM437.439 268.445L437.439 266.125C437.519 266.125 437.579 266.151 437.619 266.205C437.673 266.258 437.713 266.338 437.739 266.445C437.779 266.551 437.806 266.678 437.819 266.825C437.833 266.958 437.839 267.111 437.839 267.285C437.839 267.458 437.833 267.618 437.819 267.765C437.806 267.911 437.779 268.038 437.739 268.145C437.713 268.238 437.673 268.311 437.619 268.365C437.579 268.418 437.519 268.445 437.439 268.445ZM441.197 268.125C440.517 267.485 440.004 266.805 439.657 266.085C439.324 265.365 439.157 264.598 439.157 263.785C439.157 262.998 439.304 262.278 439.597 261.625C439.891 260.958 440.291 260.385 440.797 259.905C441.304 259.425 441.891 259.058 442.557 258.805C443.237 258.538 443.951 258.405 444.697 258.405C445.097 258.405 445.517 258.445 445.958 258.525C446.397 258.605 446.817 258.711 447.217 258.845L446.418 261.025C446.138 260.931 445.857 260.858 445.577 260.805C445.311 260.751 445.051 260.725 444.798 260.725C444.211 260.725 443.691 260.858 443.237 261.125C442.784 261.378 442.431 261.731 442.177 262.185C441.937 262.638 441.817 263.158 441.817 263.745C441.817 264.278 441.924 264.778 442.137 265.245C442.364 265.711 442.684 266.131 443.097 266.505L441.197 268.125ZM437.437 268.445L437.437 266.125H447.397L447.397 268.445H437.437ZM437.437 268.445C437.357 268.445 437.297 268.418 437.257 268.365C437.204 268.311 437.164 268.238 437.137 268.145C437.097 268.038 437.071 267.911 437.057 267.765C437.044 267.618 437.037 267.458 437.037 267.285C437.037 267.045 437.051 266.845 437.077 266.685C437.104 266.511 437.151 266.378 437.217 266.285C437.271 266.178 437.344 266.125 437.437 266.125L437.437 268.445Z" fill="#333333"/>
<path d="M62.7698 268.445L62.7698 266.285L65.7898 263.185C66.3632 262.598 66.8565 262.085 67.2698 261.645C67.6832 261.191 67.9965 260.765 68.2098 260.365C68.4365 259.965 68.5498 259.538 68.5498 259.085C68.5498 258.418 68.3632 257.971 67.9898 257.745C67.6165 257.505 67.0165 257.385 66.1898 257.385C65.8565 257.385 65.4898 257.405 65.0898 257.445C64.6898 257.485 64.3032 257.531 63.9298 257.585C63.5698 257.638 63.2565 257.691 62.9898 257.745L62.8498 255.625C63.1432 255.545 63.5032 255.458 63.9298 255.365C64.3698 255.271 64.8432 255.191 65.3498 255.125C65.8698 255.045 66.3765 255.005 66.8698 255.005C68.3098 255.005 69.4098 255.311 70.1698 255.925C70.9298 256.525 71.3098 257.458 71.3098 258.725C71.3098 259.418 71.2098 260.031 71.0098 260.565C70.8232 261.098 70.5232 261.611 70.1098 262.105C69.7098 262.585 69.1765 263.111 68.5098 263.685L65.8698 266.205H71.4898L71.4898 268.445H62.7698ZM78.2631 268.665C77.4098 268.665 76.6698 268.551 76.0431 268.325C75.4165 268.085 74.8965 267.705 74.4831 267.185C74.0831 266.651 73.7765 265.958 73.5631 265.105C73.3631 264.251 73.2631 263.205 73.2631 261.965C73.2631 260.685 73.3631 259.598 73.5631 258.705C73.7765 257.811 74.0898 257.098 74.5031 256.565C74.9165 256.018 75.4298 255.625 76.0431 255.385C76.6698 255.145 77.4031 255.025 78.2431 255.025C79.1098 255.025 79.8565 255.145 80.4831 255.385C81.1098 255.625 81.6231 256.018 82.0231 256.565C82.4365 257.098 82.7365 257.811 82.9231 258.705C83.1231 259.585 83.2231 260.671 83.2231 261.965C83.2231 263.605 83.0431 264.918 82.6831 265.905C82.3365 266.878 81.7965 267.585 81.0631 268.025C80.3298 268.451 79.3965 268.665 78.2631 268.665ZM78.2631 266.345C78.6365 266.345 78.9565 266.285 79.2231 266.165C79.5031 266.031 79.7365 265.805 79.9231 265.485C80.1098 265.165 80.2431 264.718 80.3231 264.145C80.4165 263.571 80.4631 262.845 80.4631 261.965C80.4631 261.031 80.4165 260.265 80.3231 259.665C80.2431 259.065 80.1165 258.598 79.9431 258.265C79.7698 257.918 79.5431 257.678 79.2631 257.545C78.9831 257.398 78.6498 257.325 78.2631 257.325C77.8765 257.325 77.5431 257.398 77.2631 257.545C76.9831 257.678 76.7498 257.911 76.5631 258.245C76.3898 258.578 76.2565 259.051 76.1631 259.665C76.0698 260.265 76.0231 261.038 76.0231 261.985C76.0231 262.865 76.0698 263.591 76.1631 264.165C76.2698 264.738 76.4165 265.185 76.6031 265.505C76.7898 265.811 77.0165 266.031 77.2831 266.165C77.5631 266.285 77.8898 266.345 78.2631 266.345ZM84.9964 268.445L84.9964 266.285L88.0164 263.185C88.5897 262.598 89.0831 262.085 89.4964 261.645C89.9097 261.191 90.2231 260.765 90.4364 260.365C90.6631 259.965 90.7764 259.538 90.7764 259.085C90.7764 258.418 90.5897 257.971 90.2164 257.745C89.8431 257.505 89.2431 257.385 88.4164 257.385C88.0831 257.385 87.7164 257.405 87.3164 257.445C86.9164 257.485 86.5297 257.531 86.1564 257.585C85.7964 257.638 85.4831 257.691 85.2164 257.745L85.0764 255.625C85.3697 255.545 85.7297 255.458 86.1564 255.365C86.5964 255.271 87.0697 255.191 87.5764 255.125C88.0964 255.045 88.6031 255.005 89.0964 255.005C90.5364 255.005 91.6364 255.311 92.3964 255.925C93.1564 256.525 93.5364 257.458 93.5364 258.725C93.5364 259.418 93.4364 260.031 93.2364 260.565C93.0497 261.098 92.7497 261.611 92.3364 262.105C91.9364 262.585 91.4031 263.111 90.7364 263.685L88.0964 266.205H93.7164L93.7164 268.445H84.9964ZM100.27 268.665C99.7764 268.665 99.2564 268.638 98.7097 268.585C98.1764 268.531 97.663 268.465 97.1697 268.385C96.6897 268.291 96.2897 268.211 95.9697 268.145L96.0897 266.005C96.4097 266.045 96.7897 266.091 97.2297 266.145C97.683 266.198 98.143 266.245 98.6097 266.285C99.0897 266.311 99.5297 266.325 99.9297 266.325C100.69 266.325 101.256 266.185 101.63 265.905C102.003 265.625 102.19 265.171 102.19 264.545C102.19 264.118 102.103 263.785 101.93 263.545C101.77 263.291 101.53 263.105 101.21 262.985C100.903 262.865 100.543 262.798 100.13 262.785H97.4097L97.4097 260.585H100.07C100.376 260.585 100.67 260.518 100.95 260.385C101.243 260.251 101.476 260.058 101.65 259.805C101.836 259.551 101.93 259.245 101.93 258.885C101.93 258.325 101.756 257.931 101.41 257.705C101.076 257.465 100.53 257.345 99.7697 257.345C99.3697 257.345 98.9497 257.365 98.5097 257.405C98.0697 257.445 97.6497 257.491 97.2497 257.545C96.8497 257.585 96.5164 257.631 96.2497 257.685L96.1297 255.585C96.423 255.505 96.783 255.425 97.2097 255.345C97.6364 255.251 98.0897 255.178 98.5697 255.125C99.0497 255.058 99.503 255.025 99.9297 255.025C101.063 255.025 101.976 255.145 102.67 255.385C103.376 255.611 103.89 255.991 104.21 256.525C104.53 257.045 104.69 257.731 104.69 258.585C104.69 259.051 104.63 259.445 104.51 259.765C104.403 260.085 104.256 260.358 104.07 260.585C103.896 260.811 103.716 260.998 103.53 261.145C103.343 261.278 103.17 261.398 103.01 261.505C103.41 261.691 103.756 261.898 104.05 262.125C104.343 262.351 104.57 262.651 104.73 263.025C104.89 263.398 104.97 263.898 104.97 264.525C104.97 265.525 104.796 266.331 104.45 266.945C104.103 267.545 103.583 267.985 102.89 268.265C102.196 268.531 101.323 268.665 100.27 268.665ZM111.678 275.085C111.558 274.365 111.445 273.665 111.338 272.985C111.245 272.305 111.198 271.705 111.198 271.185C111.198 270.145 111.398 269.245 111.798 268.485C112.198 267.738 112.765 267.158 113.498 266.745C114.232 266.331 115.098 266.125 116.098 266.125C116.298 266.125 116.545 266.125 116.838 266.125C117.145 266.125 117.498 266.125 117.898 266.125C118.298 266.125 118.745 266.125 119.238 266.125C119.732 266.125 120.272 266.125 120.858 266.125L119.638 267.285L119.638 263.505C119.638 262.811 119.558 262.265 119.398 261.865C119.252 261.451 118.978 261.158 118.578 260.985C118.192 260.811 117.625 260.725 116.878 260.725C116.372 260.725 115.852 260.765 115.318 260.845C114.798 260.911 114.385 261.005 114.078 261.125L115.758 259.565C115.665 259.885 115.578 260.285 115.498 260.765C115.432 261.245 115.378 261.745 115.338 262.265C115.298 262.771 115.278 263.251 115.278 263.705C115.278 264.198 115.298 264.698 115.338 265.205C115.378 265.698 115.425 266.138 115.478 266.525C115.545 266.911 115.598 267.178 115.638 267.325L113.098 268.025C113.032 267.838 112.958 267.531 112.878 267.105C112.812 266.678 112.745 266.178 112.678 265.605C112.625 265.018 112.598 264.398 112.598 263.745C112.598 263.091 112.625 262.458 112.678 261.845C112.745 261.218 112.825 260.658 112.918 260.165C113.012 259.658 113.098 259.251 113.178 258.945C113.525 258.811 114.038 258.691 114.718 258.585C115.398 258.465 116.132 258.405 116.918 258.405C117.785 258.405 118.525 258.491 119.138 258.665C119.765 258.825 120.278 259.058 120.678 259.365C121.092 259.671 121.418 260.038 121.658 260.465C121.898 260.878 122.065 261.345 122.158 261.865C122.252 262.385 122.298 262.938 122.298 263.525L122.298 268.445C121.712 268.445 121.098 268.445 120.458 268.445C119.832 268.445 119.218 268.445 118.618 268.445C118.032 268.445 117.512 268.445 117.058 268.445C116.618 268.445 116.298 268.445 116.098 268.445C115.885 268.445 115.652 268.471 115.398 268.525C115.145 268.591 114.898 268.711 114.658 268.885C114.432 269.071 114.245 269.345 114.098 269.705C113.952 270.078 113.878 270.571 113.878 271.185C113.878 271.665 113.918 272.225 113.998 272.865C114.092 273.505 114.198 274.245 114.318 275.085H111.678ZM128.159 268.445L128.159 266.125H130.439L130.439 268.445H128.159ZM125.499 268.445L125.499 254.305H128.159L128.159 268.445H125.499ZM130.439 268.445L130.439 266.125C130.519 266.125 130.579 266.151 130.619 266.205C130.673 266.258 130.713 266.338 130.739 266.445C130.779 266.551 130.806 266.678 130.819 266.825C130.833 266.958 130.839 267.111 130.839 267.285C130.839 267.458 130.833 267.618 130.819 267.765C130.806 267.911 130.779 268.038 130.739 268.145C130.713 268.238 130.673 268.311 130.619 268.365C130.579 268.418 130.519 268.445 130.439 268.445ZM134.197 268.125C133.517 267.485 133.004 266.805 132.657 266.085C132.324 265.365 132.157 264.598 132.157 263.785C132.157 262.998 132.304 262.278 132.597 261.625C132.891 260.958 133.291 260.385 133.797 259.905C134.304 259.425 134.891 259.058 135.557 258.805C136.237 258.538 136.951 258.405 137.697 258.405C138.097 258.405 138.517 258.445 138.958 258.525C139.397 258.605 139.817 258.711 140.217 258.845L139.418 261.025C139.138 260.931 138.857 260.858 138.577 260.805C138.311 260.751 138.051 260.725 137.798 260.725C137.211 260.725 136.691 260.858 136.237 261.125C135.784 261.378 135.431 261.731 135.177 262.185C134.937 262.638 134.817 263.158 134.817 263.745C134.817 264.278 134.924 264.778 135.137 265.245C135.364 265.711 135.684 266.131 136.097 266.505L134.197 268.125ZM130.437 268.445L130.437 266.125H140.397L140.397 268.445H130.437ZM130.437 268.445C130.357 268.445 130.297 268.418 130.257 268.365C130.204 268.311 130.164 268.238 130.137 268.145C130.097 268.038 130.071 267.911 130.057 267.765C130.044 267.618 130.037 267.458 130.037 267.285C130.037 267.045 130.051 266.845 130.077 266.685C130.104 266.511 130.151 266.378 130.217 266.285C130.271 266.178 130.344 266.125 130.437 266.125L130.437 268.445Z" fill="#333333"/>
<path d="M83.9716 146.555L82.5616 146.195L88.2016 124.775L89.6416 125.165L83.9716 146.555ZM81.5116 134.645C80.6716 134.645 79.9716 134.485 79.4116 134.165C78.8716 133.825 78.4716 133.315 78.2116 132.635C77.9516 131.935 77.8216 131.045 77.8216 129.965C77.8216 128.885 77.9516 128.005 78.2116 127.325C78.4916 126.645 78.9016 126.155 79.4416 125.855C80.0016 125.535 80.6916 125.375 81.5116 125.375C82.3716 125.375 83.0716 125.535 83.6116 125.855C84.1516 126.155 84.5516 126.645 84.8116 127.325C85.0716 128.005 85.2016 128.885 85.2016 129.965C85.2016 131.045 85.0716 131.935 84.8116 132.635C84.5516 133.315 84.1516 133.825 83.6116 134.165C83.0716 134.485 82.3716 134.645 81.5116 134.645ZM81.5116 132.455C81.7916 132.455 82.0116 132.385 82.1716 132.245C82.3316 132.085 82.4416 131.825 82.5016 131.465C82.5816 131.085 82.6216 130.585 82.6216 129.965C82.6216 129.345 82.5816 128.865 82.5016 128.525C82.4416 128.165 82.3316 127.915 82.1716 127.775C82.0116 127.615 81.7916 127.535 81.5116 127.535C81.2316 127.535 81.0116 127.615 80.8516 127.775C80.6916 127.915 80.5816 128.165 80.5216 128.525C80.4616 128.865 80.4316 129.345 80.4316 129.965C80.4316 130.585 80.4616 131.085 80.5216 131.465C80.5816 131.825 80.6916 132.085 80.8516 132.245C81.0116 132.385 81.2316 132.455 81.5116 132.455ZM90.7516 145.775C89.8916 145.775 89.1816 145.615 88.6216 145.295C88.0816 144.955 87.6816 144.445 87.4216 143.765C87.1616 143.065 87.0316 142.175 87.0316 141.095C87.0316 140.015 87.1616 139.135 87.4216 138.455C87.7016 137.775 88.1116 137.275 88.6516 136.955C89.2116 136.635 89.9116 136.475 90.7516 136.475C91.5916 136.475 92.2816 136.635 92.8216 136.955C93.3616 137.275 93.7616 137.775 94.0216 138.455C94.3016 139.135 94.4416 140.015 94.4416 141.095C94.4416 142.175 94.3016 143.065 94.0216 143.765C93.7616 144.445 93.3616 144.955 92.8216 145.295C92.2816 145.615 91.5916 145.775 90.7516 145.775ZM90.7516 143.585C91.0116 143.585 91.2216 143.515 91.3816 143.375C91.5616 143.215 91.6816 142.955 91.7416 142.595C91.8016 142.215 91.8316 141.715 91.8316 141.095C91.8316 140.455 91.8016 139.965 91.7416 139.625C91.6816 139.265 91.5716 139.025 91.4116 138.905C91.2516 138.765 91.0316 138.695 90.7516 138.695C90.4516 138.695 90.2216 138.765 90.0616 138.905C89.9016 139.025 89.7916 139.265 89.7316 139.625C89.6716 139.965 89.6416 140.455 89.6416 141.095C89.6416 141.715 89.6716 142.215 89.7316 142.595C89.8116 142.955 89.9316 143.215 90.0916 143.375C90.2516 143.515 90.4716 143.585 90.7516 143.585ZM110.173 145.775C108.453 145.775 107.043 145.375 105.943 144.575C104.843 143.775 104.023 142.615 103.483 141.095C102.963 139.575 102.703 137.735 102.703 135.575C102.703 133.655 102.893 132.045 103.273 130.745C103.673 129.425 104.223 128.375 104.923 127.595C105.643 126.795 106.493 126.215 107.473 125.855C108.453 125.495 109.533 125.315 110.713 125.315C111.333 125.315 112.003 125.355 112.723 125.435C113.463 125.515 114.183 125.615 114.883 125.735C115.583 125.835 116.173 125.935 116.653 126.035L116.323 129.125C115.903 129.085 115.373 129.035 114.733 128.975C114.113 128.915 113.463 128.865 112.783 128.825C112.103 128.765 111.453 128.735 110.833 128.735C109.473 128.735 108.453 129.165 107.773 130.025C107.093 130.865 106.733 132.075 106.693 133.655C106.893 133.595 107.143 133.525 107.443 133.445C107.763 133.345 108.103 133.245 108.463 133.145C108.843 133.025 109.223 132.935 109.603 132.875C109.983 132.795 110.343 132.755 110.683 132.755C112.903 132.755 114.563 133.275 115.663 134.315C116.783 135.335 117.343 136.945 117.343 139.145C117.343 140.625 117.053 141.855 116.473 142.835C115.893 143.815 115.073 144.555 114.013 145.055C112.953 145.535 111.673 145.775 110.173 145.775ZM110.173 142.415C111.273 142.415 112.093 142.135 112.633 141.575C113.193 140.995 113.473 140.185 113.473 139.145C113.473 138.105 113.193 137.345 112.633 136.865C112.073 136.365 111.283 136.115 110.263 136.115C109.843 136.115 109.403 136.155 108.943 136.235C108.483 136.315 108.053 136.425 107.653 136.565C107.253 136.685 106.923 136.805 106.663 136.925C106.683 137.985 106.803 138.935 107.023 139.775C107.243 140.595 107.603 141.245 108.103 141.725C108.623 142.185 109.313 142.415 110.173 142.415ZM126.843 145.775C125.123 145.775 123.713 145.375 122.613 144.575C121.513 143.775 120.693 142.615 120.153 141.095C119.633 139.575 119.373 137.735 119.373 135.575C119.373 133.655 119.563 132.045 119.943 130.745C120.343 129.425 120.893 128.375 121.593 127.595C122.313 126.795 123.163 126.215 124.143 125.855C125.123 125.495 126.203 125.315 127.383 125.315C128.003 125.315 128.673 125.355 129.393 125.435C130.133 125.515 130.853 125.615 131.553 125.735C132.253 125.835 132.843 125.935 133.323 126.035L132.993 129.125C132.573 129.085 132.043 129.035 131.403 128.975C130.783 128.915 130.133 128.865 129.453 128.825C128.773 128.765 128.123 128.735 127.503 128.735C126.143 128.735 125.123 129.165 124.443 130.025C123.763 130.865 123.403 132.075 123.363 133.655C123.563 133.595 123.813 133.525 124.113 133.445C124.433 133.345 124.773 133.245 125.133 133.145C125.513 133.025 125.893 132.935 126.273 132.875C126.653 132.795 127.013 132.755 127.353 132.755C129.573 132.755 131.233 133.275 132.333 134.315C133.453 135.335 134.013 136.945 134.013 139.145C134.013 140.625 133.723 141.855 133.143 142.835C132.563 143.815 131.743 144.555 130.683 145.055C129.623 145.535 128.343 145.775 126.843 145.775ZM126.843 142.415C127.943 142.415 128.763 142.135 129.303 141.575C129.863 140.995 130.143 140.185 130.143 139.145C130.143 138.105 129.863 137.345 129.303 136.865C128.743 136.365 127.953 136.115 126.933 136.115C126.513 136.115 126.073 136.155 125.613 136.235C125.153 136.315 124.723 136.425 124.323 136.565C123.923 136.685 123.593 136.805 123.333 136.925C123.353 137.985 123.473 138.935 123.693 139.775C123.913 140.595 124.273 141.245 124.773 141.725C125.293 142.185 125.983 142.415 126.843 142.415ZM136.523 145.445V141.005H140.693V145.445H136.523ZM150.689 145.775C149.929 145.775 149.109 145.715 148.229 145.595C147.349 145.495 146.499 145.365 145.679 145.205C144.859 145.045 144.159 144.905 143.579 144.785L143.939 141.725C144.479 141.805 145.119 141.905 145.859 142.025C146.599 142.125 147.359 142.205 148.139 142.265C148.919 142.325 149.629 142.355 150.269 142.355C151.289 142.355 152.099 142.095 152.699 141.575C153.299 141.035 153.599 140.255 153.599 139.235C153.599 138.535 153.469 137.985 153.209 137.585C152.969 137.185 152.609 136.905 152.129 136.745C151.669 136.565 151.129 136.475 150.509 136.475C150.029 136.475 149.549 136.525 149.069 136.625C148.589 136.705 148.139 136.815 147.719 136.955C147.299 137.075 146.959 137.205 146.699 137.345L143.999 136.925L144.479 125.645H156.869V129.275H147.719L147.329 133.685C147.609 133.565 147.959 133.445 148.379 133.325C148.799 133.185 149.249 133.065 149.729 132.965C150.229 132.865 150.709 132.815 151.169 132.815C152.549 132.815 153.719 133.005 154.679 133.385C155.639 133.765 156.369 134.395 156.869 135.275C157.389 136.155 157.649 137.355 157.649 138.875C157.649 140.455 157.359 141.755 156.779 142.775C156.219 143.775 155.419 144.525 154.379 145.025C153.359 145.525 152.129 145.775 150.689 145.775Z" fill="white"/>
<path d="M21.7401 79.4808L20.4241 79.1448L25.6881 59.1528L27.0321 59.5168L21.7401 79.4808ZM19.4441 68.3648C18.6601 68.3648 18.0068 68.2155 17.4841 67.9168C16.9801 67.5995 16.6068 67.1235 16.3641 66.4888C16.1215 65.8355 16.0001 65.0048 16.0001 63.9968C16.0001 62.9888 16.1215 62.1675 16.3641 61.5328C16.6255 60.8982 17.0081 60.4408 17.5121 60.1608C18.0348 59.8622 18.6788 59.7128 19.4441 59.7128C20.2468 59.7128 20.9001 59.8622 21.4041 60.1608C21.9081 60.4408 22.2815 60.8982 22.5241 61.5328C22.7668 62.1675 22.8881 62.9888 22.8881 63.9968C22.8881 65.0048 22.7668 65.8355 22.5241 66.4888C22.2815 67.1235 21.9081 67.5995 21.4041 67.9168C20.9001 68.2155 20.2468 68.3648 19.4441 68.3648ZM19.4441 66.3208C19.7055 66.3208 19.9108 66.2555 20.0601 66.1248C20.2095 65.9755 20.3121 65.7328 20.3681 65.3968C20.4428 65.0422 20.4801 64.5755 20.4801 63.9968C20.4801 63.4182 20.4428 62.9702 20.3681 62.6528C20.3121 62.3168 20.2095 62.0835 20.0601 61.9528C19.9108 61.8035 19.7055 61.7288 19.4441 61.7288C19.1828 61.7288 18.9775 61.8035 18.8281 61.9528C18.6788 62.0835 18.5761 62.3168 18.5201 62.6528C18.4641 62.9702 18.4361 63.4182 18.4361 63.9968C18.4361 64.5755 18.4641 65.0422 18.5201 65.3968C18.5761 65.7328 18.6788 65.9755 18.8281 66.1248C18.9775 66.2555 19.1828 66.3208 19.4441 66.3208ZM28.0681 78.7528C27.2655 78.7528 26.6028 78.6035 26.0801 78.3048C25.5761 77.9875 25.2028 77.5115 24.9601 76.8768C24.7175 76.2235 24.5961 75.3928 24.5961 74.3848C24.5961 73.3768 24.7175 72.5555 24.9601 71.9208C25.2215 71.2862 25.6041 70.8195 26.1081 70.5208C26.6308 70.2222 27.2841 70.0728 28.0681 70.0728C28.8521 70.0728 29.4961 70.2222 30.0001 70.5208C30.5041 70.8195 30.8775 71.2862 31.1201 71.9208C31.3815 72.5555 31.5121 73.3768 31.5121 74.3848C31.5121 75.3928 31.3815 76.2235 31.1201 76.8768C30.8775 77.5115 30.5041 77.9875 30.0001 78.3048C29.4961 78.6035 28.8521 78.7528 28.0681 78.7528ZM28.0681 76.7088C28.3108 76.7088 28.5068 76.6435 28.6561 76.5128C28.8241 76.3635 28.9361 76.1208 28.9921 75.7848C29.0481 75.4302 29.0761 74.9635 29.0761 74.3848C29.0761 73.7875 29.0481 73.3302 28.9921 73.0128C28.9361 72.6768 28.8335 72.4528 28.6841 72.3408C28.5348 72.2102 28.3295 72.1448 28.0681 72.1448C27.7881 72.1448 27.5735 72.2102 27.4241 72.3408C27.2748 72.4528 27.1721 72.6768 27.1161 73.0128C27.0601 73.3302 27.0321 73.7875 27.0321 74.3848C27.0321 74.9635 27.0601 75.4302 27.1161 75.7848C27.1908 76.1208 27.3028 76.3635 27.4521 76.5128C27.6015 76.6435 27.8068 76.7088 28.0681 76.7088ZM45.6908 78.7528C45.0002 78.7528 44.2722 78.7155 43.5068 78.6408C42.7602 78.5662 42.0415 78.4728 41.3508 78.3608C40.6788 78.2302 40.1188 78.1182 39.6708 78.0248L39.8388 75.0288C40.2868 75.0848 40.8188 75.1502 41.4348 75.2248C42.0695 75.2995 42.7135 75.3648 43.3668 75.4208C44.0388 75.4582 44.6548 75.4768 45.2148 75.4768C46.2788 75.4768 47.0722 75.2808 47.5948 74.8888C48.1175 74.4968 48.3788 73.8622 48.3788 72.9848C48.3788 72.3875 48.2575 71.9208 48.0148 71.5848C47.7908 71.2302 47.4548 70.9688 47.0068 70.8008C46.5775 70.6328 46.0735 70.5395 45.4948 70.5208H41.6868V67.4408H45.4108C45.8402 67.4408 46.2508 67.3475 46.6428 67.1608C47.0535 66.9742 47.3802 66.7035 47.6228 66.3488C47.8842 65.9942 48.0148 65.5648 48.0148 65.0608C48.0148 64.2768 47.7722 63.7262 47.2868 63.4088C46.8202 63.0728 46.0548 62.9048 44.9908 62.9048C44.4308 62.9048 43.8428 62.9328 43.2268 62.9888C42.6108 63.0448 42.0228 63.1102 41.4628 63.1848C40.9028 63.2408 40.4362 63.3062 40.0628 63.3808L39.8948 60.4408C40.3055 60.3288 40.8095 60.2168 41.4068 60.1048C42.0042 59.9742 42.6388 59.8715 43.3108 59.7968C43.9828 59.7035 44.6175 59.6568 45.2148 59.6568C46.8015 59.6568 48.0802 59.8248 49.0508 60.1608C50.0402 60.4782 50.7588 61.0102 51.2068 61.7568C51.6548 62.4848 51.8788 63.4462 51.8788 64.6408C51.8788 65.2942 51.7948 65.8448 51.6268 66.2928C51.4775 66.7408 51.2722 67.1235 51.0108 67.4408C50.7682 67.7582 50.5162 68.0195 50.2548 68.2248C49.9935 68.4115 49.7508 68.5795 49.5268 68.7288C50.0868 68.9902 50.5722 69.2795 50.9828 69.5968C51.3935 69.9142 51.7108 70.3342 51.9348 70.8568C52.1588 71.3795 52.2708 72.0795 52.2708 72.9568C52.2708 74.3568 52.0282 75.4862 51.5428 76.3448C51.0575 77.1848 50.3295 77.8008 49.3588 78.1928C48.3882 78.5662 47.1655 78.7528 45.6908 78.7528ZM61.2494 78.7528C60.5588 78.7528 59.8308 78.7155 59.0654 78.6408C58.3188 78.5662 57.6001 78.4728 56.9094 78.3608C56.2374 78.2302 55.6774 78.1182 55.2294 78.0248L55.3974 75.0288C55.8454 75.0848 56.3774 75.1502 56.9934 75.2248C57.6281 75.2995 58.2721 75.3648 58.9254 75.4208C59.5974 75.4582 60.2134 75.4768 60.7734 75.4768C61.8374 75.4768 62.6308 75.2808 63.1534 74.8888C63.6761 74.4968 63.9374 73.8622 63.9374 72.9848C63.9374 72.3875 63.8161 71.9208 63.5734 71.5848C63.3494 71.2302 63.0134 70.9688 62.5654 70.8008C62.1361 70.6328 61.6321 70.5395 61.0534 70.5208H57.2454V67.4408H60.9694C61.3988 67.4408 61.8094 67.3475 62.2014 67.1608C62.6121 66.9742 62.9388 66.7035 63.1814 66.3488C63.4428 65.9942 63.5734 65.5648 63.5734 65.0608C63.5734 64.2768 63.3308 63.7262 62.8454 63.4088C62.3788 63.0728 61.6134 62.9048 60.5494 62.9048C59.9894 62.9048 59.4014 62.9328 58.7854 62.9888C58.1694 63.0448 57.5814 63.1102 57.0214 63.1848C56.4614 63.2408 55.9948 63.3062 55.6214 63.3808L55.4534 60.4408C55.8641 60.3288 56.3681 60.2168 56.9654 60.1048C57.5628 59.9742 58.1974 59.8715 58.8694 59.7968C59.5414 59.7035 60.1761 59.6568 60.7734 59.6568C62.3601 59.6568 63.6388 59.8248 64.6094 60.1608C65.5988 60.4782 66.3174 61.0102 66.7654 61.7568C67.2134 62.4848 67.4374 63.4462 67.4374 64.6408C67.4374 65.2942 67.3534 65.8448 67.1854 66.2928C67.0361 66.7408 66.8308 67.1235 66.5694 67.4408C66.3268 67.7582 66.0748 68.0195 65.8134 68.2248C65.5521 68.4115 65.3094 68.5795 65.0854 68.7288C65.6454 68.9902 66.1308 69.2795 66.5414 69.5968C66.9521 69.9142 67.2694 70.3342 67.4934 70.8568C67.7174 71.3795 67.8294 72.0795 67.8294 72.9568C67.8294 74.3568 67.5868 75.4862 67.1014 76.3448C66.6161 77.1848 65.8881 77.8008 64.9174 78.1928C63.9468 78.5662 62.7241 78.7528 61.2494 78.7528ZM70.788 78.4448V74.3008H74.68V78.4448H70.788ZM84.0093 78.7528C83.2999 78.7528 82.5346 78.6968 81.7133 78.5848C80.8919 78.4915 80.0986 78.3702 79.3333 78.2208C78.5679 78.0715 77.9146 77.9408 77.3733 77.8288L77.7093 74.9728C78.2133 75.0475 78.8106 75.1408 79.5013 75.2528C80.1919 75.3462 80.9013 75.4208 81.6293 75.4768C82.3573 75.5328 83.0199 75.5608 83.6173 75.5608C84.5693 75.5608 85.3253 75.3182 85.8853 74.8328C86.4453 74.3288 86.7253 73.6008 86.7253 72.6488C86.7253 71.9955 86.6039 71.4822 86.3613 71.1088C86.1373 70.7355 85.8013 70.4742 85.3533 70.3248C84.9239 70.1568 84.4199 70.0728 83.8413 70.0728C83.3933 70.0728 82.9453 70.1195 82.4973 70.2128C82.0493 70.2875 81.6293 70.3902 81.2373 70.5208C80.8453 70.6328 80.5279 70.7542 80.2853 70.8848L77.7653 70.4928L78.2133 59.9648H89.7773V63.3528H81.2373L80.8733 67.4688C81.1346 67.3568 81.4613 67.2448 81.8533 67.1328C82.2453 67.0022 82.6653 66.8902 83.1133 66.7968C83.5799 66.7035 84.0279 66.6568 84.4573 66.6568C85.7453 66.6568 86.8373 66.8342 87.7333 67.1888C88.6293 67.5435 89.3106 68.1315 89.7773 68.9528C90.2626 69.7742 90.5053 70.8942 90.5053 72.3128C90.5053 73.7875 90.2346 75.0008 89.6933 75.9528C89.1706 76.8862 88.4239 77.5862 87.4533 78.0528C86.5013 78.5195 85.3533 78.7528 84.0093 78.7528Z" fill="white"/>
<path d="M406.939 146.555L405.529 146.195L411.169 124.775L412.609 125.165L406.939 146.555ZM404.479 134.645C403.639 134.645 402.939 134.485 402.379 134.165C401.839 133.825 401.439 133.315 401.179 132.635C400.919 131.935 400.789 131.045 400.789 129.965C400.789 128.885 400.919 128.005 401.179 127.325C401.459 126.645 401.869 126.155 402.409 125.855C402.969 125.535 403.659 125.375 404.479 125.375C405.339 125.375 406.039 125.535 406.579 125.855C407.119 126.155 407.519 126.645 407.779 127.325C408.039 128.005 408.169 128.885 408.169 129.965C408.169 131.045 408.039 131.935 407.779 132.635C407.519 133.315 407.119 133.825 406.579 134.165C406.039 134.485 405.339 134.645 404.479 134.645ZM404.479 132.455C404.759 132.455 404.979 132.385 405.139 132.245C405.299 132.085 405.409 131.825 405.469 131.465C405.549 131.085 405.589 130.585 405.589 129.965C405.589 129.345 405.549 128.865 405.469 128.525C405.409 128.165 405.299 127.915 405.139 127.775C404.979 127.615 404.759 127.535 404.479 127.535C404.199 127.535 403.979 127.615 403.819 127.775C403.659 127.915 403.549 128.165 403.489 128.525C403.429 128.865 403.399 129.345 403.399 129.965C403.399 130.585 403.429 131.085 403.489 131.465C403.549 131.825 403.659 132.085 403.819 132.245C403.979 132.385 404.199 132.455 404.479 132.455ZM413.719 145.775C412.859 145.775 412.149 145.615 411.589 145.295C411.049 144.955 410.649 144.445 410.389 143.765C410.129 143.065 409.999 142.175 409.999 141.095C409.999 140.015 410.129 139.135 410.389 138.455C410.669 137.775 411.079 137.275 411.619 136.955C412.179 136.635 412.879 136.475 413.719 136.475C414.559 136.475 415.249 136.635 415.789 136.955C416.329 137.275 416.729 137.775 416.989 138.455C417.269 139.135 417.409 140.015 417.409 141.095C417.409 142.175 417.269 143.065 416.989 143.765C416.729 144.445 416.329 144.955 415.789 145.295C415.249 145.615 414.559 145.775 413.719 145.775ZM413.719 143.585C413.979 143.585 414.189 143.515 414.349 143.375C414.529 143.215 414.649 142.955 414.709 142.595C414.769 142.215 414.799 141.715 414.799 141.095C414.799 140.455 414.769 139.965 414.709 139.625C414.649 139.265 414.539 139.025 414.379 138.905C414.219 138.765 413.999 138.695 413.719 138.695C413.419 138.695 413.189 138.765 413.029 138.905C412.869 139.025 412.759 139.265 412.699 139.625C412.639 139.965 412.609 140.455 412.609 141.095C412.609 141.715 412.639 142.215 412.699 142.595C412.779 142.955 412.899 143.215 413.059 143.375C413.219 143.515 413.439 143.585 413.719 143.585ZM433.141 145.775C431.421 145.775 430.011 145.375 428.911 144.575C427.811 143.775 426.991 142.615 426.451 141.095C425.931 139.575 425.671 137.735 425.671 135.575C425.671 133.655 425.861 132.045 426.241 130.745C426.641 129.425 427.191 128.375 427.891 127.595C428.611 126.795 429.461 126.215 430.441 125.855C431.421 125.495 432.501 125.315 433.681 125.315C434.301 125.315 434.971 125.355 435.691 125.435C436.431 125.515 437.151 125.615 437.851 125.735C438.551 125.835 439.141 125.935 439.621 126.035L439.291 129.125C438.871 129.085 438.341 129.035 437.701 128.975C437.081 128.915 436.431 128.865 435.751 128.825C435.071 128.765 434.421 128.735 433.801 128.735C432.441 128.735 431.421 129.165 430.741 130.025C430.061 130.865 429.701 132.075 429.661 133.655C429.861 133.595 430.111 133.525 430.411 133.445C430.731 133.345 431.071 133.245 431.431 133.145C431.811 133.025 432.191 132.935 432.571 132.875C432.951 132.795 433.311 132.755 433.651 132.755C435.871 132.755 437.531 133.275 438.631 134.315C439.751 135.335 440.311 136.945 440.311 139.145C440.311 140.625 440.021 141.855 439.441 142.835C438.861 143.815 438.041 144.555 436.981 145.055C435.921 145.535 434.641 145.775 433.141 145.775ZM433.141 142.415C434.241 142.415 435.061 142.135 435.601 141.575C436.161 140.995 436.441 140.185 436.441 139.145C436.441 138.105 436.161 137.345 435.601 136.865C435.041 136.365 434.251 136.115 433.231 136.115C432.811 136.115 432.371 136.155 431.911 136.235C431.451 136.315 431.021 136.425 430.621 136.565C430.221 136.685 429.891 136.805 429.631 136.925C429.651 137.985 429.771 138.935 429.991 139.775C430.211 140.595 430.571 141.245 431.071 141.725C431.591 142.185 432.281 142.415 433.141 142.415ZM449.271 145.775C448.531 145.775 447.751 145.735 446.931 145.655C446.131 145.575 445.361 145.475 444.621 145.355C443.901 145.215 443.301 145.095 442.821 144.995L443.001 141.785C443.481 141.845 444.051 141.915 444.711 141.995C445.391 142.075 446.081 142.145 446.781 142.205C447.501 142.245 448.161 142.265 448.761 142.265C449.901 142.265 450.751 142.055 451.311 141.635C451.871 141.215 452.151 140.535 452.151 139.595C452.151 138.955 452.021 138.455 451.761 138.095C451.521 137.715 451.161 137.435 450.681 137.255C450.221 137.075 449.681 136.975 449.061 136.955H444.981V133.655H448.971C449.431 133.655 449.871 133.555 450.291 133.355C450.731 133.155 451.081 132.865 451.341 132.485C451.621 132.105 451.761 131.645 451.761 131.105C451.761 130.265 451.501 129.675 450.981 129.335C450.481 128.975 449.661 128.795 448.521 128.795C447.921 128.795 447.291 128.825 446.631 128.885C445.971 128.945 445.341 129.015 444.741 129.095C444.141 129.155 443.641 129.225 443.241 129.305L443.061 126.155C443.501 126.035 444.041 125.915 444.681 125.795C445.321 125.655 446.001 125.545 446.721 125.465C447.441 125.365 448.121 125.315 448.761 125.315C450.461 125.315 451.831 125.495 452.871 125.855C453.931 126.195 454.701 126.765 455.181 127.565C455.661 128.345 455.901 129.375 455.901 130.655C455.901 131.355 455.811 131.945 455.631 132.425C455.471 132.905 455.251 133.315 454.971 133.655C454.711 133.995 454.441 134.275 454.161 134.495C453.881 134.695 453.621 134.875 453.381 135.035C453.981 135.315 454.501 135.625 454.941 135.965C455.381 136.305 455.721 136.755 455.961 137.315C456.201 137.875 456.321 138.625 456.321 139.565C456.321 141.065 456.061 142.275 455.541 143.195C455.021 144.095 454.241 144.755 453.201 145.175C452.161 145.575 450.851 145.775 449.271 145.775Z" fill="white"/>
<path d="M340.939 80.5548L339.529 80.1948L345.169 58.7748L346.609 59.1648L340.939 80.5548ZM338.479 68.6448C337.639 68.6448 336.939 68.4848 336.379 68.1648C335.839 67.8248 335.439 67.3148 335.179 66.6348C334.919 65.9348 334.789 65.0448 334.789 63.9648C334.789 62.8848 334.919 62.0048 335.179 61.3248C335.459 60.6448 335.869 60.1548 336.409 59.8548C336.969 59.5348 337.659 59.3748 338.479 59.3748C339.339 59.3748 340.039 59.5348 340.579 59.8548C341.119 60.1548 341.519 60.6448 341.779 61.3248C342.039 62.0048 342.169 62.8848 342.169 63.9648C342.169 65.0448 342.039 65.9348 341.779 66.6348C341.519 67.3148 341.119 67.8248 340.579 68.1648C340.039 68.4848 339.339 68.6448 338.479 68.6448ZM338.479 66.4548C338.759 66.4548 338.979 66.3848 339.139 66.2448C339.299 66.0848 339.409 65.8248 339.469 65.4648C339.549 65.0848 339.589 64.5848 339.589 63.9648C339.589 63.3448 339.549 62.8648 339.469 62.5248C339.409 62.1648 339.299 61.9148 339.139 61.7748C338.979 61.6148 338.759 61.5348 338.479 61.5348C338.199 61.5348 337.979 61.6148 337.819 61.7748C337.659 61.9148 337.549 62.1648 337.489 62.5248C337.429 62.8648 337.399 63.3448 337.399 63.9648C337.399 64.5848 337.429 65.0848 337.489 65.4648C337.549 65.8248 337.659 66.0848 337.819 66.2448C337.979 66.3848 338.199 66.4548 338.479 66.4548ZM347.719 79.7748C346.859 79.7748 346.149 79.6148 345.589 79.2948C345.049 78.9548 344.649 78.4448 344.389 77.7648C344.129 77.0648 343.999 76.1748 343.999 75.0948C343.999 74.0148 344.129 73.1348 344.389 72.4548C344.669 71.7748 345.079 71.2748 345.619 70.9548C346.179 70.6348 346.879 70.4748 347.719 70.4748C348.559 70.4748 349.249 70.6348 349.789 70.9548C350.329 71.2748 350.729 71.7748 350.989 72.4548C351.269 73.1348 351.409 74.0148 351.409 75.0948C351.409 76.1748 351.269 77.0648 350.989 77.7648C350.729 78.4448 350.329 78.9548 349.789 79.2948C349.249 79.6148 348.559 79.7748 347.719 79.7748ZM347.719 77.5848C347.979 77.5848 348.189 77.5148 348.349 77.3748C348.529 77.2148 348.649 76.9548 348.709 76.5948C348.769 76.2148 348.799 75.7148 348.799 75.0948C348.799 74.4548 348.769 73.9648 348.709 73.6248C348.649 73.2648 348.539 73.0248 348.379 72.9048C348.219 72.7648 347.999 72.6948 347.719 72.6948C347.419 72.6948 347.189 72.7648 347.029 72.9048C346.869 73.0248 346.759 73.2648 346.699 73.6248C346.639 73.9648 346.609 74.4548 346.609 75.0948C346.609 75.7148 346.639 76.2148 346.699 76.5948C346.779 76.9548 346.899 77.2148 347.059 77.3748C347.219 77.5148 347.439 77.5848 347.719 77.5848ZM366.601 79.7748C365.861 79.7748 365.081 79.7348 364.261 79.6548C363.461 79.5748 362.691 79.4748 361.951 79.3548C361.231 79.2148 360.631 79.0948 360.151 78.9948L360.331 75.7848C360.811 75.8448 361.381 75.9148 362.041 75.9948C362.721 76.0748 363.411 76.1448 364.111 76.2048C364.831 76.2448 365.491 76.2648 366.091 76.2648C367.231 76.2648 368.081 76.0548 368.641 75.6348C369.201 75.2148 369.481 74.5348 369.481 73.5948C369.481 72.9548 369.351 72.4548 369.091 72.0948C368.851 71.7148 368.491 71.4348 368.011 71.2548C367.551 71.0748 367.011 70.9748 366.391 70.9548H362.311V67.6548H366.301C366.761 67.6548 367.201 67.5548 367.621 67.3548C368.061 67.1548 368.411 66.8648 368.671 66.4848C368.951 66.1048 369.091 65.6448 369.091 65.1048C369.091 64.2648 368.831 63.6748 368.311 63.3348C367.811 62.9748 366.991 62.7948 365.851 62.7948C365.251 62.7948 364.621 62.8248 363.961 62.8848C363.301 62.9448 362.671 63.0148 362.071 63.0948C361.471 63.1548 360.971 63.2248 360.571 63.3048L360.391 60.1548C360.831 60.0348 361.371 59.9148 362.011 59.7948C362.651 59.6548 363.331 59.5448 364.051 59.4648C364.771 59.3648 365.451 59.3148 366.091 59.3148C367.791 59.3148 369.161 59.4948 370.201 59.8548C371.261 60.1948 372.031 60.7648 372.511 61.5648C372.991 62.3448 373.231 63.3748 373.231 64.6548C373.231 65.3548 373.141 65.9448 372.961 66.4248C372.801 66.9048 372.581 67.3148 372.301 67.6548C372.041 67.9948 371.771 68.2748 371.491 68.4948C371.211 68.6948 370.951 68.8748 370.711 69.0348C371.311 69.3148 371.831 69.6248 372.271 69.9648C372.711 70.3048 373.051 70.7548 373.291 71.3148C373.531 71.8748 373.651 72.6248 373.651 73.5648C373.651 75.0648 373.391 76.2748 372.871 77.1948C372.351 78.0948 371.571 78.7548 370.531 79.1748C369.491 79.5748 368.181 79.7748 366.601 79.7748ZM383.331 79.7748L379.371 78.8148L385.851 64.1748V63.3948H377.241V59.6448H390.051V64.1148L383.331 79.7748Z" fill="white"/>
<path d="M696.939 146.555L695.529 146.195L701.169 124.775L702.609 125.165L696.939 146.555ZM694.479 134.645C693.639 134.645 692.939 134.485 692.379 134.165C691.839 133.825 691.439 133.315 691.179 132.635C690.919 131.935 690.789 131.045 690.789 129.965C690.789 128.885 690.919 128.005 691.179 127.325C691.459 126.645 691.869 126.155 692.409 125.855C692.969 125.535 693.659 125.375 694.479 125.375C695.339 125.375 696.039 125.535 696.579 125.855C697.119 126.155 697.519 126.645 697.779 127.325C698.039 128.005 698.169 128.885 698.169 129.965C698.169 131.045 698.039 131.935 697.779 132.635C697.519 133.315 697.119 133.825 696.579 134.165C696.039 134.485 695.339 134.645 694.479 134.645ZM694.479 132.455C694.759 132.455 694.979 132.385 695.139 132.245C695.299 132.085 695.409 131.825 695.469 131.465C695.549 131.085 695.589 130.585 695.589 129.965C695.589 129.345 695.549 128.865 695.469 128.525C695.409 128.165 695.299 127.915 695.139 127.775C694.979 127.615 694.759 127.535 694.479 127.535C694.199 127.535 693.979 127.615 693.819 127.775C693.659 127.915 693.549 128.165 693.489 128.525C693.429 128.865 693.399 129.345 693.399 129.965C693.399 130.585 693.429 131.085 693.489 131.465C693.549 131.825 693.659 132.085 693.819 132.245C693.979 132.385 694.199 132.455 694.479 132.455ZM703.719 145.775C702.859 145.775 702.149 145.615 701.589 145.295C701.049 144.955 700.649 144.445 700.389 143.765C700.129 143.065 699.999 142.175 699.999 141.095C699.999 140.015 700.129 139.135 700.389 138.455C700.669 137.775 701.079 137.275 701.619 136.955C702.179 136.635 702.879 136.475 703.719 136.475C704.559 136.475 705.249 136.635 705.789 136.955C706.329 137.275 706.729 137.775 706.989 138.455C707.269 139.135 707.409 140.015 707.409 141.095C707.409 142.175 707.269 143.065 706.989 143.765C706.729 144.445 706.329 144.955 705.789 145.295C705.249 145.615 704.559 145.775 703.719 145.775ZM703.719 143.585C703.979 143.585 704.189 143.515 704.349 143.375C704.529 143.215 704.649 142.955 704.709 142.595C704.769 142.215 704.799 141.715 704.799 141.095C704.799 140.455 704.769 139.965 704.709 139.625C704.649 139.265 704.539 139.025 704.379 138.905C704.219 138.765 703.999 138.695 703.719 138.695C703.419 138.695 703.189 138.765 703.029 138.905C702.869 139.025 702.759 139.265 702.699 139.625C702.639 139.965 702.609 140.455 702.609 141.095C702.609 141.715 702.639 142.215 702.699 142.595C702.779 142.955 702.899 143.215 703.059 143.375C703.219 143.515 703.439 143.585 703.719 143.585ZM723.051 145.775C722.291 145.775 721.471 145.715 720.591 145.595C719.711 145.495 718.861 145.365 718.041 145.205C717.221 145.045 716.521 144.905 715.941 144.785L716.301 141.725C716.841 141.805 717.481 141.905 718.221 142.025C718.961 142.125 719.721 142.205 720.501 142.265C721.281 142.325 721.991 142.355 722.631 142.355C723.651 142.355 724.461 142.095 725.061 141.575C725.661 141.035 725.961 140.255 725.961 139.235C725.961 138.535 725.831 137.985 725.571 137.585C725.331 137.185 724.971 136.905 724.491 136.745C724.031 136.565 723.491 136.475 722.871 136.475C722.391 136.475 721.911 136.525 721.431 136.625C720.951 136.705 720.501 136.815 720.081 136.955C719.661 137.075 719.321 137.205 719.061 137.345L716.361 136.925L716.841 125.645H729.231V129.275H720.081L719.691 133.685C719.971 133.565 720.321 133.445 720.741 133.325C721.161 133.185 721.611 133.065 722.091 132.965C722.591 132.865 723.071 132.815 723.531 132.815C724.911 132.815 726.081 133.005 727.041 133.385C728.001 133.765 728.731 134.395 729.231 135.275C729.751 136.155 730.011 137.355 730.011 138.875C730.011 140.455 729.721 141.755 729.141 142.775C728.581 143.775 727.781 144.525 726.741 145.025C725.721 145.525 724.491 145.775 723.051 145.775ZM739.721 145.775C738.961 145.775 738.141 145.715 737.261 145.595C736.381 145.495 735.531 145.365 734.711 145.205C733.891 145.045 733.191 144.905 732.611 144.785L732.971 141.725C733.511 141.805 734.151 141.905 734.891 142.025C735.631 142.125 736.391 142.205 737.171 142.265C737.951 142.325 738.661 142.355 739.301 142.355C740.321 142.355 741.131 142.095 741.731 141.575C742.331 141.035 742.631 140.255 742.631 139.235C742.631 138.535 742.501 137.985 742.241 137.585C742.001 137.185 741.641 136.905 741.161 136.745C740.701 136.565 740.161 136.475 739.541 136.475C739.061 136.475 738.581 136.525 738.101 136.625C737.621 136.705 737.171 136.815 736.751 136.955C736.331 137.075 735.991 137.205 735.731 137.345L733.031 136.925L733.511 125.645H745.901V129.275H736.751L736.361 133.685C736.641 133.565 736.991 133.445 737.411 133.325C737.831 133.185 738.281 133.065 738.761 132.965C739.261 132.865 739.741 132.815 740.201 132.815C741.581 132.815 742.751 133.005 743.711 133.385C744.671 133.765 745.401 134.395 745.901 135.275C746.421 136.155 746.681 137.355 746.681 138.875C746.681 140.455 746.391 141.755 745.811 142.775C745.251 143.775 744.451 144.525 743.411 145.025C742.391 145.525 741.161 145.775 739.721 145.775Z" fill="white"/>
<path d="M616.939 78.5548L615.529 78.1948L621.169 56.7748L622.609 57.1648L616.939 78.5548ZM614.479 66.6448C613.639 66.6448 612.939 66.4848 612.379 66.1648C611.839 65.8248 611.439 65.3148 611.179 64.6348C610.919 63.9348 610.789 63.0448 610.789 61.9648C610.789 60.8848 610.919 60.0048 611.179 59.3248C611.459 58.6448 611.869 58.1548 612.409 57.8548C612.969 57.5348 613.659 57.3748 614.479 57.3748C615.339 57.3748 616.039 57.5348 616.579 57.8548C617.119 58.1548 617.519 58.6448 617.779 59.3248C618.039 60.0048 618.169 60.8848 618.169 61.9648C618.169 63.0448 618.039 63.9348 617.779 64.6348C617.519 65.3148 617.119 65.8248 616.579 66.1648C616.039 66.4848 615.339 66.6448 614.479 66.6448ZM614.479 64.4548C614.759 64.4548 614.979 64.3848 615.139 64.2448C615.299 64.0848 615.409 63.8248 615.469 63.4648C615.549 63.0848 615.589 62.5848 615.589 61.9648C615.589 61.3448 615.549 60.8648 615.469 60.5248C615.409 60.1648 615.299 59.9148 615.139 59.7748C614.979 59.6148 614.759 59.5348 614.479 59.5348C614.199 59.5348 613.979 59.6148 613.819 59.7748C613.659 59.9148 613.549 60.1648 613.489 60.5248C613.429 60.8648 613.399 61.3448 613.399 61.9648C613.399 62.5848 613.429 63.0848 613.489 63.4648C613.549 63.8248 613.659 64.0848 613.819 64.2448C613.979 64.3848 614.199 64.4548 614.479 64.4548ZM623.719 77.7748C622.859 77.7748 622.149 77.6148 621.589 77.2948C621.049 76.9548 620.649 76.4448 620.389 75.7648C620.129 75.0648 619.999 74.1748 619.999 73.0948C619.999 72.0148 620.129 71.1348 620.389 70.4548C620.669 69.7748 621.079 69.2748 621.619 68.9548C622.179 68.6348 622.879 68.4748 623.719 68.4748C624.559 68.4748 625.249 68.6348 625.789 68.9548C626.329 69.2748 626.729 69.7748 626.989 70.4548C627.269 71.1348 627.409 72.0148 627.409 73.0948C627.409 74.1748 627.269 75.0648 626.989 75.7648C626.729 76.4448 626.329 76.9548 625.789 77.2948C625.249 77.6148 624.559 77.7748 623.719 77.7748ZM623.719 75.5848C623.979 75.5848 624.189 75.5148 624.349 75.3748C624.529 75.2148 624.649 74.9548 624.709 74.5948C624.769 74.2148 624.799 73.7148 624.799 73.0948C624.799 72.4548 624.769 71.9648 624.709 71.6248C624.649 71.2648 624.539 71.0248 624.379 70.9048C624.219 70.7648 623.999 70.6948 623.719 70.6948C623.419 70.6948 623.189 70.7648 623.029 70.9048C622.869 71.0248 622.759 71.2648 622.699 71.6248C622.639 71.9648 622.609 72.4548 622.609 73.0948C622.609 73.7148 622.639 74.2148 622.699 74.5948C622.779 74.9548 622.899 75.2148 623.059 75.3748C623.219 75.5148 623.439 75.5848 623.719 75.5848ZM644.551 77.4448V74.1448H635.551V71.1448L640.051 57.6448H644.671L639.661 70.6948H644.551L644.791 65.5948L648.631 65.5348V70.6948H650.461V74.1448H648.631V77.4448H644.551ZM659.721 77.7748C658.961 77.7748 658.141 77.7148 657.261 77.5948C656.381 77.4948 655.531 77.3648 654.711 77.2048C653.891 77.0448 653.191 76.9048 652.611 76.7848L652.971 73.7248C653.511 73.8048 654.151 73.9048 654.891 74.0248C655.631 74.1248 656.391 74.2048 657.171 74.2648C657.951 74.3248 658.661 74.3548 659.301 74.3548C660.321 74.3548 661.131 74.0948 661.731 73.5748C662.331 73.0348 662.631 72.2548 662.631 71.2348C662.631 70.5348 662.501 69.9848 662.241 69.5848C662.001 69.1848 661.641 68.9048 661.161 68.7448C660.701 68.5648 660.161 68.4748 659.541 68.4748C659.061 68.4748 658.581 68.5248 658.101 68.6248C657.621 68.7048 657.171 68.8148 656.751 68.9548C656.331 69.0748 655.991 69.2048 655.731 69.3448L653.031 68.9248L653.511 57.6448H665.901V61.2748H656.751L656.361 65.6848C656.641 65.5648 656.991 65.4448 657.411 65.3248C657.831 65.1848 658.281 65.0648 658.761 64.9648C659.261 64.8648 659.741 64.8148 660.201 64.8148C661.581 64.8148 662.751 65.0048 663.711 65.3848C664.671 65.7648 665.401 66.3948 665.901 67.2748C666.421 68.1548 666.681 69.3548 666.681 70.8748C666.681 72.4548 666.391 73.7548 665.811 74.7748C665.251 75.7748 664.451 76.5248 663.411 77.0248C662.391 77.5248 661.161 77.7748 659.721 77.7748Z" fill="white"/>
<path d="M981.939 146.555L980.529 146.195L986.169 124.775L987.609 125.165L981.939 146.555ZM979.479 134.645C978.639 134.645 977.939 134.485 977.379 134.165C976.839 133.825 976.439 133.315 976.179 132.635C975.919 131.935 975.789 131.045 975.789 129.965C975.789 128.885 975.919 128.005 976.179 127.325C976.459 126.645 976.869 126.155 977.409 125.855C977.969 125.535 978.659 125.375 979.479 125.375C980.339 125.375 981.039 125.535 981.579 125.855C982.119 126.155 982.519 126.645 982.779 127.325C983.039 128.005 983.169 128.885 983.169 129.965C983.169 131.045 983.039 131.935 982.779 132.635C982.519 133.315 982.119 133.825 981.579 134.165C981.039 134.485 980.339 134.645 979.479 134.645ZM979.479 132.455C979.759 132.455 979.979 132.385 980.139 132.245C980.299 132.085 980.409 131.825 980.469 131.465C980.549 131.085 980.589 130.585 980.589 129.965C980.589 129.345 980.549 128.865 980.469 128.525C980.409 128.165 980.299 127.915 980.139 127.775C979.979 127.615 979.759 127.535 979.479 127.535C979.199 127.535 978.979 127.615 978.819 127.775C978.659 127.915 978.549 128.165 978.489 128.525C978.429 128.865 978.399 129.345 978.399 129.965C978.399 130.585 978.429 131.085 978.489 131.465C978.549 131.825 978.659 132.085 978.819 132.245C978.979 132.385 979.199 132.455 979.479 132.455ZM988.719 145.775C987.859 145.775 987.149 145.615 986.589 145.295C986.049 144.955 985.649 144.445 985.389 143.765C985.129 143.065 984.999 142.175 984.999 141.095C984.999 140.015 985.129 139.135 985.389 138.455C985.669 137.775 986.079 137.275 986.619 136.955C987.179 136.635 987.879 136.475 988.719 136.475C989.559 136.475 990.249 136.635 990.789 136.955C991.329 137.275 991.729 137.775 991.989 138.455C992.269 139.135 992.409 140.015 992.409 141.095C992.409 142.175 992.269 143.065 991.989 143.765C991.729 144.445 991.329 144.955 990.789 145.295C990.249 145.615 989.559 145.775 988.719 145.775ZM988.719 143.585C988.979 143.585 989.189 143.515 989.349 143.375C989.529 143.215 989.649 142.955 989.709 142.595C989.769 142.215 989.799 141.715 989.799 141.095C989.799 140.455 989.769 139.965 989.709 139.625C989.649 139.265 989.539 139.025 989.379 138.905C989.219 138.765 988.999 138.695 988.719 138.695C988.419 138.695 988.189 138.765 988.029 138.905C987.869 139.025 987.759 139.265 987.699 139.625C987.639 139.965 987.609 140.455 987.609 141.095C987.609 141.715 987.639 142.215 987.699 142.595C987.779 142.955 987.899 143.215 988.059 143.375C988.219 143.515 988.439 143.585 988.719 143.585ZM1009.55 145.445V142.145H1000.55V139.145L1005.05 125.645H1009.67L1004.66 138.695H1009.55L1009.79 133.595L1013.63 133.535V138.695H1015.46V142.145H1013.63V145.445H1009.55ZM1024.54 145.775C1023.54 145.775 1022.58 145.685 1021.66 145.505C1020.74 145.345 1019.93 145.065 1019.23 144.665C1018.53 144.245 1017.98 143.685 1017.58 142.985C1017.18 142.265 1016.98 141.375 1016.98 140.315C1016.98 139.315 1017.1 138.515 1017.34 137.915C1017.6 137.315 1017.96 136.805 1018.42 136.385C1018.88 135.965 1019.43 135.565 1020.07 135.185C1019.43 134.825 1018.9 134.445 1018.48 134.045C1018.08 133.645 1017.78 133.165 1017.58 132.605C1017.4 132.025 1017.31 131.325 1017.31 130.505C1017.31 129.285 1017.61 128.295 1018.21 127.535C1018.83 126.775 1019.68 126.215 1020.76 125.855C1021.86 125.495 1023.12 125.315 1024.54 125.315C1025.96 125.315 1027.22 125.485 1028.32 125.825C1029.44 126.165 1030.31 126.725 1030.93 127.505C1031.57 128.265 1031.89 129.275 1031.89 130.535C1031.89 131.375 1031.79 132.085 1031.59 132.665C1031.41 133.225 1031.11 133.705 1030.69 134.105C1030.27 134.485 1029.71 134.855 1029.01 135.215C1029.71 135.535 1030.29 135.905 1030.75 136.325C1031.23 136.725 1031.59 137.225 1031.83 137.825C1032.07 138.425 1032.19 139.195 1032.19 140.135C1032.19 141.215 1031.99 142.125 1031.59 142.865C1031.19 143.585 1030.63 144.165 1029.91 144.605C1029.21 145.025 1028.4 145.325 1027.48 145.505C1026.56 145.685 1025.58 145.775 1024.54 145.775ZM1024.54 142.505C1025.24 142.505 1025.85 142.425 1026.37 142.265C1026.91 142.085 1027.32 141.795 1027.6 141.395C1027.9 140.975 1028.05 140.405 1028.05 139.685C1028.05 139.125 1027.94 138.665 1027.72 138.305C1027.52 137.925 1027.23 137.615 1026.85 137.375C1026.49 137.135 1026.09 136.945 1025.65 136.805H1023.4C1022.7 137.025 1022.14 137.375 1021.72 137.855C1021.32 138.315 1021.12 138.955 1021.12 139.775C1021.12 140.435 1021.26 140.965 1021.54 141.365C1021.84 141.765 1022.25 142.055 1022.77 142.235C1023.29 142.415 1023.88 142.505 1024.54 142.505ZM1023.4 133.775H1025.65C1026.31 133.515 1026.83 133.175 1027.21 132.755C1027.59 132.335 1027.78 131.785 1027.78 131.105C1027.78 130.205 1027.5 129.555 1026.94 129.155C1026.4 128.755 1025.61 128.555 1024.57 128.555C1023.55 128.555 1022.77 128.755 1022.23 129.155C1021.69 129.555 1021.42 130.195 1021.42 131.075C1021.42 131.775 1021.59 132.335 1021.93 132.755C1022.27 133.175 1022.76 133.515 1023.4 133.775Z" fill="white"/>
<path d="M887.939 78.5548L886.529 78.1948L892.169 56.7748L893.609 57.1648L887.939 78.5548ZM885.479 66.6448C884.639 66.6448 883.939 66.4848 883.379 66.1648C882.839 65.8248 882.439 65.3148 882.179 64.6348C881.919 63.9348 881.789 63.0448 881.789 61.9648C881.789 60.8848 881.919 60.0048 882.179 59.3248C882.459 58.6448 882.869 58.1548 883.409 57.8548C883.969 57.5348 884.659 57.3748 885.479 57.3748C886.339 57.3748 887.039 57.5348 887.579 57.8548C888.119 58.1548 888.519 58.6448 888.779 59.3248C889.039 60.0048 889.169 60.8848 889.169 61.9648C889.169 63.0448 889.039 63.9348 888.779 64.6348C888.519 65.3148 888.119 65.8248 887.579 66.1648C887.039 66.4848 886.339 66.6448 885.479 66.6448ZM885.479 64.4548C885.759 64.4548 885.979 64.3848 886.139 64.2448C886.299 64.0848 886.409 63.8248 886.469 63.4648C886.549 63.0848 886.589 62.5848 886.589 61.9648C886.589 61.3448 886.549 60.8648 886.469 60.5248C886.409 60.1648 886.299 59.9148 886.139 59.7748C885.979 59.6148 885.759 59.5348 885.479 59.5348C885.199 59.5348 884.979 59.6148 884.819 59.7748C884.659 59.9148 884.549 60.1648 884.489 60.5248C884.429 60.8648 884.399 61.3448 884.399 61.9648C884.399 62.5848 884.429 63.0848 884.489 63.4648C884.549 63.8248 884.659 64.0848 884.819 64.2448C884.979 64.3848 885.199 64.4548 885.479 64.4548ZM894.719 77.7748C893.859 77.7748 893.149 77.6148 892.589 77.2948C892.049 76.9548 891.649 76.4448 891.389 75.7648C891.129 75.0648 890.999 74.1748 890.999 73.0948C890.999 72.0148 891.129 71.1348 891.389 70.4548C891.669 69.7748 892.079 69.2748 892.619 68.9548C893.179 68.6348 893.879 68.4748 894.719 68.4748C895.559 68.4748 896.249 68.6348 896.789 68.9548C897.329 69.2748 897.729 69.7748 897.989 70.4548C898.269 71.1348 898.409 72.0148 898.409 73.0948C898.409 74.1748 898.269 75.0648 897.989 75.7648C897.729 76.4448 897.329 76.9548 896.789 77.2948C896.249 77.6148 895.559 77.7748 894.719 77.7748ZM894.719 75.5848C894.979 75.5848 895.189 75.5148 895.349 75.3748C895.529 75.2148 895.649 74.9548 895.709 74.5948C895.769 74.2148 895.799 73.7148 895.799 73.0948C895.799 72.4548 895.769 71.9648 895.709 71.6248C895.649 71.2648 895.539 71.0248 895.379 70.9048C895.219 70.7648 894.999 70.6948 894.719 70.6948C894.419 70.6948 894.189 70.7648 894.029 70.9048C893.869 71.0248 893.759 71.2648 893.699 71.6248C893.639 71.9648 893.609 72.4548 893.609 73.0948C893.609 73.7148 893.639 74.2148 893.699 74.5948C893.779 74.9548 893.899 75.2148 894.059 75.3748C894.219 75.5148 894.439 75.5848 894.719 75.5848ZM914.051 77.7748C913.291 77.7748 912.471 77.7148 911.591 77.5948C910.711 77.4948 909.861 77.3648 909.041 77.2048C908.221 77.0448 907.521 76.9048 906.941 76.7848L907.301 73.7248C907.841 73.8048 908.481 73.9048 909.221 74.0248C909.961 74.1248 910.721 74.2048 911.501 74.2648C912.281 74.3248 912.991 74.3548 913.631 74.3548C914.651 74.3548 915.461 74.0948 916.061 73.5748C916.661 73.0348 916.961 72.2548 916.961 71.2348C916.961 70.5348 916.831 69.9848 916.571 69.5848C916.331 69.1848 915.971 68.9048 915.491 68.7448C915.031 68.5648 914.491 68.4748 913.871 68.4748C913.391 68.4748 912.911 68.5248 912.431 68.6248C911.951 68.7048 911.501 68.8148 911.081 68.9548C910.661 69.0748 910.321 69.2048 910.061 69.3448L907.361 68.9248L907.841 57.6448H920.231V61.2748H911.081L910.691 65.6848C910.971 65.5648 911.321 65.4448 911.741 65.3248C912.161 65.1848 912.611 65.0648 913.091 64.9648C913.591 64.8648 914.071 64.8148 914.531 64.8148C915.911 64.8148 917.081 65.0048 918.041 65.3848C919.001 65.7648 919.731 66.3948 920.231 67.2748C920.751 68.1548 921.011 69.3548 921.011 70.8748C921.011 72.4548 920.721 73.7548 920.141 74.7748C919.581 75.7748 918.781 76.5248 917.741 77.0248C916.721 77.5248 915.491 77.7748 914.051 77.7748ZM924.031 77.4448V74.2048L928.561 69.5548C929.421 68.6748 930.161 67.9048 930.781 67.2448C931.401 66.5648 931.871 65.9248 932.191 65.3248C932.531 64.7248 932.701 64.0848 932.701 63.4048C932.701 62.4048 932.421 61.7348 931.861 61.3948C931.301 61.0348 930.401 60.8548 929.161 60.8548C928.661 60.8548 928.111 60.8848 927.511 60.9448C926.911 61.0048 926.331 61.0748 925.771 61.1548C925.231 61.2348 924.761 61.3148 924.361 61.3948L924.151 58.2148C924.591 58.0948 925.131 57.9648 925.771 57.8248C926.431 57.6848 927.141 57.5648 927.901 57.4648C928.681 57.3448 929.441 57.2848 930.181 57.2848C932.341 57.2848 933.991 57.7448 935.131 58.6648C936.271 59.5648 936.841 60.9648 936.841 62.8648C936.841 63.9048 936.691 64.8248 936.391 65.6248C936.111 66.4248 935.661 67.1948 935.041 67.9348C934.441 68.6548 933.641 69.4448 932.641 70.3048L928.681 74.0848H937.111V77.4448H924.031Z" fill="white"/>
</svg>
